<?xml version="1.0" encoding="UTF-8"?>
<svg xmlns="http://www.w3.org/2000/svg" id="Layer_1" data-name="Layer 1" viewBox="0 0 500 500">
  <defs>
    <style>.cls-1{fill:#e60013;}.cls-2{fill:#231916;}</style>
  </defs>
  <path class="cls-1" d="M286.51,145.09c-1.78,3.79-4.11,7.28-6.19,10.91-5.4,9.48-10.89,18.92-16.35,28.37q-6.74,11.64-13.48,23.29c-.29.51-.72,1-.62,1.65a5.83,5.83,0,0,0,2.42.16q50.49,0,101-.05a4,4,0,0,1,4,2.36c3.65,6.52,7.4,13,11.13,19.47q7.67,13.32,15.35,26.62,6.72,11.67,13.47,23.31,5.43,9.42,10.88,18.84c.24.43.64.86.42,1.47a4.65,4.65,0,0,1-2.16.17q-50.94,0-101.86,0a3,3,0,0,1-3.1-1.85c-4.69-8.25-9.54-16.41-14.31-24.62-4.43-7.63-8.81-15.29-13.23-22.92q-12.08-20.88-24.17-41.73a7,7,0,0,0-.5-.63c-2.32,4-4.61,7.93-6.88,11.87L230,243.2q-6.44,11.19-12.87,22.36-6,10.4-12,20.78c-2.7,4.66-5.48,9.27-8.09,14a2.32,2.32,0,0,1-2.49,1.37c-1.19-.08-2.39,0-3.59,0H90.11c0-1.54,1-2.54,1.66-3.63q10.86-19,21.85-37.89,7.47-12.9,14.95-25.81,6.78-11.75,13.5-23.54a2.25,2.25,0,0,1,2.28-1.34c5.62,0,11.25,0,16.87,0h87.13c.48-.71,0-1.09-.21-1.53L234.59,184.2c1.49-1.1,2.56-.37,3.34.9,1.16,1.91,2.32,3.85,3.34,5.83,2.44,4.72,5.76,8.94,7.59,14.1a2.73,2.73,0,0,0,1.68-1.82,31,31,0,0,1,4-7.52c3.26-4.68,5.39-10,8.52-14.71,2.38-3.61,4.24-7.59,6.56-11.23,3.17-5,5.51-10.44,8.91-15.31,1.94-2.79,3.34-6,5.09-8.95C284.32,144.26,285.3,143.42,286.51,145.09Z"></path>
  <path class="cls-1" d="M286.51,145.09c-1.67-.59-1.69-.6-2.48.9-1.51,2.85-3.66,5.35-4.58,8.52-.11.37-.7.57-.93.93-1.62,2.49-3.07,5.06-4.44,7.69-.71,1.37-.91,3.12-2.43,4.11a4.93,4.93,0,0,0-1.47,2.43c-1.44,3.6-3.8,6.67-5.61,10.06-1.6,3-3.6,5.83-5.28,8.82-.72,1.29-1.64,2.52-1.73,4.09a.93.93,0,0,1-.73,1,1.85,1.85,0,0,0-1.23,1.22c-1.36,2.87-3.43,5.38-4.35,8.47-.39,1.28-1.72,1.83-2.22,3.32a75.59,75.59,0,0,0-5.21-10.25,22,22,0,0,1-2.78-4.73,5.25,5.25,0,0,0-1.57-2.42c-1-.87-1-2.26-1.63-3.36a2.79,2.79,0,0,0-3.25-1.67q-5-8.52-9.89-17-5.59-9.71-11.18-19.44l-12.64-21.94c-1.34-2.33-2.65-4.69-4-7a2.86,2.86,0,0,1,0-3.29c5.65-9.67,11.22-19.4,16.81-29.1q5.82-10.1,11.65-20.19,6.39-11.06,12.8-22.1c3.66-6.33,7.31-12.67,11.08-19.2,1.49,2.53,2.93,4.93,4.33,7.35q5.94,10.26,11.87,20.56,6.12,10.56,12.27,21.11,6,10.38,12,20.75c4.11,7.12,8.21,14.24,12.37,21.33a2,2,0,0,1,.17,2.24c-5.21,8.9-10.37,17.82-15.56,26.73C286.67,145,286.58,145.05,286.51,145.09Z"></path>
  <path class="cls-2" d="M53.14,361.5v35.24c0,.52,0,1.05,0,1.57,0,.71-.2,1.12-1,1.12q-5.4,0-10.79,0c-.67,0-1-.33-.93-1,0-.45,0-.9,0-1.35v-52c0-1.68,0-1.71,1.75-1.71,4.27,0,8.54,0,12.81,0a2.63,2.63,0,0,1,2.65,1.56c3.66,6.43,7.41,12.81,11.13,19.2.3.51.66,1,1,1.55a19.74,19.74,0,0,0,2.75-4.41c3.09-5.46,6.11-11,9.12-16.48a2.29,2.29,0,0,1,2.28-1.41c4.49.06,9,0,13.48,0,1.53,0,1.56,0,1.56,1.65q0,26.32,0,52.64c0,1.68,0,1.7-1.73,1.71-3.08,0-6.15,0-9.22,0-1.59,0-1.63-.05-1.63-1.63,0-6.45,0-12.9,0-19.34v-16.2c0-.29-.06-.59-.14-1.45-5.56,9.33-10.86,18.25-16.38,27.52l-16.31-27Z"></path>
  <path class="cls-2" d="M128,463.16l-16-26.84c-.68.66-.42,1.28-.43,1.82q0,16.65,0,33.29c0,.45,0,.9,0,1.34.1,1-.31,1.32-1.28,1.3-2.33-.05-4.65,0-7,0-1.2,0-2.4,0-3.6,0-.75,0-1.12-.22-1.07-1,0-.52,0-1.05,0-1.57V420.86c0-2.8-.23-2.48,2.57-2.49,4,0,7.94.07,11.91,0a2.79,2.79,0,0,1,2.79,1.7c3.68,6.41,7.42,12.78,11.15,19.15a2,2,0,0,0,1,1,19.88,19.88,0,0,0,2.42-3.92c3.19-5.48,6.33-11,9.48-16.5a2.45,2.45,0,0,1,2.47-1.45c4.42.1,8.84,0,13.26,0,1.71,0,1.73,0,1.74,1.75q0,9.78,0,19.57V471.4c0,.52,0,1.05,0,1.57,0,.73-.2,1.1-1,1.09-3.67,0-7.35,0-11,0-.68,0-.92-.33-.9-1s0-1.2,0-1.8c0-11.68,0-23.36-.18-35.14-2.94,4.23-5.44,8.73-8.09,13.13S130.92,458.24,128,463.16Z"></path>
  <path class="cls-2" d="M318.7,380.88a11.48,11.48,0,0,0-4.3-8.1c-1.47-1.18-3.25-1.76-5.21-2.8l2-1.05a10.63,10.63,0,0,0,5.88-8.69,22.65,22.65,0,0,0,0-4.87,11.67,11.67,0,0,0-7.34-10.16,24.23,24.23,0,0,0-9.82-1.76c-7.57-.13-15.15,0-22.72,0-2.06,0-2.09,0-2.09,2.15v51.75c0,2.08,0,2.1,2.14,2.1,7.57,0,15.14.07,22.71,0a30.9,30.9,0,0,0,8.38-1c5-1.49,8.49-4.5,9.93-9.66A21.16,21.16,0,0,0,318.7,380.88Zm-31-25.43c0-.83.24-1.24,1.14-1.21,3.87.17,7.76-.3,11.62.37,2.58.46,3.65,1.6,3.71,4.2,0,.53,0,1.06,0,1.58-.06,3.41-2,5.35-5.46,5.45-1.56,0-3.14,0-4.71,0v0c-1.65,0-3.3,0-4.94,0-.9,0-1.38-.16-1.37-1.22C287.72,361.59,287.71,358.52,287.67,355.45Zm17.66,27.2c-.21,3.37-1.4,5.07-4,5.75a4.51,4.51,0,0,1-1.1.17c-3.75,0-7.5,0-11.24,0-.89,0-1.35-.2-1.34-1.23.07-3.23.07-6.45,0-9.68,0-1.11.4-1.41,1.45-1.37,1.86.07,3.75,0,5.61,0h4.73C303.6,376.35,305.61,378.52,305.33,382.65Z"></path>
  <path class="cls-2" d="M347.53,452.18c6.18-1.75,9.77-5.64,10.88-12.31a24.53,24.53,0,0,0-.85-11.46,12.67,12.67,0,0,0-6.84-7.88,20.14,20.14,0,0,0-8.6-2.12c-7.94-.11-15.88,0-23.83-.06-1.12,0-1.74.26-1.57,1.51a10.46,10.46,0,0,1,0,1.12v50.16a13.69,13.69,0,0,1,0,1.57c-.14,1.13.4,1.38,1.43,1.37,3.15-.06,6.29,0,9.44,0,1.7,0,1.72,0,1.72-1.73,0-4.65,0-9.29,0-13.94,0-1.25-.57-2.84.34-3.65s2.44-.15,3.69-.28a2.11,2.11,0,0,1,2.27,1.35c3.25,5.7,6.58,11.36,9.86,17a2.37,2.37,0,0,0,2.38,1.24c3.9-.06,7.79,0,11.69,0,.41,0,.9.18,1.36-.4Zm-2-13.71c-.9,3.12-2.78,4.57-6.71,4.77-2.76.16-5.54,0-8.31.05-1.06,0-1.23-.51-1.23-1.39,0-1.95,0-3.89,0-5.84h0c0-1.87,0-3.75,0-5.62,0-.84.28-1.2,1.16-1.19,3.14,0,6.31-.21,9.43.07,3.49.31,5.42,1.73,5.81,5.82A8.92,8.92,0,0,1,345.56,438.47Z"></path>
  <path class="cls-2" d="M213.85,443.42a37,37,0,0,0-2.69-13.94,17.78,17.78,0,0,0-9.8-9.92,23.66,23.66,0,0,0-10.68-1.87,45.78,45.78,0,0,0-7.17.34c-7.25,1.27-12.46,5.06-15.29,12-2,4.84-2.32,10-2.7,15.06a52.71,52.71,0,0,0,.31,6,37.33,37.33,0,0,0,1.95,10.27,20.64,20.64,0,0,0,4,6.93c3.7,4.34,8.77,5.92,14.05,6.53a31,31,0,0,0,13.26-1.09,18.45,18.45,0,0,0,12.07-10.83,35.31,35.31,0,0,0,2.67-13.49C213.85,447.42,213.88,445.43,213.85,443.42Zm-14.43,13.14a8.39,8.39,0,0,1-7.59,6.54,17.12,17.12,0,0,1-5.57-.19,8.15,8.15,0,0,1-6.42-5.89,17.22,17.22,0,0,1-1-5.92c0-1-.3-2.1-.29-3.09,0-4.3,0-8.62,1.46-12.78a8.2,8.2,0,0,1,7-5.84,15.44,15.44,0,0,1,6.66.32,7.9,7.9,0,0,1,5.43,5.18c1.32,3.64,1.45,7.43,1.41,11.25A35.87,35.87,0,0,1,199.42,456.56Z"></path>
  <path class="cls-2" d="M306.93,432.81c-2.12-7.48-6.71-12.52-14.44-14.39a27.28,27.28,0,0,0-8.27-.68,24.66,24.66,0,0,0-9,1,18.06,18.06,0,0,0-10.73,7.92,29.57,29.57,0,0,0-4.06,14c-.31,5.49-.43,11,.73,16.47a27,27,0,0,0,4,9.66c3.73,5.46,9.4,7.41,15.52,8.08a33.29,33.29,0,0,0,10-.38c7.4-1.45,12.69-5.29,15.47-12.42a44,44,0,0,0,2.48-14.44A48.08,48.08,0,0,0,306.93,432.81Zm-12.26,20.62a16.23,16.23,0,0,1-2.12,6.3,6.91,6.91,0,0,1-4.32,3,16.19,16.19,0,0,1-7.3.21c-4-.76-6-3.38-6.9-7.06a37.32,37.32,0,0,1-.73-9.78,35.75,35.75,0,0,1,.77-9.79c1.21-4.56,4.39-7,9.15-7a20.81,20.81,0,0,1,4,.19c3.58.66,5.64,2.91,6.7,6.18a21.69,21.69,0,0,1,1,6.58A73.64,73.64,0,0,1,294.67,453.43Z"></path>
  <path class="cls-2" d="M392,371.31V345.88c0-.52,0-1.05,0-1.57,0-.69.35-.9,1-.9,3.52,0,7,0,10.56,0,1,0,1.06.54,1.06,1.29,0,3.15,0,6.3,0,9.45s0,6.45,0,9.68c0,1.61,0,1.64,1.57,1.65h16.41c1.54,0,1.57,0,1.58-1.67,0-5.85,0-11.7,0-17.55,0-.53,0-1.05,0-1.58-.08-1,.36-1.3,1.32-1.28,2.55,0,5.09,0,7.64,0,.83,0,1.65,0,2.48,0,1,0,1.56.34,1.48,1.43,0,.44,0,.9,0,1.35v51.3c0,1.89,0,1.92-1.85,1.93q-4.73,0-9.45,0c-1.57,0-1.6,0-1.61-1.64,0-5.4,0-10.8,0-16.2,0-1,0-1.95,0-2.92s-.37-1.31-1.33-1.3c-2.62,0-5.24,0-7.87,0-2.92,0-5.84,0-8.77,0-1.56,0-1.59,0-1.6,1.63,0,5.85,0,11.7,0,17.55,0,.53,0,1.06,0,1.58.09,1-.32,1.32-1.29,1.3-2-.05-4.05,0-6.07,0-1.69-.06-3.41.31-5.08-.24a23.62,23.62,0,0,1-.16-4.9C392,386.61,392,379,392,371.31Z"></path>
  <path class="cls-2" d="M264.57,364.21c0,5.77,0,11.55,0,17.32.05,9.2-5.26,15.61-13.86,17.59a33.59,33.59,0,0,1-12.17.75,29.61,29.61,0,0,1-9.22-2.45c-4.48-2.16-7.09-5.83-8.48-10.45a18.59,18.59,0,0,1-.72-5.53c0-11.76,0-23.53,0-35.3,0-.6,0-1.2,0-1.8s.27-.93.93-.93h10.57c.73,0,1.12.27,1.09,1,0,.52,0,1.05,0,1.57v33.06c0,.52,0,1.05,0,1.57.29,4.32,2.48,6.61,6.76,7.3a16.69,16.69,0,0,0,5.77,0c4.37-.81,6.38-2.75,6.68-7.57.13-1.94,0-3.9,0-5.85V346c0-.52,0-1.05,0-1.57s.24-1,.91-1h10.79c.7,0,.89.4.88,1s0,1.2,0,1.8Z"></path>
  <path class="cls-2" d="M382.88,349.68c0,1.5,0,3,0,4.5s-.27,1.6-1.56,1.43a114.65,114.65,0,0,0-15.83-1,22.15,22.15,0,0,0-4,.44,3.26,3.26,0,0,0-1.91,5.51,9.64,9.64,0,0,0,3.41,2.5c4.12,1.95,8.29,3.8,12.34,5.88,3.7,1.89,7,4.31,8.73,8.33a13.53,13.53,0,0,1,1.26,5.63,25.32,25.32,0,0,1-.66,6.87,12.83,12.83,0,0,1-6.72,8c-3,1.56-6.2,2-9.43,2.45a47.78,47.78,0,0,1-9.34-.05c-3.48-.19-6.94-.67-10.41-1.06-1.05-.12-1.7-.52-1.65-1.85.11-3.07,0-6.14,0-9.22,0-.83.15-1.17,1.17-1a83.67,83.67,0,0,0,18.7,1.23,12,12,0,0,0,2.87-.4,4,4,0,0,0,3.14-3.17,4.21,4.21,0,0,0-1.78-4.33,32.43,32.43,0,0,0-5.75-3c-4.42-2-8.95-3.81-12.95-6.6s-6.49-6.53-6.4-11.65a25.41,25.41,0,0,1,.4-5.57,12.28,12.28,0,0,1,8.19-9.08,30,30,0,0,1,10.06-1.76,93.66,93.66,0,0,1,12.31.35c1.48.17,2.95.37,4.42.56.93.12,1.46.5,1.38,1.59C382.81,346.68,382.88,348.19,382.88,349.68Z"></path>
  <path class="cls-2" d="M401.45,430.23c-3.39-.32-6.55-.75-9.73-.88a55.92,55.92,0,0,0-11.2.22c-1.32.22-2.52.63-2.83,2.12a3.71,3.71,0,0,0,1.37,4,22.89,22.89,0,0,0,4.65,2.69,83.78,83.78,0,0,1,12.85,6.34c6.17,4,8.47,9.63,7.36,16.91s-5.69,10.65-11.83,12a49.32,49.32,0,0,1-14.83,1.25c-3.39-.28-6.75-.9-10.13-1.36-.95-.12-1.41-.51-1.38-1.59.07-3.07,0-6.15,0-9.22,0-1.29.23-1.45,1.48-1.17C373.43,463,379.7,463,386,462.84a12.8,12.8,0,0,0,2.21-.32c1.61-.34,3.12-1,3.38-2.78s.12-3.65-1.79-4.92c-2.9-1.92-6.14-3.07-9.22-4.58-3.56-1.74-7.17-3.34-10.36-5.76a13.25,13.25,0,0,1-5.07-8.17,19,19,0,0,1,.26-8.36,11.69,11.69,0,0,1,7.6-8.76,29.63,29.63,0,0,1,10-1.87c2-.05,4.05,0,6.07,0,3.66-.08,7.27.53,10.91.78.81.05,1.45.31,1.44,1.33C401.43,423,401.45,426.58,401.45,430.23Z"></path>
  <path class="cls-2" d="M174.29,386.8c3,.51,5.74,1,8.47,1.23,4.26.4,8.52.17,12.78.16a6.65,6.65,0,0,0,1.91-.53,4,4,0,0,0,1.64-6.65,7.43,7.43,0,0,0-2.15-1.58c-3.55-1.77-7.15-3.4-10.76-5.05a32.81,32.81,0,0,1-7.83-4.71c-4.07-3.48-5.51-8-5-13.25a22.09,22.09,0,0,1,.42-2.41c1.12-5.61,4.73-8.82,10.08-10.2a38.63,38.63,0,0,1,9-1.17c3.89-.05,7.77.16,11.64.42,1.47.09,2.93.43,4.39.63.67.09,1.08.29,1.07,1.09q0,5,0,9.9c0,.82-.4,1.08-1.11.95a89.67,89.67,0,0,0-9.11-.86,45.6,45.6,0,0,0-10.95.24,2.74,2.74,0,0,0-2.59,2.15c-.25,1.52-.21,3,1.2,4.07a20.31,20.31,0,0,0,4.4,2.66,116.79,116.79,0,0,1,11.53,5.47c4,2.13,7.27,5.07,8.61,9.58a17.56,17.56,0,0,1-1.3,13.86c-1.71,3.12-4.58,4.88-7.84,5.95a39.17,39.17,0,0,1-8.08,1.49,44.61,44.61,0,0,1-7.76-.12c-3.71-.23-7.39-.72-11.08-1.13-1.07-.11-1.65-.54-1.61-1.83C174.36,393.8,174.29,390.44,174.29,386.8Z"></path>
  <path class="cls-2" d="M142,377.33v-20c0-2,0-2-2.1-2H129.15c-1.76,0-1.78,0-1.8-1.67q0-4.28,0-8.55c0-1.6.05-1.63,1.62-1.64,4.56,0,9.13,0,13.7,0h25.61c1.72,0,1.74,0,1.76,1.68q0,4.15,0,8.31c0,1.85,0,1.87-1.8,1.87-3.67,0-7.34,0-11,0-2.33,0-2.21-.19-2.21,2.16v39.79c0,2.32.25,2.18-2.17,2.19-3.07,0-6.14,0-9.21,0-1.57,0-1.6,0-1.6-1.62C142,391,142,384.15,142,377.33Z"></path>
  <path class="cls-2" d="M243.19,452.32q0,10,0,20c0,1.68,0,1.7-1.71,1.71h-9.22c-1.63,0-1.65,0-1.66-1.77V452q0-10,0-20c0-1.69,0-1.71-1.72-1.72-3.9,0-7.79,0-11.69,0-1.57,0-1.6,0-1.61-1.62,0-3,0-6,0-9,0-.95.3-1.42,1.29-1.33a10.46,10.46,0,0,0,1.12,0h37.76c.45,0,.9,0,1.35,0,.85-.05,1.21.31,1.2,1.18,0,3.15,0,6.3,0,9.44,0,1.17-.53,1.34-1.51,1.33-3.75,0-7.49,0-11.24,0-2.68,0-2.34-.26-2.34,2.45C243.18,439.28,243.19,445.8,243.19,452.32Z"></path>
  <path class="cls-2" d="M109.53,371.4V345.32c0-2.09-.1-1.9,2-1.91,3.07,0,6.14,0,9.21,0,1.05,0,1.52.28,1.44,1.4s0,2.09,0,3.14v49c0,2.72.32,2.47-2.57,2.47s-5.54,0-8.31,0c-1.68,0-1.71,0-1.71-1.72q0-10.56,0-21.13Z"></path>
  <path class="cls-2" d="M325.84,371.15q0-12.7,0-25.4c0-2.72-.26-2.31,2.43-2.33,2.92,0,5.84,0,8.76,0,1.08,0,1.49.36,1.42,1.44s0,2.09,0,3.14v49c0,2.57.34,2.46-2.37,2.46h-8.53c-1.76,0-1.7,0-1.7-1.75q0-12.59,0-25.17Z"></path>
  <path class="cls-2" d="M459.58,371.35q0,12.91,0,25.83c0,2.61.21,2.22-2.31,2.23-3,0-6,0-9,0-1.1,0-1.39-.38-1.38-1.43.05-4.05,0-8.09,0-12.13V346.1c0-.53,0-1.05,0-1.57,0-.72.18-1.12,1-1.12,3.59,0,7.18,0,10.77,0,.7,0,.9.36.89,1s0,1,0,1.57Z"></path>
  <path class="cls-1" d="M92.48,301.17a63.55,63.55,0,0,1,5.21-9.5c.81-1.22,1.43-2.62,2.25-3.79,1.64-2.32,2.16-5.27,4.31-7.27.74-.68.84-1.73,1.27-2.6,1.82-3.73,4.38-7.06,6.11-10.85a27.13,27.13,0,0,1,1.7-2.62,59.25,59.25,0,0,0,5.34-10c.32-.87,1.35-1.12,1.75-2,1.51-3.3,3.83-6.17,5-9.66.37-1.08,1.63-1.64,2.13-2.79,1.22-2.78,2.79-5.39,4.26-8,1.22-2.16,2.57-4.33,4-6.41a36.79,36.79,0,0,0,4.3-7.85,20.31,20.31,0,0,1,3-4.91c.86-1.17,2-1.31,3.38-1.31q32,0,64.08,0h32.15c.52,0,1.05,0,1.57,0,1.41.13,1.61.54.85,1.84a9.71,9.71,0,0,1-1.94,2.93,5.54,5.54,0,0,0-1.88,3.25c0,.29-.06.69-.24.84-1.75,1.38-1.9,3.67-3.11,5.32s-2,3.65-3.17,5.37a31.51,31.51,0,0,0-2.64,4.14c-1,2.15-2.47,4.06-3,6.41a2.76,2.76,0,0,1-.76,1.09,34.92,34.92,0,0,0-4.64,7.35c-1,1.86-1.58,4-2.87,5.56a27.19,27.19,0,0,0-3.86,6.16c-1.92,4.28-5.09,7.83-7.08,12s-4.85,8.14-7.09,12.29c-2.13,3.93-4.89,7.53-6.63,11.6-1.27,3-3,3.42-5.82,3.41q-47.43-.14-94.88-.06Z"></path>
</svg>
