<?xml version="1.0" encoding="UTF-8"?>
<svg xmlns="http://www.w3.org/2000/svg" id="Layer_1" data-name="Layer 1" viewBox="0 0 500 500">
  <path d="M474.92,332.29a14.8,14.8,0,0,0-4.14-9A18,18,0,0,0,457,317.47q-24.57,0-49.15,0c-.49,0-1,0-1.46,0a.51.51,0,0,1-.54-.61,5.39,5.39,0,0,1,.22-1.06,14.89,14.89,0,0,1,2.79-5.4,11.59,11.59,0,0,1,9.16-4.44q24.36,0,48.73,0c.44,0,.89,0,1.34,0,1,0,1-.05,1-1,0-2.58,0-5.16,0-7.75,0-2.32.19-2.14-2.07-2.14H416.89c-2,0-3.92,0-5.9.19a29.62,29.62,0,0,0-10.48,2.92,36.14,36.14,0,0,0-4.37,2.53,32.26,32.26,0,0,0-7.07,6.63,17.85,17.85,0,0,0-2.11,2.91,63.47,63.47,0,0,0-3.06,6.51,32.21,32.21,0,0,0-1.64,9.16c-.12,1.48.38,2.4,2.35,2.4,11.86-.12,23.73,0,35.62-.1,8.64-.09,17.31,0,25.95,0a6.11,6.11,0,0,1,5.36,3,5.54,5.54,0,0,1-.63,6.56,7.41,7.41,0,0,1-5.74,2.35q-33.15,0-66.29,0c-2.26,0-2.07.19-2.07-2.11V297.1c0-.45,0-.89,0-1.34a.66.66,0,0,0-.68-.68l-1.2,0H358.58c-2.16,0-2-.11-2,2.07v41.11c0,2.19.12,2-2.07,2-11.2,0-22.41,0-33.62,0a24.5,24.5,0,0,1-6.48-.72,8.81,8.81,0,0,1-5.24-3.67,13.82,13.82,0,0,1-2-7.66c0-10.52,0-21.05,0-31.6,0-1.8,0-1.8-1.86-1.8-9.82,0-19.64,0-29.46-.05a6.58,6.58,0,0,0-4.13,1.46c-2.33,1.64-4.66,3.26-7.05,4.81-2.23,1.48-4.54,2.82-6.79,4.23-4.44,2.73-8.86,5.45-13.28,8.2a1.21,1.21,0,0,1-1.57-.07c-2.87-2.12-5.73-4.21-8.62-6.32-2.35-1.74-4.72-3.5-7.1-5.24-2.53-1.86-5.12-3.66-7.63-5.57A5.84,5.84,0,0,0,216,295c-18.74.05-37.49,0-56.21.07-9.1,0-18.21-.49-27.3.47a36.76,36.76,0,0,0-9,2.3,32.18,32.18,0,0,0-8.57,5.08,51.56,51.56,0,0,0-5.17,4.84,36.1,36.1,0,0,0-5.8,8.13,21.75,21.75,0,0,0-2.07,6c-.26,1.32-.09,1.46,1.27,1.46,3.43,0,6.88,0,10.31,0a3.54,3.54,0,0,1,1.48.12.48.48,0,0,1-.23.56,33.47,33.47,0,0,0-6.93,7,32.2,32.2,0,0,0-4.16,7.59,1.22,1.22,0,0,1-1.36.92,3.24,3.24,0,0,0-.54,0c-14.59,0-29.2,0-43.79,0a13.83,13.83,0,0,1-4-.64,12.86,12.86,0,0,1-6.44-4.09A11.53,11.53,0,0,1,45,327.12c.05-10.26,0-20.53,0-30.8,0-1.59,0-1.62-1.64-1.62H26.88c-2,0-1.88-.07-1.88,1.9v30.94c0,1.25,0,2.5.14,3.74a17.85,17.85,0,0,0,6.51,12.17,27.14,27.14,0,0,0,10.74,5.47,50.16,50.16,0,0,0,13.34,1.84H206.49a1.21,1.21,0,0,0,.89-.19,12.35,12.35,0,0,1,2-1.36c1.62-1.18,3.22-2.4,4.91-3.46,3-1.9,6.11-3.66,9.14-5.52,4.18-2.54,8.34-5.12,12.52-7.68.94-.59,1.11-.57,2,.09l10,7.12c4.7,3.36,9.42,6.7,14.1,10.1a3,3,0,0,0,2,.64c3.74,0,7.49,0,11.23,0,5.14,0,10.27,0,15.41,0,.45,0,1,.17,1.41-.3l-38.43-29c2.7-2.16,29.93-20.11,33-20.58v1.72c.12,10.38-.18,20.79.17,31.17a22.73,22.73,0,0,0,1.27,6.39,12.53,12.53,0,0,0,3.59,5.38,18.68,18.68,0,0,0,8.29,4.14,53.67,53.67,0,0,0,13.37,1.5q15.85,0,31.72-.14c12.4-.12,24.81,0,37.23,0q37.68,0,75.37-.1a17.68,17.68,0,0,0,9-2.28C472.78,344.81,475.53,339.39,474.92,332.29Zm-249.29-7c-3.83,2.37-7.63,4.72-11.44,7.11-3,1.88-6,3.83-9,5.74a7.64,7.64,0,0,1-4.32,1.36q-34.68-.11-69.35-.05c-2.09,0-2.11-.09-1.72-2.21a10.9,10.9,0,0,1,2.57-4.65,13.85,13.85,0,0,1,4.48-3.52,11.25,11.25,0,0,1,5.15-1.13h37.89c2.09,0,4.21,0,6.3,0,1.34,0,1.36,0,1.36-1.34,0-2.89,0-5.8,0-8.69,0-1.46,0-1.48-1.5-1.48H130.6c-1.9,0-2.13-.4-1.41-2.21a13.11,13.11,0,0,1,4.09-5.17,13.48,13.48,0,0,1,2.19-1.5,10,10,0,0,1,4.86-1.2h49.8c2.4,0,2.12.19,2.17-2.19a24,24,0,0,1,.11-3.64,14.62,14.62,0,0,1,2.71,1.72c2.65,1.85,5.26,3.78,7.89,5.68,3.1,2.23,6.18,4.51,9.28,6.74,2.51,1.79,5,3.55,7.52,5.31,2,1.41,3.9,2.82,5.85,4.23C226.38,324.68,226.38,324.8,225.63,325.27Z"></path>
  <path d="M322.57,251.15c-1,.85-1.73,1.88-2.7,2.74-1.37,1.21-2.68,2.48-4.12,3.62a81.26,81.26,0,0,1-7.06,5,76.94,76.94,0,0,1-10,5.33C296,269,293.33,270,290.58,271c-3.21,1.09-6.5,1.88-9.77,2.74a72.23,72.23,0,0,1-7.74,1.44c-2.24.34-4.48.74-6.74,1-2,.23-4,.27-6,.44-4.41.37-8.83.26-13.24.26-2.94,0-5.87-.36-8.81-.46a120.67,120.67,0,0,1-12.86-1.56,70.81,70.81,0,0,1-7.58-1.57,108.22,108.22,0,0,1-10.49-3.15q-3.2-1.16-6.3-2.55c-2.4-1.09-4.72-2.33-7-3.6-1.43-.8-2.82-1.7-4.17-2.63a64.47,64.47,0,0,1-5.84-4.43,67.37,67.37,0,0,1-7.44-7.48c-1.08-1.3-2.14-2.63-3.08-4a28,28,0,0,1-2.86-4.64c-.28-.65-.78-1.2-1.09-1.84a47.17,47.17,0,0,1-2.59-5.71,45.43,45.43,0,0,1-2.06-6.47c-.57-3.51-1.36-7-1.59-10.56a54.58,54.58,0,0,1,1.16-13.8,64.32,64.32,0,0,1,1.93-6.92c.53-1.72,1.44-3.26,2-4.92.65-1.89,1.85-3.44,2.67-5.2a31.33,31.33,0,0,1,3-4.57c.94-1.33,1.92-2.65,3-3.9.71-.84,1.5-1.62,2.25-2.45a36.92,36.92,0,0,1,4-3.93,62.14,62.14,0,0,1,9.06-6.72c.93-.52,1.74-1.22,2.68-1.75,2.16-1.22,4.45-2.22,6.59-3.48.75-.45,1.61-.5,2.36-.9a53.53,53.53,0,0,1,8.47-3.23,61.42,61.42,0,0,1,8.5-2.32c4.2-.76,8.38-1.7,12.63-2.18,1.81-.2,3.65-.15,5.47-.31a119.29,119.29,0,0,1,14-.48c3.38.12,6.77.23,10.14.64,1.5.18,3,0,4.53.28q4.42.68,8.82,1.55c1.31.26,2.65.23,3.95.61a12.26,12.26,0,0,1,3.31,1.4,3.11,3.11,0,0,1,1.19,4.26,21.85,21.85,0,0,1-2.9,4c-1.46,1.9-3,3.78-4.43,5.68-1.82,2.35-3.72,4.64-5.56,7-1.37,1.75-2.69,3.54-4,5.31s-2.64,3.35-3.93,5-2.49,3.36-3.73,5l-3.56,4.83c-2.26,3.09-4.42,6.24-6.52,9.43-1.61,2.46-3.22,4.9-4.76,7.4-1.85,3-3.62,6-5.42,9-.59,1-1.19,2-1.74,3a7.07,7.07,0,0,0-.64,5.31,3.6,3.6,0,0,0,3.32,3c.62.06,1.23.14,1.86.14q37.69,0,75.38,0a2.45,2.45,0,0,0,2.58-1.61c.76-1.71,1.79-3.28,2.41-5.06a34.47,34.47,0,0,0,2.09-12,63,63,0,0,0-1.3-13.14,47.66,47.66,0,0,0-3.59-10.58,44.31,44.31,0,0,0-4.73-7.71,57.84,57.84,0,0,0-11.52-11.44,52.51,52.51,0,0,0-5.95-4c-1.56-.91-3.05-1.95-4.72-2.72s-3.08-1.58-4.64-2.34c-1-.5-1-.6-.34-1.57.78-1.14,1.57-2.27,2.31-3.43.38-.6.79-.93,1.53-.65.42.16.9.15,1.29.34,2.36,1.15,4.86,2,7.22,3.13,1.87.94,3.71,1.92,5.55,2.92a43.82,43.82,0,0,1,4.39,2.78c1.48,1.06,3,2.07,4.4,3.24s2.74,2.24,4,3.48c.82.8,1.65,1.59,2.46,2.41a62.66,62.66,0,0,1,6.11,7.38,46.74,46.74,0,0,1,3,4.7,27.42,27.42,0,0,1,2.88,5.85c.18.63.59,1.2.82,1.82a52.5,52.5,0,0,1,3.21,12.37,50.28,50.28,0,0,1,.41,9.73A54.1,54.1,0,0,1,336.1,228a71.89,71.89,0,0,1-3.28,8.44,38.3,38.3,0,0,1-2.92,5.23,35.4,35.4,0,0,1-2.18,3,4.44,4.44,0,0,1-2.59,1.52,17.24,17.24,0,0,1-3.05.31q-44.73,0-89.45,0a37.31,37.31,0,0,1-8.62-.86,22.26,22.26,0,0,1-9.33-4.46,13.36,13.36,0,0,1-5-9.13,23.73,23.73,0,0,1,1.59-11,58.59,58.59,0,0,1,5-9.41c.94-1.54,2-3,3.09-4.51,1.79-2.37,3.42-4.87,5.14-7.3s3.26-4.56,4.89-6.83c1.79-2.5,3.56-5,5.37-7.48,1.7-2.33,3.43-4.65,5.14-7,1.42-1.93,2.81-3.89,4.25-5.81,1.19-1.6,2.49-3.13,3.66-4.75,1.72-2.38,3.51-4.7,5.33-7a5.64,5.64,0,0,1,.76-.92,2.64,2.64,0,0,0,.67-1,2,2,0,0,0-1.79-3.06,67.94,67.94,0,0,0-10.28.39c-3.05.38-6.07,1-9.11,1.39s-5.8,1.42-8.71,2-5.27,1.91-8,2.53a7.35,7.35,0,0,0-1.46.67c-2,.95-4,1.81-6,2.82a77.05,77.05,0,0,0-9.83,6.1,66.39,66.39,0,0,0-5.6,4.68c-1,.91-2,1.93-2.9,2.93s-1.91,2.33-2.93,3.44a30.93,30.93,0,0,0-2.44,3.33,43,43,0,0,0-4,7.06c-1,2.26-2.2,4.46-2.63,7-.23,1.29-.81,2.54-1.15,3.83a32.32,32.32,0,0,0-.86,8,41.65,41.65,0,0,0,.53,9.06,60.19,60.19,0,0,0,3.28,11.26c.84,1.93,1.71,3.83,2.72,5.65a50.8,50.8,0,0,0,5.28,7.68c1.56,1.9,3.33,3.58,5.05,5.32a39,39,0,0,0,3.7,3.06,50.55,50.55,0,0,0,8.62,5.57c2.2,1.14,4.47,2.17,6.79,3.11a72.5,72.5,0,0,0,8.86,3,92.14,92.14,0,0,0,12.56,2.51,145.47,145.47,0,0,0,20,1c2.18-.05,4.36-.3,6.54-.4,2.49-.1,5-.38,7.45-.67,2.17-.25,4.29-.79,6.43-1.18a83,83,0,0,0,9.32-2.34,84.42,84.42,0,0,0,9-3.36c2.33-1,4.56-2.24,6.79-3.44a36.84,36.84,0,0,0,3.7-2.37,60.74,60.74,0,0,0,5.47-4.26,1.53,1.53,0,0,1,1.07-.44H322C322.18,250.8,322.36,250.8,322.57,251.15Z"></path>
</svg>
