<?xml version="1.0" encoding="UTF-8"?>
<svg xmlns="http://www.w3.org/2000/svg" id="Layer_1" data-name="Layer 1" viewBox="0 0 500 500">
  <defs>
    <style>.cls-1{fill:#4a4a4a;}.cls-2{fill:#91979a;}.cls-3{fill:#4b4b4b;}.cls-4{fill:#7a8185;}.cls-5{fill:#fdfdfd;}.cls-6{fill:#eff0ed;}.cls-7{fill:#444d52;}.cls-8{fill:#d9dad8;}.cls-9{fill:#06090a;}.cls-10{fill:#747c80;}.cls-11{fill:#a6acad;}.cls-12{fill:#c6c8c7;}.cls-13{fill:#313f45;}.cls-14{fill:#0d1214;}.cls-15{fill:#b6baba;}.cls-16{fill:#1a2225;}.cls-17{fill:#72787c;}.cls-18{fill:#192226;}.cls-19{fill:#364147;}.cls-20{fill:#515c61;}.cls-21{fill:#3b4c53;}.cls-22{fill:#848c90;}.cls-23{fill:#dedfdc;}.cls-24{fill:#737a7e;}.cls-25{fill:#555e63;}.cls-26{fill:#576064;}.cls-27{fill:#bec2c3;}.cls-28{fill:#666e73;}.cls-29{fill:#404b50;}.cls-30{fill:#525b5e;}.cls-31{fill:#636b70;}.cls-32{fill:#6d7579;}.cls-33{fill:#858d91;}.cls-34{fill:#212c31;}.cls-35{fill:#0f1517;}.cls-36{fill:#a4a9ad;}.cls-37{fill:#535d62;}.cls-38{fill:#5c6569;}.cls-39{fill:#61686a;}.cls-40{fill:#b3b8ba;}.cls-41{fill:#949a9d;}.cls-42{fill:#fcfcfc;}.cls-43{fill:#303b40;}.cls-44{fill:#747a7e;}.cls-45{fill:#576065;}.cls-46{fill:#6e767a;}.cls-47{fill:#3b464c;}.cls-48{fill:#7e8487;}.cls-49{fill:#dcdddb;}.cls-50{fill:#80888d;}.cls-51{fill:#454f54;}.cls-52{fill:#b6babc;}.cls-53{fill:#969da1;}.cls-54{fill:#777e83;}.cls-55{fill:#9ca3a5;}.cls-56{fill:#5c6469;}.cls-57{fill:#485155;}.cls-58{fill:#ebeceb;}.cls-59{fill:#525c61;}.cls-60{fill:#c3c6c6;}.cls-61{fill:#0c1012;}.cls-62{fill:#bcbfc1;}.cls-63{fill:#babec0;}.cls-64{fill:#fefefe;}.cls-65{fill:#1d262a;}</style>
  </defs>
  <path class="cls-1" d="M53.72,366.17l7.14-19.12c2.19-5.85,4.4-11.7,6.54-17.57a1.29,1.29,0,0,1,1.51-1l.08,0a51.85,51.85,0,0,0,11,.06c.59-.07,1-.08,1,.76s0,1.25-1,1.23a8.56,8.56,0,0,0-1.89.22c-2.6.51-3.34,1.32-3.29,4,.12,7.59.3,15.17.46,22.75.1,4.7.24,9.4.31,14.09.06,4.35.7,5.09,5,5.44.71.06,1.2.12,1.17,1.05s-.25,1-1,.86a69.84,69.84,0,0,0-16.85,0c-.52.06-1,.16-1-.63,0-.56-.19-1.21.77-1.26a16.06,16.06,0,0,0,2.76-.37c1.85-.45,2.64-1.5,2.64-3.52q0-6.12-.09-12.2c-.08-5-.22-10.08-.28-15.12V334.32l-.5-.05c-1.11,3-2.23,6-3.32,9-4,11-8.32,22-12.16,33.16-.15.43-.18.94-.89,1s-.82-.58-1-1.05c-4.76-13.7-9.95-27.24-15-40.85-.15-.41-.31-.82-.46-1.22H35c0,1.35.05,2.71,0,4.06q-.6,16.29-1.23,32.57v.88c0,4.16.66,4.91,4.83,5.26.44,0,1.08-.21,1.28.41a2.22,2.22,0,0,1,0,1.3c-.17.5-.68.21-1,.18a71.55,71.55,0,0,0-12.76,0c-.5,0-1.13.33-1.09-.62,0-.64-.1-1.18.9-1.29,4.7-.52,5.09-1,5.28-5.72.48-11.87,1-23.75,1.48-35.63.15-3.87-.77-4.82-4.67-5.13-.51,0-1.24.3-1.5-.54-.32-1,.07-1.54,1.16-1.44a50.46,50.46,0,0,0,10.85-.06c1.13-.14,1.49.33,1.84,1.28q6.39,17.49,12.84,34.93C53.3,365.08,53.46,365.49,53.72,366.17Z"></path>
  <path class="cls-1" d="M364.63,355.06a13.21,13.21,0,0,0-6.34-3.07c4.21-2.3,5.62-3.59,6.79-6,3.76-8-1.69-16.76-10.92-17.15-7.24-.3-14.5-.12-21.75-.12-.54,0-1,0-.91.76.05.56-.15,1.2.8,1.2.53,0,1.07.1,1.61.15,2.74.26,3.61,1.18,3.74,3.89v36.1c0,5-.19,5.25-5.11,5.89-.87.11-1.09.42-1.09,1.28,0,1,.75.71,1.24.71h19.25a21.76,21.76,0,0,0,7.5-1.21C368.71,374.06,371.56,361.67,364.63,355.06ZM344,341.26v-9c0-.91.18-1.3,1.2-1.26,2.1.09,4.21,0,6.31.08,4.11.14,6.59,2.16,7.51,6.11a16.31,16.31,0,0,1,0,7.42c-1,4.33-3.49,6.44-7.92,6.68-2.05.12-4.11,0-6.17.09-.87,0-1-.38-.92-1.05v-9.07Zm17,28.38a8.7,8.7,0,0,1-7.42,6.43,30.09,30.09,0,0,1-7.16.07,2.3,2.3,0,0,1-2.32-2.26,2,2,0,0,1,0-.25V364l-.12,0v-9c0-1,.18-1.38,1.27-1.33,2.93.14,5.86-.11,8.8.24a7.61,7.61,0,0,1,7,5.92A16.77,16.77,0,0,1,361,369.64Z"></path>
  <path class="cls-1" d="M246.75,376.16a17.14,17.14,0,0,1-1.76-.09c-2-.25-2.57-.86-2.77-2.78a26.47,26.47,0,0,1-.15-3.08V331c0-3.06,0-3.09-2.89-2.45-2.53.56-5,.94-7.53,1.25-.49.06-1,.15-.93.84s.62.53,1,.62a4.45,4.45,0,0,0,.73,0c2.9.18,3.67.86,3.67,3.78v13.41c-.81-1.05-1.38-1.83-2-2.56a8.11,8.11,0,0,0-6.42-3c-5.26-.14-9,2.33-11.48,6.76-3.32,6-3.48,12.44-1.78,18.95a15.07,15.07,0,0,0,6.24,9.12c5.51,3.68,12,2.32,15.51-3.27.1-.16.17-.36.51-.31a22.76,22.76,0,0,0,.7,4.41c.1.45.16,1,.91.8a41.62,41.62,0,0,1,8.62-1.69c.56-.07.72-.17.72-.83S247.22,376.16,246.75,376.16ZM235,371.28a11.32,11.32,0,0,1-1.55,3.3,6.4,6.4,0,0,1-8.86,1.9,6.29,6.29,0,0,1-1.91-1.9c-1.81-2.63-2.31-5.68-2.64-8.75-.2-1.56-.2-3.13-.25-4.2.06-4.12.18-7.74,1.4-11.2.85-2.39,2.15-4.44,4.78-5.17a6.49,6.49,0,0,1,7.69,3.35c1.65,2.88,2.1,6.06,2.34,9.3A37.65,37.65,0,0,1,235,371.28Z"></path>
  <path class="cls-1" d="M417.57,348.09c.73-.83,1.31-1.55,2-2.19,3.56-3.53,7.79-4.08,12.35-2.5s6.4,5.11,6.65,9.61c.36,6.7.08,13.42.14,20.13,0,3.19.7,3.91,3.94,4.15a3.59,3.59,0,0,1,.73,0c.72.06.66.58.63,1.08s-.41.53-.84.48a66.49,66.49,0,0,0-14.79,0c-.4,0-.71.05-.71-.44s-.19-.93.42-1.1a3.54,3.54,0,0,1,.73-.07c3.08-.28,3.83-1.09,3.83-4.16V355.06a25.08,25.08,0,0,0-.26-3.36c-.65-4.43-3.77-6.47-8.31-5.49-3.5.76-5.58,3.31-5.8,7.32-.33,5.92-.08,11.84-.14,17.77,0,.93,0,1.86.06,2.79.19,2.18.93,2.91,3.1,3.15.34,0,.68.06,1,.07.7,0,.72.48.72,1,0,.7-.4.61-.88.56a65.18,65.18,0,0,0-14.51,0c-.47,0-.89.15-.88-.55,0-.52,0-1,.71-1h.29c3.94-.41,4.34-.86,4.34-4.83V349.27c-.07-3-.55-3.49-3.47-3.69h-1c-.31,0-.81,0-.8-.57s.05-.84.66-.91a41.23,41.23,0,0,0,8.71-2c.76-.26.72.28.77.65C417.15,344.46,417.33,346.15,417.57,348.09Z"></path>
  <path class="cls-1" d="M400.85,367.21c-.73.05-1,.25-1.14,1a13.28,13.28,0,0,1-.66,2.55c-1.55,4.21-4.46,6.34-8.73,6.29s-7-2.16-8.46-6.58a36.7,36.7,0,0,1-1.32-8.52c-.16-1.62.45-1.78,1.84-1.78,3.08.07,6.17,0,9.25,0,3.39,0,6.77,0,10.14,0,.93,0,1.26-.2,1.14-1.17s-.14-1.92-.28-2.92c-.54-4-1.56-7.81-4.69-10.63-6.6-6-17.8-3.29-21.44,5.25a26.27,26.27,0,0,0-.4,19.9c2.3,6.19,7.81,9.42,14.81,8.95,6-.4,10.25-4.1,11.7-10.18C403.15,367.12,403.15,367.15,400.85,367.21Zm-20-11c.44-3.22,1-6.4,3-9.09a6.34,6.34,0,0,1,10.8.53c1.59,2.74,1.9,5.82,2.18,8.9.08.88-.51.77-1,.77H381.92C381.07,357.33,380.68,357.22,380.82,356.21Z"></path>
  <path class="cls-1" d="M113.46,367.2a1.68,1.68,0,0,0-.38-.12,2.2,2.2,0,0,0-2.62,1.68,22.14,22.14,0,0,1-.7,2.23c-1.56,4-4.47,6-8.63,6s-6.8-2-8.29-6.17A32.06,32.06,0,0,1,91.38,361c0-1,.57-.83,1.15-.83h10c2.5,0,5,0,7.53,0,1.2,0,2.8.54,3.52-.26s.07-2.34-.06-3.54a18.28,18.28,0,0,0-3.78-10c-4.59-5.57-17.1-6.09-21.8,3.21-3.14,6.19-3.36,12.72-1.57,19.28,1.72,6.29,5.92,9.91,12.52,10.66,7.69.87,14-3.93,14.85-11.47C113.78,367.73,114,367.39,113.46,367.2Zm-21.8-10.93a22.66,22.66,0,0,1,2.15-7.86c1.37-2.58,3.43-4.15,6.46-4s4.84,2,5.91,4.74a27.7,27.7,0,0,1,1.45,7.15c.1.92-.27,1.06-1.06,1-2.31,0-4.6,0-6.91,0h-7C91.85,357.33,91.58,357.19,91.66,356.27Z"></path>
  <path class="cls-1" d="M207.08,367.33a10.29,10.29,0,0,0-2.48,0c-.63.1-.39.8-.52,1.24-.23.75-.39,1.52-.66,2.25-1.51,4.11-4.38,6.26-8.63,6.24s-6.95-2-8.45-6.38a34.81,34.81,0,0,1-1.4-8.65c-.1-1.65.45-1.86,1.9-1.86,3.09.07,6.17,0,9.26,0,2.45,0,4.87,0,7.35,0,1.25,0,2.91.55,3.65-.29s.07-2.44-.08-3.69c-.48-4-1.61-7.76-4.61-10.68-4.86-4.72-17.15-5.13-21.55,5.28a27,27,0,0,0-1.19,17.25c1.69,7,5.86,10.75,12.91,11.46,7.69.77,13.29-3.26,14.69-11.46C207.31,367.8,207.45,367.33,207.08,367.33Zm-21.86-10.75c.39-3.38.94-6.71,3.06-9.51a6.35,6.35,0,0,1,10.79.68c1.53,2.72,1.85,5.74,2.13,8.77.08.82-.38.83-1,.82h-14C185.72,357.33,185.08,357.52,185.22,356.58Z"></path>
  <path class="cls-1" d="M277.09,367.25c-1,0-1.4.25-1.52,1.25a10.56,10.56,0,0,1-.7,2.53,8.73,8.73,0,0,1-8.78,6c-4.1-.09-6.73-2.13-8.19-6.32a35.06,35.06,0,0,1-1.45-9.54c-.06-.95.39-1,1.13-1h10l10.2.08c.5,0,1.09.17,1.09-.72-.2-4.7-.88-9.2-3.93-13-4.68-5.77-17.39-6.26-22,3.23a25.65,25.65,0,0,0-.52,21.76c2.36,5.71,8.22,8.73,14.65,8.07,6.26-.64,10.13-4.22,11.56-10.69C279,367.25,279,367.25,277.09,367.25Zm-20.35-11.12a21.94,21.94,0,0,1,2.37-8.11,6.52,6.52,0,0,1,6.1-3.63,6.23,6.23,0,0,1,5.75,4.09,22.91,22.91,0,0,1,1.73,8c.06.79-.33.86-1,.86-2.31,0-4.66,0-7,0h-6.76C257,357.33,256.59,357.16,256.74,356.13Z"></path>
  <path class="cls-2" d="M325.64,168.47a69.46,69.46,0,0,1,5.84,16.84A82.77,82.77,0,0,1,325,240.6a80.77,80.77,0,0,1-14,20.07c-12.53,13.28-27.74,21.84-45.69,25-24.57,4.33-47-1.09-66.77-16.44a81.36,81.36,0,0,1-28.08-40.7A80,80,0,0,1,167,210.14c-1.38-18.78,2.89-36.16,13.21-51.92a82,82,0,0,1,46.91-34.68,78.82,78.82,0,0,1,27.14-3.17,83,83,0,0,1,48.27,18.45,7.39,7.39,0,0,1,1.95,1.75.57.57,0,0,1-.39.43c-.61,0-1-.52-1.43-.77a73.85,73.85,0,0,0-13.37-9,81.81,81.81,0,0,0-30.82-9.5,36.24,36.24,0,0,0-5.7-.38A82.56,82.56,0,0,0,178.47,163a79.38,79.38,0,0,0-8.95,23.37A58.6,58.6,0,0,0,168,197.07c0,.82-.44,1.56-.44,2.39a3.29,3.29,0,0,1,1-2.19,14.63,14.63,0,0,0,1.9-2.61c.15-.27.28-.67.75-.5.58.76.26,1.52,0,2.28a7,7,0,0,1-1.74,3,5.88,5.88,0,0,0-1.69,4.66,78.49,78.49,0,0,0,1.44,15.29c.45,3.42,1.72,6.61,2.8,9.86a7,7,0,0,1,.51,1.68,4,4,0,0,0,.38,2,81.86,81.86,0,0,0,14.49,24.31,76.68,76.68,0,0,0,12.81,12c1.71,1.26,2,1.21,3.28-.49.72-.18,1.2.3,1.72.64a72.32,72.32,0,0,0,9,4.77,4.47,4.47,0,0,0,2.37.64c3.25,1.09,6.33,2.6,9.61,3.6a1,1,0,0,1,.79.79,2,2,0,0,1-.71,1.69c-1,1.24-1,1.41.6,1.88a83,83,0,0,0,12.78,2.71A70.17,70.17,0,0,0,250,286a81.12,81.12,0,0,0,35.27-7.77c2.94-1.38,5.73-3,8.52-4.6a103.07,103.07,0,0,0,9.34-6.89,82.06,82.06,0,0,0,23.82-33,84,84,0,0,0,5.17-21.8,64.46,64.46,0,0,0,.46-8.21,83.75,83.75,0,0,0-1.69-16.11c-.56-4.39-2.07-8.53-3.51-12.67-.54-1.53-1.18-3-1.81-4.49a2.52,2.52,0,0,1-.38-1.53A.66.66,0,0,1,325.64,168.47Z"></path>
  <path class="cls-1" d="M455,376.65c3.55,0,6.92.12,10.29,0a6.7,6.7,0,0,0,5.76-4,23.52,23.52,0,0,0,1.53-3.49c.34-1.07.81-1.59,2.08-1.14-.59,3.32-1.19,6.66-1.77,10-.11.63-.47.73-1,.73h-25l20.34-33.48c-4.1.12-7.95-.25-11.78.26a5,5,0,0,0-3.58,2.33,20.34,20.34,0,0,0-2.2,4.46,1.11,1.11,0,0,1-1.32.83l-.16,0c-.79-.2-.27-.79-.21-1.19.4-2.46.87-4.92,1.25-7.38.13-.88.46-1.22,1.41-1.21h23.23c.38,0,.9-.17,1.11.17s-.22.8-.44,1.16q-9.37,15.39-18.79,30.82A10.3,10.3,0,0,0,455,376.65Z"></path>
  <path class="cls-1" d="M288.31,376.37c-.52,1-1,1.8-1.44,2.68-.27.59-.7.6-1.2.57-.72-.05-.5-.62-.5-1V368c0-.61.1-1,.85-1.05s.92.27,1.05.89a14.81,14.81,0,0,0,2.59,6,9,9,0,0,0,12.13,1.53c2.88-2.23,3.84-7.22-.43-9.73-2.49-1.47-5.22-2.43-7.81-3.7-1.14-.56-2.27-1.13-3.39-1.74a8,8,0,0,1-4.5-7.92,9,9,0,0,1,4.92-8.14A13.08,13.08,0,0,1,303,344c.27.13.52.28.78.42l.82.46a23.18,23.18,0,0,0,.93-2.19c.23-.74.71-.85,1.35-.76s.45.66.45,1v9.55c0,.59,0,1.06-.83,1-.66,0-1.12-.08-1.19-.9a11.56,11.56,0,0,0-1.22-4.2A6.79,6.79,0,0,0,297,344.7c-3.15.3-5.41,2-6.16,4.61a4.58,4.58,0,0,0,2.13,5.68,67,67,0,0,0,8.2,3.92c1.11.49,2.23,1,3.3,1.58a9.57,9.57,0,0,1,1.64,15.7c-4.2,3.74-11.3,4.18-16.32,1A6.7,6.7,0,0,1,288.31,376.37Z"></path>
  <path class="cls-1" d="M172.77,347.93v5.29c0,.54-.05,1-.76,1s-1-.06-1.15-.78a15.94,15.94,0,0,0-2-5.18c-3.28-5.19-9.9-5-12.89.35a20.63,20.63,0,0,0-2.32,8.56,35.05,35.05,0,0,0,1,13.67c1.55,4.94,5.33,7.19,9.7,5.89a7.23,7.23,0,0,0,4.45-4,15.92,15.92,0,0,0,1.41-4.6c.29-1.86,1.72-.81,2.59-.9,1.16-.12.55.86.49,1.37a18.82,18.82,0,0,1-.56,2.42c-3.23,11-15.37,10.12-20.55,5a17.6,17.6,0,0,1-5-10.53c-.8-5.85-.35-11.56,3-16.66s8.09-7,14-6.18a7.09,7.09,0,0,1,4,1.93c1,1,1.47.69,1.9-.44.23-.59.64-1.11.88-1.69a1,1,0,0,1,1.23-.7l0,0c.68.13.42.69.43,1.07C172.79,344.5,172.77,346.22,172.77,347.93Z"></path>
  <path class="cls-1" d="M128.88,348.59a11.49,11.49,0,0,1,3.59-4.6,8.15,8.15,0,0,1,7.94-1.06,5.75,5.75,0,0,1,3.37,7.23,3.14,3.14,0,0,1-4,1.79c-1.54-.43-2.23-1.48-1.81-3.27.66-2.85-1.58-3.53-3.49-2.86a6,6,0,0,0-3.29,3.19,17.52,17.52,0,0,0-1.64,8v16.46c0,2.83.79,3.6,3.65,3.81a7.7,7.7,0,0,1,1.17.1c.61.14.47.66.45,1.08s-.31.52-.71.47a69.33,69.33,0,0,0-15.24,0c-.48.05-.77,0-.79-.55s-.06-.93.55-1c.43-.06.88-.05,1.31-.09,2.68-.24,3.52-1.14,3.53-3.84V348.77c0-2.84-.59-3.33-3.35-3.48h-1c-.52,0-.94,0-.93-.73s.45-.72,1-.77a46,46,0,0,0,7-1.12c.29-.06.57-.13.85-.21.89-.34,1.31-.17,1.37.9A38.76,38.76,0,0,0,128.88,348.59Z"></path>
  <path class="cls-3" d="M322.35,356.69c2.39,0,4.79.05,7.19,0,.94,0,1.12.3,1.12,1.16,0,2.84,0,2.84-2.83,2.84H315.21c-1,0-1.45-.17-1.42-1.34.08-2.66,0-2.66,2.69-2.66Z"></path>
  <path class="cls-4" d="M304.12,140.9l.34-.33a80.89,80.89,0,0,1,20.92,27.22c.1.22.17.45.26.68l-.35.36c-.88-.1-.79-1.56-1.89-1.35-.95-.62-1.11-1.74-1.66-2.61a81.66,81.66,0,0,0-11.15-16.32,2.68,2.68,0,0,1-.74-1.24c-.57-1.3-1.82-2-2.69-3C306.24,143.08,304.74,142.38,304.12,140.9Z"></path>
  <path class="cls-5" d="M329.21,198.94a58.27,58.27,0,0,0-1.74-12.19l0-.15h0a81.14,81.14,0,0,0-7.6-20.4h0l-.06-.1s0,0,0-.08a84.56,84.56,0,0,0-16.55-21.17.46.46,0,0,0-.07-.07h0a86.46,86.46,0,0,0-16-11.07,1.41,1.41,0,0,0-.24-.13c-.16-.1-.33-.18-.49-.27-1.72-.92-3.5-1.74-5.3-2.51A74.82,74.82,0,0,0,261,125.23a81.69,81.69,0,0,0-10.94-.7,0,0,0,0,0,0,0,5.61,5.61,0,0,0-.58,0h0c-1.76,0-3.53.11-5.29.24l-.79.07h-.07c-2.49.22-4.94.53-7.39,1q-.69.12-1.38.27c-.87.16-1.73.35-2.6.55a.57.57,0,0,1-.18,0c-.58.13-1.15.26-1.72.41l-.73.18a96.14,96.14,0,0,0-11.15,4c-3.35,1.45-6.46,3.38-9.77,4.94a7.51,7.51,0,0,1-.92.77l-.06,0a8.53,8.53,0,0,1-1.15.72,98.28,98.28,0,0,0-10.38,8.13.3.3,0,0,0-.08.08l-1.4,1.29c-.68.67-1.35,1.35-2,2.05-.22.22-.44.45-.65.68a78.9,78.9,0,0,0-17.52,30.53,66.19,66.19,0,0,0-2.64,12.2.09.09,0,0,0,0,.05c-.07.51-.12,1-.17,1.52a1.33,1.33,0,0,0,0,.28v.07c0,.36-.07.71-.1,1.07l-.09.56v0a42.28,42.28,0,0,0-.51,5.5,72.41,72.41,0,0,0,.35,9.19c.35,2.83.34,5.72,1.11,8.5,0,0,0,0,0,0a1.07,1.07,0,0,1,.07.19,7.69,7.69,0,0,1,.41,1.34,79.63,79.63,0,0,0,7,19.18l.13.23a.67.67,0,0,0,.06.12c1.73,3.22,3.77,6.23,5.74,9.3a0,0,0,0,1,0,0l.11.14c2.17,2.75,4.32,5.53,6.75,8.06a80.12,80.12,0,0,0,20.42,15.5l.06,0h0l0,0,.06,0a8.58,8.58,0,0,0,3.18,1.29h0a.53.53,0,0,0,.12,0l10.33,4.08,0,0,.17.17a2.38,2.38,0,0,0,1.21.59c2.42.6,4.83,1.2,7.28,1.71a70.94,70.94,0,0,0,14.46,1.18h.53l4.42,0a57,57,0,0,0,9.75-1.12,82.37,82.37,0,0,0,23-8,3.25,3.25,0,0,0,.61-.33,1.37,1.37,0,0,0,.2-.13l.77-.5h0c1-.65,2.06-1.25,3.08-1.88q3-1.89,5.82-4l.12-.09a78.75,78.75,0,0,0,10.66-9.81c.14-.14.27-.29.4-.44a79.38,79.38,0,0,0,13.29-20.62,80.69,80.69,0,0,0,6.36-24.07l0-.27v0A69.76,69.76,0,0,0,329.21,198.94ZM246,130.5c.75,0,1,0,.9.92q-2.57,17.55-5.06,35.14c-1.38,9.59-2.78,19.17-4.12,28.76a2.75,2.75,0,0,1-1.16,1.91l-50.25,39.51c-1,.77-1.36.81-2-.39-5-10.36-7.58-21.31-7.59-29.29.11-37.72,23.7-67.21,57.08-74.89A63.52,63.52,0,0,1,246,130.5ZM223.19,271.9c-.45-.92-1.51-1-2.35-1.39A70.78,70.78,0,0,1,200,256.7a76,76,0,0,1-10.87-12.88,2.09,2.09,0,0,1-.49-1,1,1,0,0,1,.21-.18l0,0,10-4h0c1,.5,1.7-.19,2.48-.5q23.38-9.33,46.73-18.8a5.17,5.17,0,0,1,4.22,0c12.58,5.18,25.25,10.16,37.86,15.26.66.26,1.31.78,2.07.63a2,2,0,0,1,.23.18,21.39,21.39,0,0,0,4.54,2c4.87,1.88,9.64,4.08,14.55,5.81a3.35,3.35,0,0,0-.56.74,73.2,73.2,0,0,1-36.75,28.63,74.71,74.71,0,0,1-19.51,3.92,80.88,80.88,0,0,1-12.74-.29,68.83,68.83,0,0,1-16.92-4,2.47,2.47,0,0,0-1.84-.25Zm84.66-113.3v.08a4.52,4.52,0,0,0,1,1.77A66.18,66.18,0,0,1,316,172.26a72.36,72.36,0,0,1,6.69,24.56,79.34,79.34,0,0,1,.1,13.17,72.48,72.48,0,0,1-6.84,25.36c-.75,1.59-1,1.64-2.34.59-.2-.15-.38-.31-.57-.46q-13.18-10.35-26.37-20.68c-7.31-5.74-14.61-11.51-22-17.17a4.33,4.33,0,0,1-1.88-3c-2.63-18.72-5.37-37.42-7.91-56.14-.24-1.75-.41-3.51-.82-5.22-.08-.34,0-1.17-.73-.81,0,0,0,0,0-.05v-.11a.78.78,0,0,0,.26-.57l0-.2a2.26,2.26,0,0,1,1.67-.51c1.08,0,2.14.15,3.21.27a73,73,0,0,1,35.21,13.94,68.56,68.56,0,0,1,12.83,12.18C306.8,157.89,307.05,158.63,307.85,158.6Z"></path>
  <path class="cls-6" d="M229.13,127.71c-2.82,1.07-5.72,1.87-8.53,3a91.47,91.47,0,0,0-10.74,5.3,2.66,2.66,0,0,1-1.31.41c-1.93,1.39-4,2.57-5.88,4a95.93,95.93,0,0,0-8,6.79,76.79,76.79,0,0,0-14.95,20.11,75.35,75.35,0,0,0-8,24.94c-.08.58-.3,1.13-.43,1.69l-.17.15c-.73,2.27-3.07,3.51-3.65,5.88,1-40.59,35.86-80.27,85.13-79,.39.63-.1,1-.43,1.39-.61.71-1.32,1.32-1.93,2s-1.22.52-1.9.52a76.05,76.05,0,0,0-18.2,2.39A1.71,1.71,0,0,0,229.13,127.71Z"></path>
  <path class="cls-7" d="M255,282.38a79.26,79.26,0,0,0,31.44-8.71c.38-.19.71-.55,1.2-.45a33.93,33.93,0,0,0,4.51.13,2.52,2.52,0,0,1,1.95.43,70.36,70.36,0,0,1-15.1,7.55,81.63,81.63,0,0,1-22.36,4.89c-2.2.16-4.39.19-6.59.21-.7-1-.46-2.06-.36-3.12.07-.64.49-.86,1.13-.86A34.31,34.31,0,0,0,255,282.38Z"></path>
  <path class="cls-8" d="M229.13,127.71c1-1,2.37-.92,3.6-1.2a62.82,62.82,0,0,1,15.93-1.8,1.21,1.21,0,0,0,1.15-.46c.83-1.19,2.27-1.86,2.82-3.3a61.79,61.79,0,0,1,11.9,1.17,82.19,82.19,0,0,1,22.82,7.6c.78.4,1.54.83,2.31,1.24a4,4,0,0,1-3.2,2.89,77.88,77.88,0,0,0-21.61-7.5,67.39,67.39,0,0,0-8.83-1.09c-2.14-.12-4.27-.2-6.42-.22A81.26,81.26,0,0,0,229.13,127.71Z"></path>
  <path class="cls-9" d="M327.06,234.09a80.4,80.4,0,0,1-11.34,20,100.62,100.62,0,0,1-9.91,10.73c-.8.78-1.68,1.46-2.52,2.19a8.1,8.1,0,0,1-4.87.15c-.63-1,.39-1.21.79-1.52,1.83-1.4,3.47-3,5.22-4.48a70.21,70.21,0,0,0,8.49-9.09,79.41,79.41,0,0,0,10.7-17.29c.24-.54.44-1.11,1.08-1.31C325.54,233.49,326.51,233,327.06,234.09Z"></path>
  <path class="cls-10" d="M255,282.38a9.34,9.34,0,0,1-3.72.24c-1,0-1.4.32-1.31,1.33.07.82,0,1.65,0,2.48a78.07,78.07,0,0,1-24.24-3.54c-1-.3-1.08-.82-.47-1.6s1.58-1.09,1.48-2.22a82.71,82.71,0,0,0,26.78,3.28C254,282.33,254.52,282.37,255,282.38Z"></path>
  <path class="cls-11" d="M319.33,165.89c-1.92-3-3.72-6.15-5.88-9a86,86,0,0,0-9.72-10.9,12.62,12.62,0,0,1-.89-1c.64-.74,1.28-.53,1.91,0,.18.16.35.35.52.52s.57.46.89.14a.53.53,0,0,0,.07-.74.56.56,0,0,0-.2-.14c-1.45-.93-1.46-3-3-3.86a.6.6,0,0,1-.16-.84s0,0,.06-.07l1.19.87a21.51,21.51,0,0,1,3.25,3.22c.7,1.14,1.9,1.85,2.65,3,1.44,2.06,3.16,3.89,4.66,5.91A97.74,97.74,0,0,1,322,164.7C321.19,166.39,320.5,166.7,319.33,165.89Z"></path>
  <path class="cls-12" d="M303,140v.14c1.57,1.17,1.9,3.32,3.53,4.45.53.36.68.78.13,1.29s-.92.86-1.49,0-1.17-1.48-2.28-.92c-3-2.2-5.72-4.68-8.83-6.7a80.82,80.82,0,0,0-7.55-4.46,10.53,10.53,0,0,0,3.2-2.89A74.76,74.76,0,0,1,303,140Z"></path>
  <path class="cls-13" d="M172.67,219.68c.91,3.12,1.58,6.3,2.64,9.38A108.11,108.11,0,0,0,180,240.22c-.63,1.57-1.92,1-3,.92a1.49,1.49,0,0,1-.82-.78,81.35,81.35,0,0,1-3.93-8.74.63.63,0,0,1,0-.43,91.25,91.25,0,0,1-3.38-10.8,4.33,4.33,0,0,1,0-.72A4,4,0,0,1,172.67,219.68Z"></path>
  <path class="cls-14" d="M172.67,219.68h-3.81a65.91,65.91,0,0,1-1.48-15.84,7,7,0,0,1,1.79-3.75,6.77,6.77,0,0,0,1.7-3.62,7.56,7.56,0,0,0,.28-2.36h0c.77.22.32.78.33,1.22a87.3,87.3,0,0,0,.52,20.43A21,21,0,0,0,172.67,219.68Z"></path>
  <path class="cls-15" d="M172.28,231.19a69.41,69.41,0,0,0,4.54,9.64,4.49,4.49,0,0,1,1,1.21,79,79,0,0,0,5.86,8.33,87.86,87.86,0,0,0,17.85,16.7c.71.5,1.55.86,1.94,1.73-.39,1.9-1.48,2.28-3.14,1a89.67,89.67,0,0,1-11.46-10.4,83.55,83.55,0,0,1-14-20.81c-.94-2-1.74-4-2.54-6.08C172.21,232.13,171.75,231.66,172.28,231.19Z"></path>
  <path class="cls-16" d="M327.06,234.09c-.82-.57-1.74-.18-2.61-.27-.39-.78.1-1.43.36-2.08A82.31,82.31,0,0,0,330.16,211a2.81,2.81,0,0,0,0-.58c.16-1.45.29-2.89.42-4.33a9.08,9.08,0,0,0,.2-1.14c.19-1.52.66-1.77,2.12-1.15a84.26,84.26,0,0,1-3.24,22.92A44.9,44.9,0,0,1,327.06,234.09Z"></path>
  <path class="cls-17" d="M203.51,268.8a85.62,85.62,0,0,1-15.44-12.91,47.15,47.15,0,0,1-4.58-5.31c.67-.6,1.65-.4,2.38-.87,2.27,2.6,4.31,5.4,6.7,7.92a81.07,81.07,0,0,0,19.26,15,34.58,34.58,0,0,0,4.6,2.39c-.43.44-.8.06-1.19-.09A78.3,78.3,0,0,1,203.51,268.8Z"></path>
  <path class="cls-18" d="M298.25,266.76c1.65.57,3.37.08,5,.29a90.46,90.46,0,0,1-9.18,6.73h-5.8c-.38,0-.87.11-.62-.57l.51-.37a70,70,0,0,0,9.35-5.84C297.74,266.86,297.9,266.55,298.25,266.76Z"></path>
  <path class="cls-19" d="M332.9,203.83c-1.23-.21-2,.13-1.73,1.56a.84.84,0,0,1-.26.79,1.93,1.93,0,0,1-.48-1.62c0-5.11.17-10.23-.84-15.29a3.16,3.16,0,0,1,0-1.3c.26-.82.74-1.11,1.52-.61A68.55,68.55,0,0,1,332.9,203.83Z"></path>
  <path class="cls-20" d="M331.15,187.36c-.47,0-1-.18-1.15.58-.81-.12-.64-.85-.81-1.35s-.17-1-.34-1.56a79.08,79.08,0,0,0-5.1-16c-.22-.51-.65-1-.22-1.63s.84-.21,1.11.23a13.25,13.25,0,0,1,.65,1.24,102.13,102.13,0,0,1,4,10.63C330,182.06,331.05,184.61,331.15,187.36Z"></path>
  <path class="cls-21" d="M170.87,196.46a4.69,4.69,0,0,1-1.15,3.54,11.27,11.27,0,0,0-2.34,3.83,6,6,0,0,1,1.86-4.7A7.81,7.81,0,0,0,170.87,196.46Z"></path>
  <path class="cls-22" d="M323.53,167.36a89.06,89.06,0,0,1,5.38,16c.11.52.15,1.06.23,1.59,0,1.83-.69,2.3-2,1.49A103.43,103.43,0,0,0,323,173.56c-1.09-2.61-2.38-5.12-3.61-7.67,1.44.81,1.82-.76,2.7-1.21A15.9,15.9,0,0,0,323.53,167.36Z"></path>
  <path class="cls-2" d="M310,147.07c-1-.89-2.18-1.6-2.65-3C308.32,145.05,309.57,145.7,310,147.07Z"></path>
  <path class="cls-23" d="M317.64,242.6a66.21,66.21,0,0,1-7.66,11,80.26,80.26,0,0,1-16.75,15,77.1,77.1,0,0,1-25.55,11,90.35,90.35,0,0,1-12.56,1.85,81.84,81.84,0,0,1-20.37-1.3c-.13,0-.24-.14-.37-.22-2.1-.87-2.11-.88-.38-2.62a6.64,6.64,0,0,1,1.42-1.43c2.21,0,4.34.63,6.53.82a82.73,82.73,0,0,0,13.17.27A73.87,73.87,0,0,0,297,260.35,72.85,72.85,0,0,0,311.55,244a3.69,3.69,0,0,1,3.62-2.09c-2.46-1.53-5-2.87-7.53-4.37-1.62-1-3.43-1.65-4.8-3,0-1.45.81-.92,1.42-.56,1.87,1.08,3.71,2.19,5.58,3.27s3.55,2.18,5.62,3.19a3.24,3.24,0,0,0-1.57-1.87c-7.47-5.47-15-10.87-22.46-16.33-8.71-6.34-17.47-12.62-26.14-19a14.44,14.44,0,0,1-1.54-1.12c-1.92-1.94-4-1.86-6.3-.73-.79.39-1.63.67-2.44,1-.4.17-.93.36-1.16-.15s.25-.71.56-.92a41.8,41.8,0,0,1,4.33-2.77,1.58,1.58,0,0,0,.51-.52,4.46,4.46,0,0,1,1.7-1.18,1,1,0,0,1,.64,0c3.75,2.59,7.27,5.48,10.89,8.23q10.93,8.31,21.8,16.7c6.4,4.92,12.84,9.78,19.2,14.76.27.21.58.37.83.6.68.65,1,.36,1.4-.36a76.9,76.9,0,0,0,3.56-8,72,72,0,0,0,4.1-18.56,52.58,52.58,0,0,0,.38-7.31,7.27,7.27,0,0,1,0-1.32c0-.38,0-.86.47-1s.59.26.82.5a8.65,8.65,0,0,1,2.57,5,23.64,23.64,0,0,1-.15,2.91,81.12,81.12,0,0,1-2.34,14.51c-.82,3.25-2,6.39-3.08,9.55a5.11,5.11,0,0,1-.86,1.77c-.28.85-.75,1.62-1.09,2.45C319.29,239.07,318.14,240.68,317.64,242.6Z"></path>
  <path class="cls-24" d="M259.64,127a18.75,18.75,0,0,0-5.81-.8h-.14c-1.44-.14-2.91,0-4.35-.25l-.22,0h-1.48c-.65.08-1.32.48-2.08.1l-.06,0a3.72,3.72,0,0,0-2.06.2h0c-.41.78-.88.46-1.35.14l-.09-.06a1.45,1.45,0,0,0-1.2.18c-1.72,2.06-3.39,4.09-6.32,4.62a68.34,68.34,0,0,0-17.35,6h0l-.44.22-.2.1a74.74,74.74,0,0,0-32.38,32.07c-.1.19-.2.36-.29.55h0a2.69,2.69,0,0,0-.16.29s0,0,0,0a61.77,61.77,0,0,0-5.23,13.81c-.78,3.62-1.85,6.9-5,9.15-.18.14-.28.37-.48.5l0,0a39.73,39.73,0,0,0-.63,6.8,65.52,65.52,0,0,0,.72,14.06,11.46,11.46,0,0,1,2.78-2.65l.08-.06a2.9,2.9,0,0,1,.29-.19c0-.4,0-.81,0-1.21a59.23,59.23,0,0,0,1.41,9.53,66.67,66.67,0,0,0,6.87,18.3.85.85,0,0,0,.26.12h0a.79.79,0,0,0,.24,0c.6.07,1-.46,1.4-.78,1.72-1.32,3.45-2.63,5.16-4l.2-.15c3.84-3,7.66-5.93,11.5-8.88q17.15-13.11,34.19-26.34c1-.76,1.85-1,2.84-.28l0,0,.25.13c.86.43,1.7.87,2.53,1.35.51.33,1,.75,1.7.34h0v0c.07-.73-.54-.95-1-1.25-.69-.46-1.4-.86-2.06-1.34a2.4,2.4,0,0,1-.26-.18l0,0a3.22,3.22,0,0,1-1.8-3.86c.42-2.51.65-5,1-7.57l3-22.86q2.16-15.87,4.16-31.73a2.74,2.74,0,0,1,2.1-2.54h.24a1,1,0,0,1,.24,0,1.86,1.86,0,0,1,.33,0,.59.59,0,0,1,.21,0h0c.27,0,.38.33.59.46l.05,0,0,0c.57.26.59,1.18,1.34,1.19h.14c.45-.41.9-.76,1.55-.34a1.92,1.92,0,0,0,2.4-.34c.82-.62,1.53-1.36,2.4-1.92a.73.73,0,0,0,.3-.35A.37.37,0,0,0,259.64,127ZM184.31,236.35c-5-10.36-7.58-21.31-7.59-29.29.11-37.72,23.7-67.21,57.08-74.89A63.52,63.52,0,0,1,246,130.5c.75,0,1,0,.9.92q-2.57,17.55-5.06,35.14c-1.38,9.59-2.78,19.17-4.12,28.76a2.75,2.75,0,0,1-1.16,1.91l-50.25,39.51C185.31,237.51,185,237.55,184.31,236.35Z"></path>
  <path class="cls-25" d="M216.47,137.67a103.44,103.44,0,0,0-11.65,7.54,75.23,75.23,0,0,0-15,15.55c-2,2.79-3.64,5.76-5.45,8.65A43.87,43.87,0,0,1,179,175.1c-.65.63-.78.59-1.39.19a61.3,61.3,0,0,1,6.59-13.15A77.93,77.93,0,0,1,219.59,132c.8-.35,1.63-.6,2.45-.89.49.77-.16,1.17-.57,1.59C219.83,134.38,218.18,136.06,216.47,137.67Z"></path>
  <path class="cls-26" d="M259.72,127.36a22.63,22.63,0,0,0-5.89-.88.34.34,0,0,1-.07-.47s0-.05.07-.06a75,75,0,0,1,29.51,7.33,77.36,77.36,0,0,1,28,22.31c.21.27.37.57.55.85-.81,1-1.92.71-3,.7a2.21,2.21,0,0,1-1.43-.94,79.94,79.94,0,0,0-15.61-15.08,74.78,74.78,0,0,0-17.38-9.36A76.77,76.77,0,0,0,261.74,128,3.58,3.58,0,0,1,259.72,127.36Z"></path>
  <path class="cls-27" d="M235.3,276.17c-.43,1.31-1.8,1.87-2.5,3l1.92.59s0,.1-.06.11l-.28.09a76.35,76.35,0,0,1-32.47-15,39.44,39.44,0,0,1-5.46-4.86c-.88-1-1.86-1.81-2.72-2.78l-1.39-1.42a4.54,4.54,0,0,0-.88-1.11c-.6-.7-.41-1.09.49-1.18a7.86,7.86,0,0,1,2.06,1.8,84.24,84.24,0,0,0,8.05,7.64c.94.77,1.85,1.59,2.84,2.3a82.51,82.51,0,0,0,13,8,1.35,1.35,0,0,0,1.82-.23,4,4,0,0,1,2.05-1.34,7.35,7.35,0,0,1,1.72.43,75,75,0,0,0,10.48,3.2C234.51,275.54,235.09,275.53,235.3,276.17Z"></path>
  <path class="cls-28" d="M216.47,137.67c.67-1.65,2.29-2.47,3.33-3.79.73-.94,2-1.43,2.24-2.77a67.8,67.8,0,0,1,15.62-4.31c1.06-.18,2.13-.25,3.2-.36a1.7,1.7,0,0,1-.59,1.41,11.24,11.24,0,0,1-6.61,3.81,64,64,0,0,0-16.23,5.67C217.12,137.47,216.79,137.55,216.47,137.67Z"></path>
  <path class="cls-29" d="M308.46,156.78a9.42,9.42,0,0,0,3.38-.34,70,70,0,0,1,11.71,21.79c-1.16.32-2.39-.09-3.53.41-.72-.13-.77-.78-.95-1.3-.34-.94-.71-1.87-1.08-2.8a78.19,78.19,0,0,0-9-16.44A1.52,1.52,0,0,1,308.46,156.78Z"></path>
  <path class="cls-30" d="M298.25,266.76c-2.66,1.83-5.3,3.71-8.11,5.31a3.5,3.5,0,0,1-2,.78,97.29,97.29,0,0,0,13.18-9.26C316,250.85,324.91,235,328,215.82c.21-1.35.39-2.71.59-4.06.57-.53,1.08-1.17,2-1.2A72.31,72.31,0,0,1,328,223.74c-1,3.45-2.33,6.73-3.56,10.08a82.33,82.33,0,0,1-18.6,26.54A96.09,96.09,0,0,1,298.25,266.76Z"></path>
  <path class="cls-31" d="M177.63,175.29c.78.26,1.11-.39,1.53-.79,1.76-1.68,3.5-3.39,5.24-5.09a117.77,117.77,0,0,0-4.87,12.06,61.78,61.78,0,0,0-1.86,7.35,2.71,2.71,0,0,1-1.07,1.8c-1.32,1-2.06,2.62-3.72,3.18A64.7,64.7,0,0,1,177.63,175.29Z"></path>
  <path class="cls-32" d="M330.54,210.56c-.61.46-1.12,1.11-2,1.2a109,109,0,0,0,.25-11.43,69.7,69.7,0,0,0-1.73-13.27,1.88,1.88,0,0,1,0-.58c1.44.54,1.75-.46,2-1.49.58.89.26,2,.86,2.95a108,108,0,0,1,.91,18.24C330.79,207.64,330.67,209.1,330.54,210.56Z"></path>
  <path class="cls-33" d="M173,214.67a5,5,0,0,1,1.73-2.49c.36-.37.7-.46,1.11-.11a1.65,1.65,0,0,1,.47,1.31,59.85,59.85,0,0,0,3.6,18.32,3.79,3.79,0,0,1,.36,1.85,1.43,1.43,0,0,1-1.67,1.11h0a79.23,79.23,0,0,1-5.6-19.4A3.85,3.85,0,0,1,173,214.67Z"></path>
  <path class="cls-34" d="M320,178.54c1.1-1.08,2.34-.59,3.56-.31a55.12,55.12,0,0,1,3.2,12.65,10.07,10.07,0,0,1-3.79,0c-.52-.23-.63-.69-.73-1.18-.71-3.32-1.36-6.65-2.37-9.9A1.16,1.16,0,0,1,320,178.54Z"></path>
  <path class="cls-35" d="M323,190.58c1.28.12,2.59-.28,3.83.3a68.68,68.68,0,0,1,1,17c0,.78-.11,1.56-.17,2.34-.75-.23-.29-.78-.33-1.2v-3.14a11.28,11.28,0,0,0-2.47-6.61c-1.88-2.29-1.86-5.18-2.22-7.93A1,1,0,0,1,323,190.58Z"></path>
  <path class="cls-36" d="M178.56,234.66l1.44-.87c.67.17.86.75,1.06,1.29a52.75,52.75,0,0,0,2.34,5,19.3,19.3,0,0,0,.91,1.82,4,4,0,0,1,.2.35,75,75,0,0,0,6.9,10c.34.43.87.84.61,1.54-.66.07-.94.3-.37.89.32.34.74.64.69,1.21a70.2,70.2,0,0,1-10.59-14.68A52.1,52.1,0,0,1,178.56,234.66Z"></path>
  <path class="cls-37" d="M185.87,249.71c-.45,1.23-1.54.71-2.38.87a56.25,56.25,0,0,1-6.67-9.75c1.09-.09,2.3.41,3.21-.61Z"></path>
  <path class="cls-38" d="M171.52,195.35c-.2-.39.09-.9-.33-1.22a77.12,77.12,0,0,1,8.42-27.06,74,74,0,0,1,15.09-20,.2.2,0,0,1,.1.22c0,.09,0,.13-.06.13a78.73,78.73,0,0,0-21.9,40.33C172.32,190.24,172,192.8,171.52,195.35Z"></path>
  <path class="cls-39" d="M327.28,209.05c.17.38,0,.86.33,1.2a65.36,65.36,0,0,1-2.71,15.05,41.06,41.06,0,0,1-2.84,7.79c0-1.36.75-2.51,1.15-3.75a76.15,76.15,0,0,0,3.85-19.47C327.08,209.58,327,209.27,327.28,209.05Z"></path>
  <path class="cls-40" d="M194.74,147.39V147A56.73,56.73,0,0,1,205,138.6a19.89,19.89,0,0,1,3.62-2.18c-1,1.31-2.49,1.81-3.73,2.73a78.42,78.42,0,0,0-8.79,7.28A14,14,0,0,1,194.74,147.39Z"></path>
  <path class="cls-41" d="M317.64,242.6c-.23-.07-.33-.26-.22-.44.95-1.57,1.5-3.36,2.62-4.83.06-.14.14-.15.22,0A55,55,0,0,1,317.64,242.6Z"></path>
  <path class="cls-28" d="M253.83,126v.53c-1.56-.26-3.18-.08-4.71-.57A28.49,28.49,0,0,1,253.83,126Z"></path>
  <path class="cls-36" d="M193.73,257.33a7.71,7.71,0,0,1,2.72,2.78A9.48,9.48,0,0,1,193.73,257.33Z"></path>
  <path class="cls-28" d="M243.5,126.18c.47.41.17.7-.22.82-.63.19-1.12,0-1.22-.74Z"></path>
  <path class="cls-39" d="M320.26,237.31H320a9.62,9.62,0,0,1,1.16-2.47C321.25,235.82,320.61,236.51,320.26,237.31Z"></path>
  <path class="cls-28" d="M247.64,125.91a4.25,4.25,0,0,1-1.73.56c-.41.11-.49-.15-.33-.5Z"></path>
  <path class="cls-42" d="M240.35,197.88l4.36,2.11c.2-.11.37,0,.54.1a14.94,14.94,0,0,0,2.2,1.17c.52.15,1,.84,1.58.18a3.47,3.47,0,0,0,.23-1.88V168.27a14.17,14.17,0,0,1,.08-2.35,12.91,12.91,0,0,0,.2-3.77V133.29c0-.68-.16-1.5.75-1.84a1.89,1.89,0,0,1,.46,1.35v1.47c0,21.79.47,43.57.32,65.36,0,.67-.47,1.65.72,1.92a14.63,14.63,0,0,0,2.44-1.22c1.35-.65,2.74-1.25,4-2,.33-.19.68-.43,1.08-.14.25.75-.48.67-.8.87a35.94,35.94,0,0,0-4.49,3.26c1.61-.61,3.27-1.11,4.83-1.84a3.82,3.82,0,0,1,4.18.68q12.69,9.27,25.42,18.51l23.41,17.06c.9.66,1.87,1.25,2.75,1.94.66.53,1.48,1.06,1.1,2.3a32.61,32.61,0,0,1-4.68-2.56c-2.38-1.34-4.69-2.8-7-4.21-.42-.25-.88-.7-1.12.18-.7.24-1.23-.2-1.76-.5-7.29-4.09-14.52-8.3-21.8-12.41-8.94-5-17.82-10.2-26.79-15.21-.43-.24-.85-.73-1.45-.4-.34,1.49,0,3-.18,4.49-.06.43-.13.87-.23,1.29s-.11.87-.54.93-.55-.45-.73-.78a7.41,7.41,0,0,1-.16-2.15,23.25,23.25,0,0,0,0-2.64c0-1.55-.11-1.6-1.45-.87-4.17,2.26-8.26,4.67-12.39,7-12.44,7.05-24.85,14.15-37.29,21.2-3.91,2.23-7.81,4.48-11.73,6.7-.66.38-1.31,1.13-2.24.56a3.54,3.54,0,0,1-.19-1.85,1.22,1.22,0,0,1,.41-.8q3.38-2.19,6.53-4.7l27.58-20L238,200.18C238.85,199.53,240,199.13,240.35,197.88Z"></path>
  <path class="cls-43" d="M315.57,241.8a8.4,8.4,0,0,1-2.89,1.18l-.09.05a1.87,1.87,0,0,1-.52.17,1.33,1.33,0,0,1-.28,0l-.13,0-.13-.05c-4.91-1.73-9.68-3.93-14.55-5.81a21.39,21.39,0,0,1-4.54-2,2,2,0,0,0-.23-.18,4.81,4.81,0,0,0-.66-.45A28.41,28.41,0,0,0,287.7,233c-6.76-2.87-13.59-5.57-20.32-8.53a36.3,36.3,0,0,1-7.5-4.31c-4.21-3.22-6.63-7.78-8.87-12.43l-.06-.14a3.5,3.5,0,0,1-.06-2.64,46.12,46.12,0,0,1,6.15,3.32q22.56,12.81,45.1,25.67c.23.12.47.23.71.33l.07,0h0L314.25,241C314.66,241.22,315.05,241.48,315.57,241.8Z"></path>
  <path class="cls-44" d="M327.41,205.1h0c0,.26,0,.52-.07.78a1.33,1.33,0,0,0,0-.19,9.64,9.64,0,0,0-3.09-5c-.23,2.36-.12,4.64-.24,6.89a74,74,0,0,1-7.8,29.41c-.6,1.21-1,1.31-2.07.46q-26.07-20.07-52.19-40a5.33,5.33,0,0,1-.42-.4,1.94,1.94,0,0,1,0-.24c-.78-8-2-16-3.17-24-1.71-12.15-3.29-24.33-5-36.48-.18-1.22-.67-2.49-.18-3.76l.17-.11h0c.72-.36.65.47.73.81.41,1.71.58,3.47.82,5.22,2.54,18.72,5.28,37.42,7.91,56.14a4.33,4.33,0,0,0,1.88,3c7.39,5.66,14.69,11.43,22,17.17q13.19,10.32,26.37,20.68c.19.15.37.31.57.46,1.37,1.05,1.59,1,2.34-.59A72.48,72.48,0,0,0,322.76,210a79.34,79.34,0,0,0-.1-13.17A72.36,72.36,0,0,0,316,172.26a66.18,66.18,0,0,0-7.12-11.81,4.52,4.52,0,0,1-1-1.77v-.08a.51.51,0,0,1,0-.13.54.54,0,0,1,.29-.32h0a.38.38,0,0,1,.1,0c1,.21,1.43,1.15,2,1.89s1.2,1.71,1.77,2.59a70.81,70.81,0,0,1,5.81,10.91,1.6,1.6,0,0,0,.44.78l.09.06c.82,1.25,1,2.79,1.7,4.09,0,0,0,0,0,0s0,.05,0,.08q1.4,6,2.9,12l0,.31c.33,3.48.72,6.88,3.27,9.69A6,6,0,0,1,327.41,205.1Z"></path>
  <path class="cls-45" d="M261.65,196.93a.52.52,0,0,1-.14.16H261a2.11,2.11,0,0,0,0-.25s0,0,0-.05a65.78,65.78,0,0,0-1-8.29,23.19,23.19,0,0,1-5.1,11.53l-.27.33a.27.27,0,0,0,0,.2.24.24,0,0,0,0,.08,6.93,6.93,0,0,1-2.13,1.13l-.15,0c-.21-.07-.24-.19-.21-.32a1.07,1.07,0,0,1,.22-.32c1.32-1.46,1.79-3.37,2.68-5.06l.08-.21c.22-.6.42-1.2.6-1.81a.06.06,0,0,0,0,0,26.11,26.11,0,0,0,1-6.4,103.86,103.86,0,0,0-.68-18.15c-.77-6.7-1.5-13.41-2.23-20.13q-.78-7.26-1.6-14.53c0-.15,0-.3-.07-.45a33,33,0,0,1-.49-4.54c0-.19,0-.37,0-.56v-.09a2.81,2.81,0,0,1,0-.29c.87.07,1,.81,1.38,1.39,0,0,0,.05,0,.08h0s0,0,0,.06a1,1,0,0,1,.32.48,5.1,5.1,0,0,1,.13.68l0,.2a.78.78,0,0,1-.26.57v.11a.06.06,0,0,0,0,.06c-.08,2.69.63,5.3.94,7.94.48,4.2,1.1,8.39,1.67,12.58.41,3,.85,6,1.27,8.95.55,3.9,1.11,7.79,1.65,11.69q1,7.05,2,14.14c.34,2.51.69,5,1,7.52C261.87,195.82,262.05,196.44,261.65,196.93Z"></path>
  <path class="cls-46" d="M312.68,242.89l-.09.14a72.15,72.15,0,0,1-25.91,24.81,73.14,73.14,0,0,1-31.28,9.49,82.73,82.73,0,0,1-20.12-1.21h0l-.11,0c-3.36-1-6.79-1.62-10-2.88-.62-.25-1.26-.47-1.88-.69h0a.43.43,0,0,1-.11-.44.23.23,0,0,1,.06-.12.09.09,0,0,1,0-.05l0,0a2.47,2.47,0,0,1,1.84.25,68.83,68.83,0,0,0,16.92,4,80.88,80.88,0,0,0,12.74.29,74.71,74.71,0,0,0,19.51-3.92A73.2,73.2,0,0,0,311,243.87a3.35,3.35,0,0,1,.56-.74l.26-.23h.89Z"></path>
  <path class="cls-47" d="M254.47,200.61c-.55-.37-.13-.64.1-.93a21.85,21.85,0,0,0,4.86-11.25,1,1,0,0,1,.78-1c.05,3.26,1.55,6.33.67,9.61-.32.63-1.12.61-1.51,1.14Z"></path>
  <path class="cls-48" d="M255,196.46a24.44,24.44,0,0,1-2.66,5.28c-.4.38-.92.78-1.41.56s-.29-1-.29-1.47c-.06-14.49,0-29-.19-43.48-.12-8.61,0-17.22-.2-25.84a2.88,2.88,0,0,1,.09-3.26l.53.31c1.33,1.33,1,3.12,1.14,4.7.48,4.12.87,8.24,1.25,12.37.36,3.89.67,7.79,1,11.69.51,5.75.94,11.5,1.39,17.26a156.35,156.35,0,0,1,.3,17.32A13.51,13.51,0,0,1,255,196.46Z"></path>
  <path class="cls-49" d="M250.34,128.25l-.09,3.26c-.43.46-.23,1-.23,1.54V143a18.67,18.67,0,0,0-.28,3.34c0,5.18.11,10.37,0,15.54-.24,9-.25,18-.29,26.94,0,3.75-.14,7.5-.13,11.26a4.14,4.14,0,0,1-.42,2.27l-1.52-.85a3.4,3.4,0,0,1-.13-1.45c.53-4.1.25-8.21.27-12.32,0-10.71.25-21.42.4-32.13.1-6.9,0-13.79.22-20.69,0-.66.13-1.3.16-2.21-.46,6.94-1.38,13.58-1.92,20.25a11.67,11.67,0,0,1-.28,1.74c-.36,5.47-1.11,10.89-1.59,16.35-.77,8.62-1.93,17.19-2.7,25.81a1.21,1.21,0,0,1-.28.81c-.34-.19-.67-.4-1-.57a2.44,2.44,0,0,1-1.4-2.86c.79-5.6,1.45-11.23,2.18-16.85.85-6.58,1.73-13.16,2.6-19.75l3.54-27A2.66,2.66,0,0,1,250.34,128.25Z"></path>
  <path class="cls-5" d="M241.47,197.63c-.5-2.34.25-4.62.43-6.92.24-3.15.69-6.28,1-9.43q.57-5.15,1.11-10.29c.33-3.19.65-6.39,1-9.58.21-2.23.4-4.45.6-6.68,1.11-.23,1.15.64,1.26,1.32a13.49,13.49,0,0,1,.06,3.36c-.52,5.27-.23,10.55-.25,15.82,0,7.57-.5,15.14-.34,22.71,0,1,.18,2.18-1.34,2.34l-.28-.29C243.81,199,242.43,198.58,241.47,197.63Z"></path>
  <path class="cls-49" d="M240.35,197.88c.57,1.1-.37,1.3-1,1.75q-7.9,5.67-15.79,11.39-11.25,8.16-22.49,16.35l-15.6,11.38a5.48,5.48,0,0,1-.79.33.4.4,0,0,1,0-.56h0l19.22-14.7q17-13.08,33.89-26.18C238.89,196.8,239.55,197.32,240.35,197.88Z"></path>
  <path class="cls-50" d="M308.27,158.17l0,.08a.06.06,0,0,1,0,0l-.27.28,0,0h-.09c-.8,0-1.05-.71-1.44-1.19a68.56,68.56,0,0,0-12.83-12.18,73,73,0,0,0-35.21-13.94c-1.07-.12-2.13-.25-3.21-.27a2.26,2.26,0,0,0-1.67.51,1.66,1.66,0,0,0-.27.26c-.45-.41-.2-1-.3-1.45v0l0-.09c.3-.94.76-1.52,1.78-.61.64.57,1.13.36,1.8-.06,1.09-.69,1.75-2,3.18-2.2a43.38,43.38,0,0,1,8.93,2,36,36,0,0,1,6.06,2.14l-.09.34c-.44,1.67-.33,1.79,1.77,2.49a70.28,70.28,0,0,1,14.8,7.5h0l.08.06a82.68,82.68,0,0,1,10.92,8.85,62.1,62.1,0,0,1,5.56,6.24C308,157.32,308.38,157.67,308.27,158.17Z"></path>
  <path class="cls-28" d="M255,196.46c.87-4.79.66-9.64.55-14.47-.12-5.45-.54-10.89-1.11-16.31-.29-2.86-.39-5.74-.63-8.6-.35-4.16-.77-8.33-1.13-12.49-.23-2.72-.31-5.45-.66-8.15s0-5.37-1.15-7.88c.39-.37.44.05.59.25,1,2.29.81,4.77,1.15,7.17.59,4.18,1,8.38,1.45,12.58.34,3.09.6,6.19.94,9.28.45,4,1,7.9,1.4,11.86.27,2.41.55,4.84.63,7.26.11,3.2.06,6.41,0,9.61a33,33,0,0,1-1.44,8.76A2.07,2.07,0,0,1,255,196.46Z"></path>
  <path class="cls-51" d="M184.7,238.52v.56l-.31.6c-.26.47-.56.84-1.18.61-1.34-2-2-4.38-3.19-6.5-.77-2.56-1.65-5.1-2.3-7.69a56.15,56.15,0,0,1-1.89-14V206c.67,2.94.76,5.94,1.2,8.89a72.92,72.92,0,0,0,4.86,17.44C182.75,234.36,183.75,236.43,184.7,238.52Z"></path>
  <path class="cls-52" d="M308.23,158.24a63.88,63.88,0,0,0-11.79-12.07c-1.73-1.4-3.52-2.73-5.29-4.09.09-.54.1-1.14.88-1.15a74.48,74.48,0,0,1,15.58,14.87c.27.34.57.65.86,1a77.53,77.53,0,0,1,9.8,17.62c-.67-.06-.66-.69-.83-1.08A69,69,0,0,0,308.23,158.24Z"></path>
  <path class="cls-53" d="M292,140.93l-.88,1.15c-1.6-.51-2.86-1.64-4.29-2.47a72,72,0,0,0-11.42-5.27c-2.31-.85-2.28-.93-.73-2.84A67.13,67.13,0,0,1,292,140.93Z"></path>
  <path class="cls-54" d="M223.23,272v.57l-1.49-.53h0l-.39-.07a12.57,12.57,0,0,1-3.77-1.51,63.8,63.8,0,0,1-9.11-5.24,1.73,1.73,0,0,0-2.46,0l0,0a1.72,1.72,0,0,1-.65.46.67.67,0,0,1-.58-.09l0,0a62.9,62.9,0,0,1-7.83-6.75c-1-1-2.44-1.72-3.05-3.16l0-.07v-.14l.09-.15c1.14-1.85,1.07-1.84-.53-3.66a76.16,76.16,0,0,1-5.44-7.22,1.62,1.62,0,0,1-.43-1.44.28.28,0,0,1,0-.12.14.14,0,0,1,0-.06.9.9,0,0,1,1.17-.29c0,.05,0,.1,0,.15a1.34,1.34,0,0,0,0,.2,2.09,2.09,0,0,0,.49,1A76,76,0,0,0,200,256.7a70.78,70.78,0,0,0,20.83,13.81c.84.39,1.9.47,2.35,1.39A.3.3,0,0,0,223.23,272Z"></path>
  <path class="cls-55" d="M204.7,265.56a2.13,2.13,0,0,0,.42-.1c2.17-1.43,2.17-1.42,4.29,0A100.26,100.26,0,0,0,221.75,272c-.43.31-1,.53-1.27.95-1.13,1.89-2.37.92-3.62.24C212.64,270.93,208.38,268.71,204.7,265.56Z"></path>
  <path class="cls-56" d="M187.65,243c.77,2.14,2.38,3.73,3.67,5.53a36.4,36.4,0,0,0,3.41,4.14c1,1,.71,1.71-.25,2.43l-.69.54L192,253.86l-4-5.36a52.29,52.29,0,0,1-3.85-6.15c.72-.77,1.42-.09,2.13,0C186.77,242.53,187.32,242.5,187.65,243Z"></path>
  <path class="cls-57" d="M186.16,242.62c-.67,0-1.23-.68-2-.32a.46.46,0,0,1-.09-.27c-.1-.31,0-.38.32-.31l62.28-35.4.25-.15c2.66-1.51,2.67-1.51,2.74,1.63v1.61a.51.51,0,0,1-.5-.35,3.68,3.68,0,0,1,0-1.55c-.21,1.81-1.37,3.13-2.54,4.41-3.18,3.47-7.13,5.93-11.11,8.35-8.56,5.19-17.83,8.93-27,13-6.63,2.93-13.33,5.67-20,8.56A11.4,11.4,0,0,1,186.16,242.62Z"></path>
  <path class="cls-56" d="M184.43,241.72l-.32.31a3.77,3.77,0,0,1-.92-1.74l1.18-.61Z"></path>
  <path class="cls-58" d="M245,200.28a1.46,1.46,0,0,0,.89-1.54v-.3c-.09-11.93.47-23.86.33-35.8,0-2.09.33-4.18.25-6.28,0-.68,0-1.42-.86-1.63.83-8,1.66-15.92,2.53-24.21a2.29,2.29,0,0,1,.39,1.74c0,6.61.24,13.22-.06,19.81-.35,7.78.12,15.55-.29,23.3-.38,7.29,0,14.56-.25,21.84a12.85,12.85,0,0,1-.6,4.26A5.68,5.68,0,0,1,245,200.28Z"></path>
  <path class="cls-59" d="M292.62,235h0a1,1,0,0,1-.38.12c-.76.15-1.41-.37-2.07-.63-12.61-5.1-25.28-10.08-37.86-15.26a5.17,5.17,0,0,0-4.22,0q-23.34,9.47-46.73,18.8c-.78.31-1.53,1-2.48.5v0c-.08-1,.78-1,1.34-1.23,6.62-2.71,13.22-5.46,19.83-8.19,6.9-2.86,13.83-5.65,20.68-8.58l.09,0,.19-.08c2.24-1,4.48-1.86,6.75-2.73a2.09,2.09,0,0,0,1.65-2.44,0,0,0,0,1,0,0,5.39,5.39,0,0,1,.17-3.2,1.55,1.55,0,0,1,.2-.32v0l.41.53a27.72,27.72,0,0,0,.45-5.45c0-.55-.29-1.22.28-1.76a4.78,4.78,0,0,0,.09,1.74,17.75,17.75,0,0,0,2,4.08,35.45,35.45,0,0,0,5,7.21,23.68,23.68,0,0,0,6.09,4.26c4.64,2.67,9.69,4.39,14.59,6.47,4.27,1.82,8.57,3.57,12.84,5.37A1.88,1.88,0,0,1,292.62,235Z"></path>
  <path class="cls-60" d="M248.84,202.32c0-2.94.06-5.87.2-8.79.21-6.24-.06-12.5.11-18.74.25-9.62.22-19.24.28-28.86a6.84,6.84,0,0,1,.55-3v10.86c-.26,3,0,6-.12,9a16.72,16.72,0,0,1-.09,3c0,11.35,0,22.7-.09,34.05C249.65,200.8,250,201.83,248.84,202.32Z"></path>
  <path class="cls-61" d="M249.74,211.7a32,32,0,0,0,.09,4.38c.15,1-.2,1.27-1,1.57-2.67,1-5.32,2.14-8,3.21-.41-.73.16-1.11.59-1.46a20.08,20.08,0,0,0,6.94-9.43c.15-.44.3-1,1-.85l.28.29Z"></path>
  <path class="cls-62" d="M279.11,220.08l-27.56-16.2.22-.37,27.59,16.19Z"></path>
  <path class="cls-63" d="M245.2,205.91l-16.1,9.45-.22-.36,16.1-9.47Z"></path>
  <path class="cls-49" d="M249.75,165.91v-11c0-.39-.07-.79.25-1.1v11A1.44,1.44,0,0,1,249.75,165.91Z"></path>
  <path class="cls-64" d="M198.84,238.55l-10,4a.85.85,0,0,1,.37-.38c3-1.34,6-2.5,9-3.69A1,1,0,0,1,198.84,238.55Z"></path>
  <path class="cls-64" d="M311.81,242.87l0,0c0,.09-.08.19-.13.28a20.81,20.81,0,0,1-3.28,4.92C296,264,279.87,273.46,260,276.32a72,72,0,0,1-36-4.12,5.6,5.6,0,0,0-.7-.2l0,0-.07,0A89.17,89.17,0,0,1,209.84,265a74.36,74.36,0,0,1-20.93-20.93c-.27-.41-.69-.81-.26-1.25a2.09,2.09,0,0,0,.49,1A76,76,0,0,0,200,256.7a70.78,70.78,0,0,0,20.83,13.81c.84.39,1.9.47,2.35,1.39l0,0a2.47,2.47,0,0,1,1.84.25,68.83,68.83,0,0,0,16.92,4,80.88,80.88,0,0,0,12.74.29,74.71,74.71,0,0,0,19.51-3.92A73.2,73.2,0,0,0,311,243.87a3.35,3.35,0,0,1,.56-.74c-4.91-1.73-9.68-3.93-14.55-5.81a21.39,21.39,0,0,1-4.54-2,2,2,0,0,0-.23-.18c-.76.15-1.41-.37-2.07-.63-12.61-5.1-25.28-10.08-37.86-15.26a5.17,5.17,0,0,0-4.22,0q-23.34,9.47-46.73,18.8c-.78.31-1.53,1-2.48.5,4-1.28,7.82-3,11.72-4.59q19.08-7.65,38.11-15.37a3.56,3.56,0,0,1,2.93,0q19.72,8,39.48,15.93l.46.17c.34.12.69.22,1,.33h0Z"></path>
  <path class="cls-64" d="M315.84,236.2c-.59,1.21-1,1.33-2.07.47q-24.93-19.62-50-39.13a3.71,3.71,0,0,1-1.51-2.68c-1.45-10.51-3-21-4.46-31.52q-2.15-15.1-4.32-30.22c0-.22-.11-.45-.18-.66.72-.36.65.47.73.81.41,1.71.58,3.47.82,5.22,2.54,18.72,5.28,37.42,7.91,56.14a4.33,4.33,0,0,0,1.88,3c7.39,5.66,14.69,11.43,22,17.17q13.19,10.32,26.37,20.68c.19.15.37.31.57.46,1.37,1.05,1.59,1,2.34-.59A72.48,72.48,0,0,0,322.76,210a79.34,79.34,0,0,0-.1-13.17A72.36,72.36,0,0,0,316,172.26a66.18,66.18,0,0,0-7.12-11.81,4.52,4.52,0,0,1-1-1.77v-.08c-.8,0-1.05-.71-1.44-1.19a68.56,68.56,0,0,0-12.83-12.18,73,73,0,0,0-35.21-13.94c-1.07-.12-2.13-.25-3.21-.27a2.26,2.26,0,0,0-1.67.51l0,.2a.78.78,0,0,1-.26.57v.11s0-.07,0-.11l0-.51a1.23,1.23,0,0,1,.14-.94c.23-.31.72-.34,1.33-.31a73.72,73.72,0,0,1,52.56,27.26c.19.24.41.45.62.67l.07.07,0,0a76.86,76.86,0,0,1,11.2,20.48,73.77,73.77,0,0,1-3.32,57.15Z"></path>
  <path class="cls-65" d="M249.41,206.54v2.58l0,0-.09,0,0,0c-.39.25-.42.71-.55,1.1a19.25,19.25,0,0,1-6.8,9.2,2.73,2.73,0,0,0-.91.91,1.12,1.12,0,0,0-.09.42v0c-3.95,1.67-7.89,3.35-11.86,5l-29.12,12c-.39.13-.87.22-1.06.67,0,0,0,0,0,0l-10,4,0,0h-.18a1.85,1.85,0,0,0-1,.32h-.2a2.77,2.77,0,0,1-1.29-.32h0l.36-.18a94,94,0,0,1,8.83-3.91c5.55-2.42,11.13-4.78,16.68-7.23,5-2.2,10-4.34,15-6.77a83.86,83.86,0,0,0,16.69-10.27c2.5-2.09,4.22-3.55,5.56-7.31C249.32,206.81,249.36,206.68,249.41,206.54Z"></path>
</svg>
