<?xml version="1.0" encoding="UTF-8"?>
<svg xmlns="http://www.w3.org/2000/svg" id="Layer_1" data-name="Layer 1" viewBox="0 0 500 500">
  <defs>
    <style>.cls-1{fill:#fff;}.cls-2{fill:#c10a25;}</style>
  </defs>
  <path class="cls-1" d="M454.94,229.63c-.08.65-.84,6.7-.84,6.7a.4.4,0,0,1-.4.36h-6.22v5.47h5.88a.41.41,0,0,1,.41.41v12.09c0,7,3.79,10.19,11.9,10.19a31.5,31.5,0,0,0,8.92-1.39V258a29.68,29.68,0,0,1-7.15.88c-4.27,0-5.93-1.47-5.93-5.22v-11.1a.41.41,0,0,1,.41-.41h12.45v-5.47H461.92a.41.41,0,0,1-.41-.41v-6.65h-6.57"></path>
  <path class="cls-1" d="M384.52,250.42c0-5.52,4.11-9.08,10.47-9.08s10.46,3.58,10.46,9.13-4.11,9.08-10.46,9.08-10.47-3.59-10.47-9.13m-8.06,0c0,9.45,6.58,14.65,18.53,14.65,11.59,0,18.51-5.46,18.51-14.6,0-9.45-6.57-14.66-18.51-14.66-11.6,0-18.53,5.46-18.53,14.61"></path>
  <path class="cls-1" d="M429.63,241.66a.41.41,0,0,1-.78-.16s-.26-4.14-.31-4.8h-7.09v27.49h7.84V246.83a.48.48,0,0,1,.07-.24c.83-1.18,3.37-3.93,9.29-3.93A25.75,25.75,0,0,1,443,243v-6.7a15.71,15.71,0,0,0-3.67-.42,10.2,10.2,0,0,0-9.68,5.74"></path>
  <path class="cls-1" d="M291.27,235.84c0,6,4.87,9.69,15.79,11.85,7.82,1.59,11.32,2.8,11.32,5.76,0,2.58-2.16,5.66-12.45,5.66a50.72,50.72,0,0,1-14.82-2.51v6a43.92,43.92,0,0,0,15.21,2.48c12.8,0,20.45-4.47,20.45-11.95,0-6.24-4.57-9.69-15.78-11.91-7.95-1.61-11.49-2.82-11.49-5.76,0-3.49,3.63-5.27,10.79-5.27a47.37,47.37,0,0,1,14,2.32v-6c-2.21-.92-6.77-2.36-14-2.36-12.26,0-19,4.15-19,11.68"></path>
  <path class="cls-1" d="M343.16,256.85a.42.42,0,0,1-.22-.36v-12a.42.42,0,0,1,.22-.37,19.67,19.67,0,0,1,9.91-2.36c6.07,0,9.41,3.08,9.41,8.69s-3.43,8.75-9.41,8.75a19.64,19.64,0,0,1-9.91-2.37m-.1-17.15a.42.42,0,0,1-.67-.25s-.39-2.22-.49-2.75h-6.8v39.14h7.84V262.72a.4.4,0,0,1,.22-.36.42.42,0,0,1,.42,0c2.5,1.69,6.65,2.69,11.09,2.69,10.05,0,15.82-5.44,15.82-14.93,0-9-5.79-14.33-15.49-14.33a19.15,19.15,0,0,0-11.94,3.89"></path>
  <path class="cls-1" d="M132.9,249.64a.41.41,0,0,1,0-.4L141,233.06a.41.41,0,0,1,.37-.23.42.42,0,0,1,.37.23l8.11,16.18a.38.38,0,0,1,0,.4.39.39,0,0,1-.35.19H133.25a.42.42,0,0,1-.35-.19M137,225.05l-20.55,39.14h9c.21-.43,4.13-8.06,4.13-8.06a.41.41,0,0,1,.37-.22h22.8a.4.4,0,0,1,.36.22l4.2,8.06h9c-.61-1.17-20.32-38.71-20.54-39.14Z"></path>
  <path class="cls-1" d="M195.65,236.7v19.79a.4.4,0,0,1-.22.36,18.05,18.05,0,0,1-9.08,2.43c-5.33,0-7.81-2.37-7.81-7.43V236.7H170.7V253c0,8.15,4.43,12.11,13.55,12.11,4.14-.1,8.68-1.55,11.29-3.61a.39.39,0,0,1,.39-.06.42.42,0,0,1,.27.31l.48,2.48h6.81V236.7h-7.84"></path>
  <path class="cls-1" d="M219.89,250.42c0-5.61,3.35-8.7,9.41-8.7a19.64,19.64,0,0,1,9.91,2.37.4.4,0,0,1,.22.36v12a.4.4,0,0,1-.22.36,19.71,19.71,0,0,1-9.91,2.37c-6,0-9.41-3.21-9.41-8.8m19.54-25.37v13.11a.41.41,0,0,1-.21.36.4.4,0,0,1-.42,0A20.85,20.85,0,0,0,228,235.81c-10.26,0-16.14,5.32-16.14,14.61s5.72,14.65,15.7,14.65c4.46,0,9-1.52,11.65-3.87a.41.41,0,0,1,.41-.08.39.39,0,0,1,.27.31s.44,2.23.54,2.76h6.81V225.05Z"></path>
  <rect class="cls-1" x="256.87" y="225.05" width="7.84" height="6.68"></rect>
  <rect class="cls-1" x="256.87" y="236.7" width="7.84" height="27.49"></rect>
  <path class="cls-1" d="M53.14,224.17,25.69,275.82H81.05c.22-.43,26.82-50.47,27.44-51.65H53.14"></path>
  <path class="cls-2" d="M447.07,236.28h6.62l.89-7.06h7.34v7.06h12.86v6.29H461.92v11.1c0,3.48,1.38,4.8,5.52,4.8a28.37,28.37,0,0,0,7.56-1v6.29a31.81,31.81,0,0,1-9.33,1.49c-8.5,0-12.31-3.64-12.31-10.6V242.57h-6.29v-6.29"></path>
  <path class="cls-2" d="M405,250.47c0-5.35-4-8.72-10-8.72s-10.05,3.31-10.05,8.67,4,8.72,10.05,8.72,10-3.32,10-8.67m-29-.05c0-9.11,6.68-15,18.94-15s18.93,5.52,18.93,15.07c0,9.11-6.68,15-18.93,15s-18.94-5.52-18.94-15.07"></path>
  <path class="cls-2" d="M421,236.28h7.89l.33,5.19a10.56,10.56,0,0,1,10.05-6,15.2,15.2,0,0,1,4.08.5v7.5a25.23,25.23,0,0,0-4.74-.44c-4.64,0-7.57,1.77-8.95,3.76V264.6H421V236.28"></path>
  <path class="cls-2" d="M290.69,262.89v-6.84a50.7,50.7,0,0,0,15.24,2.64c8.17,0,12-1.93,12-5.24,0-2.59-3.09-3.75-11-5.35-10.6-2.1-16.12-5.75-16.12-12.26,0-7,5.58-12.09,19.43-12.09a37.38,37.38,0,0,1,14.41,2.49V233a48.15,48.15,0,0,0-14.41-2.42c-7.17,0-10.38,1.82-10.38,4.86,0,2.59,3.26,3.75,11.16,5.35,10.59,2.1,16.11,5.41,16.11,12.31,0,7.07-6.62,12.37-20.86,12.37a44.27,44.27,0,0,1-15.63-2.6"></path>
  <path class="cls-2" d="M362.07,250.47c0-5.3-3.15-8.28-9-8.28a19.16,19.16,0,0,0-9.72,2.32v12a19.26,19.26,0,0,0,9.72,2.31c5.85,0,9-3,9-8.33m-19.82-14.19.55,3.09a19.6,19.6,0,0,1,12.2-4c10,0,15.9,5.52,15.9,14.74,0,9.44-5.69,15.34-16.23,15.34-4.25,0-8.61-.93-11.32-2.76v13.53h-8.66v-40Z"></path>
  <path class="cls-2" d="M133.25,249.42h16.23l-8.11-16.17Zm3.54-24.78h9.27l21,40H157l-4.3-8.28h-22.8l-4.25,8.28h-9.88Z"></path>
  <path class="cls-2" d="M195.79,261.78c-2.59,2.05-7.23,3.59-11.54,3.71-7.34,0-14-2.43-14-12.53V236.28H179v15.57c0,4.75,2.16,7,7.4,7a17.82,17.82,0,0,0,8.89-2.37V236.28h8.67V264.6h-7.57l-.55-2.82"></path>
  <path class="cls-2" d="M239,256.49v-12a19.24,19.24,0,0,0-9.72-2.32c-5.85,0-9,3-9,8.29s3.14,8.39,9,8.39a19.24,19.24,0,0,0,9.72-2.32m-27.55-6.07c0-9.33,5.85-15,16.56-15a21.3,21.3,0,0,1,11,2.76V224.64h8.67v40h-7.57l-.6-3.09c-2.65,2.37-7.29,4-11.93,4-10.21,0-16.12-5.63-16.12-15.07"></path>
  <rect class="cls-2" x="256.46" y="224.64" width="8.67" height="7.51"></rect>
  <rect class="cls-2" x="256.46" y="236.28" width="8.67" height="28.32"></rect>
  <polygon class="cls-2" points="25 276.24 52.89 223.76 109.18 223.76 81.29 276.24 25 276.24"></polygon>
</svg>
