<?xml version="1.0" encoding="UTF-8"?>
<svg xmlns="http://www.w3.org/2000/svg" xmlns:xlink="http://www.w3.org/1999/xlink" id="Layer_1" data-name="Layer 1" viewBox="0 0 500 500">
  <defs>
    <style>.cls-1{fill:#262626;}.cls-2{fill:url(#名称未設定グラデーション_19);}.cls-3{fill:url(#名称未設定グラデーション_25);}.cls-4{fill:url(#名称未設定グラデーション_25-2);}.cls-5{fill:url(#名称未設定グラデーション_25-3);}.cls-6{fill:url(#名称未設定グラデーション_19-2);}.cls-7{fill:url(#名称未設定グラデーション_2);}.cls-8{fill:url(#名称未設定グラデーション_14);}.cls-9{fill:url(#名称未設定グラデーション_16);}.cls-10{fill:#1a1a1a;}.cls-11{fill:url(#名称未設定グラデーション_4);}.cls-12{fill:url(#名称未設定グラデーション_220);}.cls-13{fill:url(#名称未設定グラデーション_71);}.cls-14{fill:url(#名称未設定グラデーション_218);}.cls-15{fill:url(#名称未設定グラデーション_7);}.cls-16{fill:none;}.cls-17{fill:url(#名称未設定グラデーション_135);}.cls-18{fill:#fff;}.cls-19{fill:url(#名称未設定グラデーション_25-4);}.cls-20{fill:url(#名称未設定グラデーション_25-5);}.cls-21{fill:url(#名称未設定グラデーション_25-6);}.cls-22{fill:url(#名称未設定グラデーション_25-7);}.cls-23{fill:url(#名称未設定グラデーション_25-8);}.cls-24{fill:url(#名称未設定グラデーション_25-9);}.cls-25{fill:url(#名称未設定グラデーション_19-3);}.cls-26{fill:url(#名称未設定グラデーション_19-4);}.cls-27{fill:url(#名称未設定グラデーション_25-10);}.cls-28{fill:url(#名称未設定グラデーション_71-2);}.cls-29{fill:url(#名称未設定グラデーション_25-11);}.cls-30{fill:url(#名称未設定グラデーション_218-2);}.cls-31{fill:url(#名称未設定グラデーション_25-12);}.cls-32{fill:url(#名称未設定グラデーション_7-2);}.cls-33{fill:url(#名称未設定グラデーション_25-13);}.cls-34{fill:url(#名称未設定グラデーション_83);}.cls-35{fill:url(#名称未設定グラデーション_25-14);}.cls-36{fill:url(#名称未設定グラデーション_218-3);}.cls-37{fill:url(#名称未設定グラデーション_25-15);}.cls-38{fill:url(#名称未設定グラデーション_25-16);}.cls-39{fill:url(#名称未設定グラデーション_25-17);}.cls-40{fill:url(#名称未設定グラデーション_25-18);}.cls-41{fill:url(#名称未設定グラデーション_25-19);}.cls-42{fill:url(#名称未設定グラデーション_135-2);}.cls-43{fill:url(#名称未設定グラデーション_25-20);}.cls-44{fill:url(#名称未設定グラデーション_135-3);}.cls-45{fill:url(#名称未設定グラデーション_25-21);}.cls-46{fill:url(#名称未設定グラデーション_19-5);}.cls-47{fill:url(#名称未設定グラデーション_25-22);}.cls-48{fill:url(#名称未設定グラデーション_23);}.cls-49{fill:url(#名称未設定グラデーション_24);}.cls-50{fill:url(#名称未設定グラデーション_19-6);}.cls-51{fill:url(#名称未設定グラデーション_28);}.cls-52{fill:url(#名称未設定グラデーション_28-2);}.cls-53{fill:url(#名称未設定グラデーション_28-3);}.cls-54{fill:url(#名称未設定グラデーション_28-4);}.cls-55{fill:url(#名称未設定グラデーション_28-5);}.cls-56{fill:url(#名称未設定グラデーション_28-6);}.cls-57{fill:url(#名称未設定グラデーション_28-7);}.cls-58{fill:url(#名称未設定グラデーション_19-7);}.cls-59{fill:url(#名称未設定グラデーション_220-2);}.cls-60,.cls-61,.cls-62,.cls-63,.cls-64,.cls-65,.cls-80{opacity:0.5;}.cls-60{fill:url(#名称未設定グラデーション_22);}.cls-61{fill:url(#名称未設定グラデーション_22-2);}.cls-62{fill:url(#名称未設定グラデーション_22-3);}.cls-63{fill:url(#名称未設定グラデーション_22-4);}.cls-64{fill:url(#名称未設定グラデーション_22-5);}.cls-65{fill:url(#名称未設定グラデーション_22-6);}.cls-66,.cls-67,.cls-68,.cls-69,.cls-70,.cls-71,.cls-72,.cls-73,.cls-74,.cls-78,.cls-79,.cls-81,.cls-82,.cls-84,.cls-85,.cls-86,.cls-87,.cls-88,.cls-93,.cls-94,.cls-95,.cls-96,.cls-97,.cls-98{fill-rule:evenodd;}.cls-66{fill:url(#linear-gradient);}.cls-67{fill:url(#linear-gradient-2);}.cls-68{fill:url(#linear-gradient-3);}.cls-69{fill:url(#linear-gradient-4);}.cls-70{opacity:0.74;fill:url(#linear-gradient-5);}.cls-71{fill:url(#linear-gradient-6);}.cls-72{fill:url(#linear-gradient-7);}.cls-73{fill:url(#linear-gradient-8);}.cls-74,.cls-82{opacity:0.9;}.cls-74{fill:url(#linear-gradient-9);}.cls-75{fill:#231f20;}.cls-76{fill:#6d6e70;}.cls-77{fill:#59595c;}.cls-78,.cls-79{opacity:0.2;}.cls-78{fill:url(#linear-gradient-10);}.cls-79{fill-opacity:0.42;fill:url(#linear-gradient-11);}.cls-80,.cls-90{fill:#bcbdbf;}.cls-81{fill:url(#linear-gradient-12);}.cls-82{fill:url(#linear-gradient-13);}.cls-83{fill:url(#linear-gradient-14);}.cls-84{fill:url(#linear-gradient-15);}.cls-85{fill:url(#linear-gradient-16);}.cls-86{fill:url(#linear-gradient-17);}.cls-87{fill:url(#linear-gradient-18);}.cls-88{fill:#444746;}.cls-89{fill:#6e6e71;}.cls-91{fill-opacity:0.8;fill:url(#linear-gradient-19);}.cls-92{fill:#424143;}.cls-93{fill:url(#linear-gradient-20);}.cls-94{fill:#d1d2d3;}.cls-95{fill:url(#linear-gradient-21);}.cls-96{fill:url(#linear-gradient-22);}.cls-97{fill:url(#linear-gradient-23);}.cls-98{fill:url(#linear-gradient-24);}</style>
    <linearGradient id="名称未設定グラデーション_19" x1="437.12" y1="454.59" x2="437.12" y2="388.16" gradientUnits="userSpaceOnUse">
      <stop offset="0.1"></stop>
      <stop offset="0.9" stop-color="#666"></stop>
    </linearGradient>
    <linearGradient id="名称未設定グラデーション_25" x1="434" y1="454.62" x2="434" y2="388.16" gradientUnits="userSpaceOnUse">
      <stop offset="0.15" stop-color="#1a1a1a"></stop>
      <stop offset="0.45" stop-color="#666"></stop>
      <stop offset="0.75" stop-color="#b3b3b3"></stop>
      <stop offset="1" stop-color="#666"></stop>
    </linearGradient>
    <linearGradient id="名称未設定グラデーション_25-2" x1="434.07" y1="454.59" x2="434.07" y2="388.16" xlink:href="#名称未設定グラデーション_25"></linearGradient>
    <linearGradient id="名称未設定グラデーション_25-3" x1="80.93" y1="454.62" x2="80.93" y2="388.16" xlink:href="#名称未設定グラデーション_25"></linearGradient>
    <linearGradient id="名称未設定グラデーション_19-2" x1="80.93" y1="454.62" x2="80.93" y2="389.32" xlink:href="#名称未設定グラデーション_19"></linearGradient>
    <linearGradient id="名称未設定グラデーション_2" x1="103.36" y1="454.62" x2="103.36" y2="403.09" gradientUnits="userSpaceOnUse">
      <stop offset="0.1" stop-color="#1a1a1a"></stop>
      <stop offset="0.5" stop-color="#4d4d4d"></stop>
      <stop offset="0.9" stop-color="#1a1a1a"></stop>
    </linearGradient>
    <linearGradient id="名称未設定グラデーション_14" x1="80.79" y1="454.62" x2="80.79" y2="403.15" gradientUnits="userSpaceOnUse">
      <stop offset="0.1"></stop>
      <stop offset="0.5" stop-color="#666"></stop>
      <stop offset="0.9" stop-color="#999"></stop>
    </linearGradient>
    <linearGradient id="名称未設定グラデーション_16" x1="73.2" y1="454.62" x2="73.2" y2="403.18" gradientUnits="userSpaceOnUse">
      <stop offset="0.1" stop-color="#1a1a1a"></stop>
      <stop offset="0.5" stop-color="#4d4d4d"></stop>
      <stop offset="0.9" stop-color="#999"></stop>
    </linearGradient>
    <linearGradient id="名称未設定グラデーション_4" x1="35.82" y1="454.62" x2="35.82" y2="403.27" gradientUnits="userSpaceOnUse">
      <stop offset="0.1"></stop>
      <stop offset="0.5" stop-color="#666"></stop>
      <stop offset="0.9"></stop>
    </linearGradient>
    <linearGradient id="名称未設定グラデーション_220" x1="434.07" y1="454.59" x2="434.07" y2="411.73" gradientUnits="userSpaceOnUse">
      <stop offset="0.1"></stop>
      <stop offset="0.9" stop-color="#8c8c8c"></stop>
    </linearGradient>
    <linearGradient id="名称未設定グラデーション_71" x1="429.47" y1="415.46" x2="429.47" y2="400.36" gradientUnits="userSpaceOnUse">
      <stop offset="0.1" stop-color="#262626"></stop>
      <stop offset="0.9" stop-color="#1a1a1a"></stop>
    </linearGradient>
    <linearGradient id="名称未設定グラデーション_218" x1="456.93" y1="442.37" x2="456.93" y2="423.41" gradientUnits="userSpaceOnUse">
      <stop offset="0.1" stop-color="#4d4d4d"></stop>
      <stop offset="0.9"></stop>
    </linearGradient>
    <linearGradient id="名称未設定グラデーション_7" x1="434" y1="442.4" x2="434" y2="423.41" gradientUnits="userSpaceOnUse">
      <stop offset="0.1" stop-color="#d9d9d9"></stop>
      <stop offset="0.18" stop-color="#a6a6a6"></stop>
      <stop offset="0.27" stop-color="#6f6f6f"></stop>
      <stop offset="0.35" stop-color="#474747"></stop>
      <stop offset="0.41" stop-color="#2f2f2f"></stop>
      <stop offset="0.45" stop-color="#262626"></stop>
      <stop offset="0.9"></stop>
    </linearGradient>
    <linearGradient id="名称未設定グラデーション_135" x1="245.79" y1="454.6" x2="245.79" y2="454.35" gradientUnits="userSpaceOnUse">
      <stop offset="0.23" stop-color="#999"></stop>
      <stop offset="0.77" stop-color="#c5c5c5"></stop>
      <stop offset="1" stop-color="#d9d9d9"></stop>
    </linearGradient>
    <linearGradient id="名称未設定グラデーション_25-4" x1="330.59" y1="975.34" x2="330.59" y2="-190.65" xlink:href="#名称未設定グラデーション_25"></linearGradient>
    <linearGradient id="名称未設定グラデーション_25-5" x1="311.73" y1="454.6" x2="311.73" y2="387.16" xlink:href="#名称未設定グラデーション_25"></linearGradient>
    <linearGradient id="名称未設定グラデーション_25-6" x1="147.92" y1="454.61" x2="147.92" y2="387.74" xlink:href="#名称未設定グラデーション_25"></linearGradient>
    <linearGradient id="名称未設定グラデーション_25-7" x1="217.51" y1="454.61" x2="217.51" y2="387.48" xlink:href="#名称未設定グラデーション_25"></linearGradient>
    <linearGradient id="名称未設定グラデーション_25-8" x1="169.46" y1="457.01" x2="169.46" y2="387.53" xlink:href="#名称未設定グラデーション_25"></linearGradient>
    <linearGradient id="名称未設定グラデーション_25-9" x1="205.82" y1="454.46" x2="205.82" y2="387.58" xlink:href="#名称未設定グラデーション_25"></linearGradient>
    <linearGradient id="名称未設定グラデーション_19-3" x1="182.98" y1="450.06" x2="182.98" y2="389.03" xlink:href="#名称未設定グラデーション_19"></linearGradient>
    <linearGradient id="名称未設定グラデーション_19-4" x1="186.09" y1="454.61" x2="186.09" y2="412.3" xlink:href="#名称未設定グラデーション_19"></linearGradient>
    <linearGradient id="名称未設定グラデーション_25-10" x1="175.36" y1="454.52" x2="175.36" y2="387.6" xlink:href="#名称未設定グラデーション_25"></linearGradient>
    <linearGradient id="名称未設定グラデーション_71-2" x1="175.36" y1="415.98" x2="175.36" y2="401.08" xlink:href="#名称未設定グラデーション_71"></linearGradient>
    <linearGradient id="名称未設定グラデーション_25-11" x1="202.79" y1="454.61" x2="202.79" y2="387.54" xlink:href="#名称未設定グラデーション_25"></linearGradient>
    <linearGradient id="名称未設定グラデーション_218-2" x1="202.79" y1="442.55" x2="202.79" y2="423.83" xlink:href="#名称未設定グラデーション_218"></linearGradient>
    <linearGradient id="名称未設定グラデーション_25-12" x1="179.83" y1="454.65" x2="179.83" y2="387.48" xlink:href="#名称未設定グラデーション_25"></linearGradient>
    <linearGradient id="名称未設定グラデーション_7-2" x1="179.83" y1="442.58" x2="179.83" y2="423.83" xlink:href="#名称未設定グラデーション_7"></linearGradient>
    <linearGradient id="名称未設定グラデーション_25-13" x1="350.22" y1="454.63" x2="350.22" y2="387.02" xlink:href="#名称未設定グラデーション_25"></linearGradient>
    <linearGradient id="名称未設定グラデーション_83" x1="350.22" y1="441" x2="350.22" y2="402.11" gradientUnits="userSpaceOnUse">
      <stop offset="0.1" stop-color="#d9d9d9"></stop>
      <stop offset="0.18" stop-color="#a6a6a6"></stop>
      <stop offset="0.27" stop-color="#6f6f6f"></stop>
      <stop offset="0.35" stop-color="#474747"></stop>
      <stop offset="0.41" stop-color="#2f2f2f"></stop>
      <stop offset="0.45" stop-color="#262626"></stop>
      <stop offset="0.9" stop-color="#1a1a1a"></stop>
    </linearGradient>
    <linearGradient id="名称未設定グラデーション_25-14" x1="326.36" y1="454.6" x2="326.36" y2="387.12" xlink:href="#名称未設定グラデーション_25"></linearGradient>
    <linearGradient id="名称未設定グラデーション_218-3" x1="326.36" y1="441" x2="326.36" y2="402.18" xlink:href="#名称未設定グラデーション_218"></linearGradient>
    <linearGradient id="名称未設定グラデーション_25-15" x1="303.7" y1="516.96" x2="303.7" y2="267.79" xlink:href="#名称未設定グラデーション_25"></linearGradient>
    <linearGradient id="名称未設定グラデーション_25-16" x1="256.25" y1="457.53" x2="256.25" y2="387.2" xlink:href="#名称未設定グラデーション_25"></linearGradient>
    <linearGradient id="名称未設定グラデーション_25-17" x1="230.49" y1="454.61" x2="230.49" y2="387.45" xlink:href="#名称未設定グラデーション_25"></linearGradient>
    <linearGradient id="名称未設定グラデーション_25-18" x1="284.51" y1="566.12" x2="284.51" y2="428.58" xlink:href="#名称未設定グラデーション_25"></linearGradient>
    <linearGradient id="名称未設定グラデーション_25-19" x1="258.63" y1="454.6" x2="258.63" y2="387.3" xlink:href="#名称未設定グラデーション_25"></linearGradient>
    <linearGradient id="名称未設定グラデーション_135-2" x1="258.63" y1="454.6" x2="258.63" y2="437.34" xlink:href="#名称未設定グラデーション_135"></linearGradient>
    <linearGradient id="名称未設定グラデーション_25-20" x1="285.59" y1="454.69" x2="285.59" y2="386.96" xlink:href="#名称未設定グラデーション_25"></linearGradient>
    <linearGradient id="名称未設定グラデーション_135-3" x1="285.59" y1="454.68" x2="285.59" y2="437.31" xlink:href="#名称未設定グラデーション_135"></linearGradient>
    <linearGradient id="名称未設定グラデーション_25-21" x1="273.16" y1="454.6" x2="273.16" y2="387.19" xlink:href="#名称未設定グラデーション_25"></linearGradient>
    <linearGradient id="名称未設定グラデーション_19-5" x1="273.16" y1="454.6" x2="273.16" y2="437.31" xlink:href="#名称未設定グラデーション_19"></linearGradient>
    <linearGradient id="名称未設定グラデーション_25-22" x1="256.96" y1="458.66" x2="256.96" y2="387.35" xlink:href="#名称未設定グラデーション_25"></linearGradient>
    <linearGradient id="名称未設定グラデーション_23" x1="256.96" y1="453.83" x2="256.96" y2="388.89" gradientUnits="userSpaceOnUse">
      <stop offset="0.23" stop-color="#b3b3b3"></stop>
      <stop offset="0.9" stop-color="#dfdfdf"></stop>
      <stop offset="1" stop-color="#e6e6e6"></stop>
    </linearGradient>
    <linearGradient id="名称未設定グラデーション_24" x1="272.09" y1="454.6" x2="272.09" y2="389.41" gradientUnits="userSpaceOnUse">
      <stop offset="0.1"></stop>
      <stop offset="0.5" stop-color="#666"></stop>
      <stop offset="0.9" stop-color="#1a1a1a"></stop>
    </linearGradient>
    <linearGradient id="名称未設定グラデーション_19-6" x1="344.22" y1="454.6" x2="344.22" y2="388.48" xlink:href="#名称未設定グラデーション_19"></linearGradient>
    <linearGradient id="名称未設定グラデーション_28" x1="350.25" y1="450.15" x2="350.25" y2="391.58" gradientUnits="userSpaceOnUse">
      <stop offset="0" stop-color="#b5b5b5"></stop>
      <stop offset="0.11" stop-color="#a2a2a2"></stop>
      <stop offset="0.2" stop-color="#999"></stop>
      <stop offset="0.31" stop-color="#909090"></stop>
      <stop offset="0.39" stop-color="#878787"></stop>
      <stop offset="0.4" stop-color="#b3b3b3"></stop>
      <stop offset="0.53" stop-color="#cfcfcf"></stop>
      <stop offset="0.7" stop-color="#f2f2f2"></stop>
      <stop offset="0.82" stop-color="#e9e9e9"></stop>
      <stop offset="1" stop-color="#d4d4d4"></stop>
    </linearGradient>
    <linearGradient id="名称未設定グラデーション_28-2" x1="179.86" y1="450.19" x2="179.86" y2="392.1" xlink:href="#名称未設定グラデーション_28"></linearGradient>
    <linearGradient id="名称未設定グラデーション_28-3" x1="251.09" y1="450.83" x2="251.09" y2="391.83" xlink:href="#名称未設定グラデーション_28"></linearGradient>
    <linearGradient id="名称未設定グラデーション_28-4" x1="278.03" y1="450.16" x2="278.03" y2="391.71" xlink:href="#名称未設定グラデーション_28"></linearGradient>
    <linearGradient id="名称未設定グラデーション_28-5" x1="80.91" y1="450.23" x2="80.91" y2="392.64" xlink:href="#名称未設定グラデーション_28"></linearGradient>
    <linearGradient id="名称未設定グラデーション_28-6" x1="434.04" y1="450.23" x2="434.04" y2="392.64" xlink:href="#名称未設定グラデーション_28"></linearGradient>
    <linearGradient id="名称未設定グラデーション_28-7" x1="264.59" y1="450.19" x2="264.59" y2="391.72" xlink:href="#名称未設定グラデーション_28"></linearGradient>
    <linearGradient id="名称未設定グラデーション_19-7" x1="437.1" y1="454.62" x2="437.1" y2="388.11" xlink:href="#名称未設定グラデーション_19"></linearGradient>
    <linearGradient id="名称未設定グラデーション_220-2" x1="186.09" y1="454.62" x2="186.09" y2="412.3" xlink:href="#名称未設定グラデーション_220"></linearGradient>
    <linearGradient id="名称未設定グラデーション_22" x1="109.64" y1="385.71" x2="138.12" y2="414.19" gradientUnits="userSpaceOnUse">
      <stop offset="0.1" stop-color="#fff" stop-opacity="0"></stop>
      <stop offset="0.2" stop-color="#fff" stop-opacity="0.32"></stop>
      <stop offset="0.4" stop-color="#fff"></stop>
      <stop offset="0.6" stop-color="#fff"></stop>
      <stop offset="0.9" stop-color="#fff" stop-opacity="0"></stop>
    </linearGradient>
    <linearGradient id="名称未設定グラデーション_22-2" x1="449.83" y1="384.68" x2="475.13" y2="409.98" xlink:href="#名称未設定グラデーション_22"></linearGradient>
    <linearGradient id="名称未設定グラデーション_22-3" x1="393.84" y1="432.46" x2="416.81" y2="409.49" xlink:href="#名称未設定グラデーション_22"></linearGradient>
    <linearGradient id="名称未設定グラデーション_22-4" x1="195.81" y1="385.52" x2="220.94" y2="410.66" xlink:href="#名称未設定グラデーション_22"></linearGradient>
    <linearGradient id="名称未設定グラデーション_22-5" x1="139.78" y1="432.89" x2="162.64" y2="410.02" xlink:href="#名称未設定グラデーション_22"></linearGradient>
    <linearGradient id="名称未設定グラデーション_22-6" x1="357.73" y1="383.48" x2="393.18" y2="418.93" xlink:href="#名称未設定グラデーション_22"></linearGradient>
    <linearGradient id="linear-gradient" x1="212.84" y1="51.65" x2="288.71" y2="334.83" gradientUnits="userSpaceOnUse">
      <stop offset="0.21" stop-color="#231f20"></stop>
      <stop offset="0.32" stop-color="#2d2a2b"></stop>
      <stop offset="0.5" stop-color="#49484a"></stop>
      <stop offset="0.59" stop-color="#59595c"></stop>
      <stop offset="0.81" stop-color="#b2b2b3"></stop>
      <stop offset="1" stop-color="#fff"></stop>
    </linearGradient>
    <linearGradient id="linear-gradient-2" x1="212.84" y1="51.65" x2="288.71" y2="334.83" gradientUnits="userSpaceOnUse">
      <stop offset="0" stop-color="#231f20"></stop>
      <stop offset="0.56" stop-color="#48484a"></stop>
      <stop offset="0.59" stop-color="#525254"></stop>
      <stop offset="0.66" stop-color="#636466"></stop>
      <stop offset="0.71" stop-color="#696a6c"></stop>
      <stop offset="0.84" stop-color="#fff"></stop>
      <stop offset="0.89" stop-color="#fff"></stop>
      <stop offset="1" stop-color="#929497"></stop>
    </linearGradient>
    <linearGradient id="linear-gradient-3" x1="493.48" y1="43.67" x2="567.2" y2="318.8" gradientTransform="matrix(-1, 0, 0, 1, 704.33, 0)" gradientUnits="userSpaceOnUse">
      <stop offset="0" stop-color="#404041" stop-opacity="0"></stop>
      <stop offset="0.61" stop-color="#4d4d4f"></stop>
      <stop offset="0.65" stop-color="#505052"></stop>
      <stop offset="0.69" stop-color="#595a5c"></stop>
      <stop offset="0.71" stop-color="#626366"></stop>
      <stop offset="0.87" stop-color="#e6e7e8"></stop>
      <stop offset="1" stop-color="#dbdcdd" stop-opacity="0"></stop>
    </linearGradient>
    <linearGradient id="linear-gradient-4" x1="304.52" y1="346.64" x2="193.98" y2="42.95" gradientUnits="userSpaceOnUse">
      <stop offset="0.04" stop-color="#48484a"></stop>
      <stop offset="0.19" stop-color="#4d4d4f"></stop>
      <stop offset="0.35" stop-color="#8b8b8c"></stop>
      <stop offset="0.53" stop-color="#c9c9ca"></stop>
      <stop offset="0.66" stop-color="#f0f0f0"></stop>
      <stop offset="0.73" stop-color="#fff"></stop>
      <stop offset="1" stop-color="#808184"></stop>
    </linearGradient>
    <linearGradient id="linear-gradient-5" x1="115.99" y1="181.14" x2="157.17" y2="37.55" gradientUnits="userSpaceOnUse">
      <stop offset="0" stop-color="#fff" stop-opacity="0"></stop>
      <stop offset="0.11" stop-color="#fff" stop-opacity="0.25"></stop>
      <stop offset="0.28" stop-color="#fff" stop-opacity="0.65"></stop>
      <stop offset="0.4" stop-color="#fff" stop-opacity="0.9"></stop>
      <stop offset="0.46" stop-color="#fff"></stop>
      <stop offset="0.81" stop-color="#b7b9ba" stop-opacity="0.34"></stop>
      <stop offset="1" stop-color="#929497" stop-opacity="0"></stop>
    </linearGradient>
    <linearGradient id="linear-gradient-6" x1="136.91" y1="81.32" x2="363.47" y2="81.32" gradientUnits="userSpaceOnUse">
      <stop offset="0" stop-color="#323031"></stop>
      <stop offset="0.22" stop-color="#656668" stop-opacity="0.63"></stop>
      <stop offset="0.5" stop-color="#77787b" stop-opacity="0.5"></stop>
      <stop offset="1" stop-color="#2c292a"></stop>
    </linearGradient>
    <linearGradient id="linear-gradient-7" x1="112.67" y1="115.27" x2="325.97" y2="115.27" gradientTransform="translate(471 424) rotate(180)" gradientUnits="userSpaceOnUse">
      <stop offset="0" stop-color="#231f20"></stop>
      <stop offset="0.25" stop-color="#464446"></stop>
      <stop offset="0.5" stop-color="#6e6e71"></stop>
      <stop offset="1" stop-color="#231f20"></stop>
    </linearGradient>
    <linearGradient id="linear-gradient-8" x1="272.36" y1="264.39" x2="261.55" y2="294.1" gradientTransform="matrix(-1, 0, 0, 1, 667, 0)" gradientUnits="userSpaceOnUse">
      <stop offset="0.24" stop-color="#323031" stop-opacity="0"></stop>
      <stop offset="0.29" stop-color="#323031" stop-opacity="0.1"></stop>
      <stop offset="0.36" stop-color="#323031" stop-opacity="0.4"></stop>
      <stop offset="0.43" stop-color="#323031" stop-opacity="0.89"></stop>
      <stop offset="0.44" stop-color="#323031"></stop>
      <stop offset="0.66" stop-color="#323031" stop-opacity="0.78"></stop>
      <stop offset="0.69" stop-color="#323031" stop-opacity="0.74"></stop>
      <stop offset="1" stop-color="#323031" stop-opacity="0"></stop>
    </linearGradient>
    <linearGradient id="linear-gradient-9" x1="184.01" y1="34.22" x2="92.11" y2="200.02" gradientTransform="translate(-11.17)" gradientUnits="userSpaceOnUse">
      <stop offset="0" stop-color="#fff" stop-opacity="0"></stop>
      <stop offset="0.05" stop-color="#fff" stop-opacity="0.11"></stop>
      <stop offset="0.16" stop-color="#fff" stop-opacity="0.39"></stop>
      <stop offset="0.31" stop-color="#fff" stop-opacity="0.84"></stop>
      <stop offset="0.37" stop-color="#fff"></stop>
      <stop offset="1" stop-color="#9c9ea1" stop-opacity="0"></stop>
    </linearGradient>
    <linearGradient id="linear-gradient-10" x1="347.23" y1="84.1" x2="401.48" y2="84.1" gradientUnits="userSpaceOnUse">
      <stop offset="0" stop-color="#231f20"></stop>
      <stop offset="0.06" stop-color="#231f20" stop-opacity="0.86"></stop>
      <stop offset="0.33" stop-color="#231f20" stop-opacity="0.38"></stop>
      <stop offset="0.63" stop-color="#231f20" stop-opacity="0.09"></stop>
      <stop offset="1" stop-color="#231f20" stop-opacity="0"></stop>
    </linearGradient>
    <linearGradient id="linear-gradient-11" x1="430.85" y1="69.71" x2="430.85" y2="104.83" gradientTransform="matrix(-1, 0, 0, 1, 552, 0)" gradientUnits="userSpaceOnUse">
      <stop offset="0" stop-color="#323031"></stop>
      <stop offset="0.15" stop-color="#323031" stop-opacity="0.73"></stop>
      <stop offset="0.43" stop-color="#323031" stop-opacity="0.33"></stop>
      <stop offset="0.72" stop-color="#323031" stop-opacity="0.08"></stop>
      <stop offset="1" stop-color="#323031" stop-opacity="0"></stop>
    </linearGradient>
    <linearGradient id="linear-gradient-12" x1="436.96" y1="277.48" x2="421.65" y2="319.56" gradientTransform="translate(-299.03)" gradientUnits="userSpaceOnUse">
      <stop offset="0.05" stop-color="#231f20" stop-opacity="0"></stop>
      <stop offset="0.1" stop-color="#2f2c2e" stop-opacity="0.29"></stop>
      <stop offset="0.21" stop-color="#454446" stop-opacity="0.8"></stop>
      <stop offset="0.26" stop-color="#4d4d4f"></stop>
      <stop offset="0.35" stop-color="#49484a" stop-opacity="0.98"></stop>
      <stop offset="0.46" stop-color="#3d3c3d" stop-opacity="0.91"></stop>
      <stop offset="0.53" stop-color="#323031" stop-opacity="0.85"></stop>
      <stop offset="0.61" stop-color="#383637" stop-opacity="0.84"></stop>
      <stop offset="0.68" stop-color="#49494b" stop-opacity="0.79"></stop>
      <stop offset="0.74" stop-color="#5e5f61" stop-opacity="0.74"></stop>
      <stop offset="0.75" stop-color="#555557" stop-opacity="0.61"></stop>
      <stop offset="0.77" stop-color="#464547" stop-opacity="0.39"></stop>
      <stop offset="0.8" stop-color="#3a383a" stop-opacity="0.21"></stop>
      <stop offset="0.83" stop-color="#323031" stop-opacity="0.09"></stop>
      <stop offset="0.87" stop-color="#2d2a2b" stop-opacity="0.02"></stop>
      <stop offset="1" stop-color="#2c292a" stop-opacity="0"></stop>
    </linearGradient>
    <linearGradient id="linear-gradient-13" x1="139.82" y1="170.66" x2="177.82" y2="38.16" gradientTransform="matrix(-1, 0, 0, 1, 520, 0)" gradientUnits="userSpaceOnUse">
      <stop offset="0" stop-color="#fff" stop-opacity="0"></stop>
      <stop offset="0.13" stop-color="#dbdbdb" stop-opacity="0.25"></stop>
      <stop offset="0.41" stop-color="#7e7f81" stop-opacity="0.88"></stop>
      <stop offset="0.46" stop-color="#6d6e70"></stop>
      <stop offset="0.47" stop-color="#77787b"></stop>
      <stop offset="0.56" stop-color="#78797c" stop-opacity="0.97"></stop>
      <stop offset="0.66" stop-color="#797b7d" stop-opacity="0.86"></stop>
      <stop offset="0.76" stop-color="#7d7e81" stop-opacity="0.69"></stop>
      <stop offset="0.86" stop-color="#818285" stop-opacity="0.46"></stop>
      <stop offset="0.96" stop-color="#86888a" stop-opacity="0.15"></stop>
      <stop offset="1" stop-color="#898b8d" stop-opacity="0"></stop>
    </linearGradient>
    <linearGradient id="linear-gradient-14" x1="103.35" y1="204.83" x2="399.74" y2="204.83" gradientUnits="userSpaceOnUse">
      <stop offset="0" stop-color="#323031"></stop>
      <stop offset="0.06" stop-color="#454445"></stop>
      <stop offset="0.15" stop-color="#5b5b5d"></stop>
      <stop offset="0.25" stop-color="#6b6b6e"></stop>
      <stop offset="0.35" stop-color="#747578"></stop>
      <stop offset="0.48" stop-color="#77787b"></stop>
      <stop offset="0.55" stop-color="#58595b"></stop>
      <stop offset="0.56" stop-color="#5c5d5f"></stop>
      <stop offset="0.59" stop-color="#5e5f61"></stop>
      <stop offset="0.71" stop-color="#323031" stop-opacity="0.9"></stop>
      <stop offset="0.71" stop-color="#3e3c3d" stop-opacity="0.89"></stop>
      <stop offset="0.73" stop-color="#5f5d5e" stop-opacity="0.87"></stop>
      <stop offset="0.75" stop-color="#949393" stop-opacity="0.84"></stop>
      <stop offset="0.77" stop-color="#dddcdd" stop-opacity="0.79"></stop>
      <stop offset="0.77" stop-color="#fff" stop-opacity="0.77"></stop>
      <stop offset="1" stop-color="#353435"></stop>
    </linearGradient>
    <linearGradient id="linear-gradient-15" x1="138.12" y1="198.05" x2="8.19" y2="172.79" gradientTransform="matrix(-1, 0, 0, 1, 244.71, 0)" gradientUnits="userSpaceOnUse">
      <stop offset="0" stop-color="#231f20"></stop>
      <stop offset="0.1" stop-color="#292627"></stop>
      <stop offset="0.69" stop-color="#4b4b4d"></stop>
      <stop offset="1" stop-color="#58595b"></stop>
    </linearGradient>
    <linearGradient id="linear-gradient-16" x1="250.13" y1="168.55" x2="409.06" y2="168.55" gradientUnits="userSpaceOnUse">
      <stop offset="0" stop-color="#231f20"></stop>
      <stop offset="0.03" stop-color="#444143"></stop>
      <stop offset="0.07" stop-color="#646264"></stop>
      <stop offset="0.12" stop-color="#7f7f80"></stop>
      <stop offset="0.17" stop-color="#959697"></stop>
      <stop offset="0.23" stop-color="#a6a7a9"></stop>
      <stop offset="0.3" stop-color="#b2b4b6"></stop>
      <stop offset="0.39" stop-color="#b9bbbd"></stop>
      <stop offset="0.61" stop-color="#bbbdbf"></stop>
      <stop offset="0.82" stop-color="#fff"></stop>
    </linearGradient>
    <linearGradient id="linear-gradient-17" x1="316.75" y1="159.48" x2="340.08" y2="235.77" gradientUnits="userSpaceOnUse">
      <stop offset="0" stop-color="#3b3a3c"></stop>
      <stop offset="0.03" stop-color="#3b3a3c"></stop>
      <stop offset="0.34" stop-color="#3b3a3c"></stop>
      <stop offset="0.48" stop-color="#555658"></stop>
      <stop offset="0.57" stop-color="#626366"></stop>
      <stop offset="0.81" stop-color="#4d4d4f"></stop>
    </linearGradient>
    <linearGradient id="linear-gradient-18" x1="-5.54" y1="168.01" x2="153" y2="168.01" gradientTransform="matrix(-1, 0, 0, 1, 244.71, 0)" gradientUnits="userSpaceOnUse">
      <stop offset="0" stop-color="#231f20"></stop>
      <stop offset="0.01" stop-color="#2b2728"></stop>
      <stop offset="0.05" stop-color="#504e50"></stop>
      <stop offset="0.09" stop-color="#6d6d6f"></stop>
      <stop offset="0.14" stop-color="#818285"></stop>
      <stop offset="0.18" stop-color="#8e9092"></stop>
      <stop offset="0.21" stop-color="#929497"></stop>
      <stop offset="0.25" stop-color="#9ea0a2"></stop>
      <stop offset="0.37" stop-color="#c1c2c4"></stop>
      <stop offset="0.5" stop-color="#dcddde"></stop>
      <stop offset="0.63" stop-color="#f0f0f0"></stop>
      <stop offset="0.76" stop-color="#fbfbfb"></stop>
      <stop offset="0.89" stop-color="#fff"></stop>
      <stop offset="1" stop-color="#a6a8ab"></stop>
    </linearGradient>
    <linearGradient id="linear-gradient-19" x1="81.97" y1="233.02" x2="417.98" y2="233.02" gradientUnits="userSpaceOnUse">
      <stop offset="0" stop-color="#626366"></stop>
      <stop offset="0.11" stop-color="#7b7c7e"></stop>
      <stop offset="0.34" stop-color="#bababc"></stop>
      <stop offset="0.57" stop-color="#fff"></stop>
      <stop offset="0.71" stop-color="#fdfdfd" stop-opacity="0.99"></stop>
      <stop offset="0.76" stop-color="#f7f7f7" stop-opacity="0.96"></stop>
      <stop offset="0.81" stop-color="#ececec" stop-opacity="0.91"></stop>
      <stop offset="0.85" stop-color="#dddcdc" stop-opacity="0.84"></stop>
      <stop offset="0.88" stop-color="#c9c8c8" stop-opacity="0.75"></stop>
      <stop offset="0.91" stop-color="#b0afaf" stop-opacity="0.64"></stop>
      <stop offset="0.93" stop-color="#939191" stop-opacity="0.51"></stop>
      <stop offset="0.96" stop-color="#706e6e" stop-opacity="0.35"></stop>
      <stop offset="0.98" stop-color="#4b4848" stop-opacity="0.18"></stop>
      <stop offset="1" stop-color="#231f20" stop-opacity="0"></stop>
    </linearGradient>
    <linearGradient id="linear-gradient-20" x1="92.47" y1="130.34" x2="92.47" y2="97.4" gradientUnits="userSpaceOnUse">
      <stop offset="0" stop-color="#f1f1f1"></stop>
      <stop offset="0.94" stop-color="#f1f1f1"></stop>
      <stop offset="1" stop-color="#f1f1f1"></stop>
    </linearGradient>
    <linearGradient id="linear-gradient-21" x1="613.93" y1="106.9" x2="647.43" y2="106.9" gradientTransform="translate(-241.06)" gradientUnits="userSpaceOnUse">
      <stop offset="0" stop-color="#231f20"></stop>
      <stop offset="0.23" stop-color="#282426"></stop>
      <stop offset="0.53" stop-color="#363436"></stop>
      <stop offset="0.87" stop-color="#4e4d50"></stop>
      <stop offset="1" stop-color="#59595c"></stop>
    </linearGradient>
    <linearGradient id="linear-gradient-22" x1="715.25" y1="105.72" x2="748.74" y2="105.72" gradientTransform="matrix(-1, 0, 0, 1, 842.75, 0)" xlink:href="#linear-gradient-21"></linearGradient>
    <linearGradient id="linear-gradient-23" x1="74.39" y1="106.33" x2="108.75" y2="106.33" gradientTransform="translate(19.13)" gradientUnits="userSpaceOnUse">
      <stop offset="0" stop-color="#929497"></stop>
      <stop offset="0.26" stop-color="#7e7f82"></stop>
      <stop offset="0.53" stop-color="#6d6e70"></stop>
    </linearGradient>
    <linearGradient id="linear-gradient-24" x1="175.7" y1="107.02" x2="209.74" y2="107.02" gradientTransform="matrix(-1, 0, 0, 1, 582.56, 0)" gradientUnits="userSpaceOnUse">
      <stop offset="0" stop-color="#929497"></stop>
      <stop offset="0.04" stop-color="#8d8f92"></stop>
      <stop offset="0.35" stop-color="#6e6f72"></stop>
      <stop offset="0.53" stop-color="#626366"></stop>
    </linearGradient>
  </defs>
  <g id="script">
    <path d="M115,456.09V417.25c0-7.6-1.51-9-9.49-9l-13.88,0v47.82H69.91V408.32l-23.27.06v47.71H25V388.14l81-.29c24.5-.08,30.85,5.89,30.85,29v39.2Z"></path>
    <path d="M446.35,386.67l-47.62.17,0,18.88,47.62-.13c6.57,0,7.18.11,7.19,4.65l-34.45.08c-11.89,0-26,4-26,22.91s14.19,22.86,26.07,22.86H475l-.11-44.4C474.84,391.13,469.65,386.59,446.35,386.67Zm7.29,50.47-34.46,0c-4.27,0-4.85-2.14-4.85-4.24s.56-4.24,4.83-4.24l34.46-.05Z"></path>
    <path d="M329.64,407.37l20.89-.06c18.5,0,20.24,2.47,20.24,14.2s-1.74,14.24-20.24,14.26l-20.89,0Zm-130.15,30-34.49,0c-4.27,0-4.85-2.11-4.85-4.18s.58-4.18,4.85-4.19l34.49,0ZM352.73,387l-55.76.19-76.16,53.05h0v-28c0-20.29-5.19-24.78-28.51-24.7l-47.66.17v18.64l47.66-.12c6.58,0,7.19.11,7.19,4.59l-34.49.08c-11.89,0-26,4-26,22.62s14.15,22.56,26,22.56h67.21l76.24-53h0v53h44.28c30.89,0,39.37-7.45,39.37-34.62S383.62,386.89,352.73,387Zm-64.69.22-60.83.22v20.18l31.67-.08Zm-47,68.86H302V435.82l-31.81,0Z"></path>
    <path class="cls-1" d="M115.53,455.6V417.25c0-7.92-1.68-9.52-10-9.5l-14.37,0V455.6H70.39V407.83l-24.24.06V455.6H25.48v-67l80.55-.28c24.11-.08,30.36,5.79,30.36,28.55v38.7Z"></path>
    <path class="cls-1" d="M419.22,455.59c-16.72,0-25.56-7.73-25.59-22.36s8.78-22.38,25.5-22.41l34.94-.09v-.09c0-5.41-.66-5.56-7.68-5.55l-47.14.13,0-17.89,47.13-.16c23-.08,28,4.27,28,24.51l.11,43.91Zm-.06-27.39c-3.64,0-5.33,1.51-5.32,4.74s1.7,4.74,5.34,4.73l34.95,0,0-9.49Z"></path>
    <path class="cls-1" d="M371.26,421.51c0-11.95-1.91-14.74-20.73-14.69l-21.37.05v29.42l21.37,0C369.35,436.25,371.26,433.46,371.26,421.51ZM159.67,433.24c0,3.19,1.69,4.68,5.33,4.67l35,0v-9.37l-35,.05C161.36,428.57,159.67,430.06,159.67,433.24Zm193.06,22.35H308.94V402.13l-76.88,53.46H165c-16.72,0-25.55-7.63-25.55-22.06s8.83-22.09,25.55-22.13l35-.08v-.1c0-5.34-.65-5.49-7.68-5.47l-47.17.12V388.21l47.17-.16c23-.08,28,4.21,28,24.21v28.91l76.8-53.49,55.61-.19c30.66-.11,38.88,7.06,38.88,34S383.39,455.59,352.73,455.59Zm-125-48.47V387.93l58.76-.21-27.73,19.33Zm73.81,29.2v19.27H242.65l27.69-19.24Z"></path>
    <path class="cls-2" d="M446.35,388.16l-45.65.16,3.66,3.72,42-.14c19.2-.06,23.36,3.45,23.4,19.8l.09,39.15,3.68,3.74-.1-42.9C473.38,392,468.85,388.08,446.35,388.16Z"></path>
    <path class="cls-3" d="M419.15,422.73c-6.59,0-10.67,3.93-10.66,10.22s4.11,10.2,10.7,10.2l40.33,0,0-20.46Zm0,15.94c-4.18,0-6.31-1.93-6.31-5.73s2.11-5.73,6.29-5.73l35.92-.06,0,11.49Z"></path>
    <path class="cls-4" d="M473.43,411.69c-.05-19.68-4.58-23.61-27.08-23.53l-46.16.16,0,15.9,46.17-.12c7.71,0,8.64.68,8.66,6.53v1.1l-35.92.08c-16.29,0-24.56,7.26-24.53,21.42s8.33,21.36,24.62,21.36h54.31Zm-54.22,38.42c-13.86,0-20.22-5.3-20.24-16.89s6.31-16.9,20.17-16.93l40.31-.08v-5.59c0-10.25-5.43-11-13.06-11l-41.79.12,0-7,41.79-.13c18.84-.07,22.63,3.11,22.66,19.05l.09,38.4Z"></path>
    <path class="cls-5" d="M106,389.32l-79.58.28v65H45.18v-47.7l26.19-.07v47.77H90.2V406.81l15.35,0c8.83,0,11,2,11,10.48v37.37h18.9V416.89C135.41,394.67,129.62,389.24,106,389.32Zm14.89,60.88v-33c0-10.88-4.17-14.91-15.37-14.88l-19.74.05v47.81H75.75V402.44l-34.94.1v47.69h-10V394l75.21-.24c20-.06,25,4.5,25,23.17v33.3Z"></path>
    <path class="cls-6" d="M106,389.32l-79.58.28,3.64,3.64L106,393c20.41-.07,25.7,4.85,25.7,23.9v34H120.18l-3.67,3.68h18.9V416.89C135.41,394.67,129.62,389.24,106,389.32Z"></path>
    <path class="cls-7" d="M105.55,403.09l-19,.06,3.66,3.66,15.35,0c8.83,0,11,2,11,10.48v37.37l3.67-3.68v-33.7C120.18,406.77,116.35,403.07,105.55,403.09Z"></path>
    <polygon class="cls-8" points="86.54 403.15 86.54 450.95 75.02 450.95 71.37 454.62 90.2 454.62 90.2 406.81 86.54 403.15"></polygon>
    <polygon class="cls-9" points="71.37 406.85 71.37 454.62 75.02 450.95 75.02 403.18 71.37 406.85"></polygon>
    <polygon class="cls-10" points="41.54 403.27 45.18 406.92 71.37 406.85 75.02 403.18 41.54 403.27"></polygon>
    <polygon class="cls-11" points="41.54 403.27 41.54 450.96 30.09 450.96 26.45 454.62 45.18 454.62 45.18 406.92 41.54 403.27"></polygon>
    <path class="cls-12" d="M469.85,450.85H419.21c-14.29,0-20.94-5.59-21-17.64s6.61-17.65,20.9-17.68l39.58-.08-3.67-3.73-35.92.08c-16.29,0-24.56,7.26-24.53,21.42s8.33,21.36,24.62,21.36h54.31Z"></path>
    <path class="cls-13" d="M446.38,400.36l-42.52.12-3.64,3.74,46.17-.12c7.71,0,8.64.68,8.66,6.53v1.1l3.67,3.73v-4.83C458.69,401,453.81,400.34,446.38,400.36Z"></path>
    <polygon class="cls-14" points="455.08 427.15 455.11 438.64 458.78 442.37 458.74 423.41 455.08 427.15"></polygon>
    <path class="cls-15" d="M419.18,438.67c-4.18,0-6.31-1.93-6.31-5.73s2.11-5.73,6.29-5.73l35.92-.06,3.66-3.74-39.59.06c-6.23,0-9.94,3.56-9.93,9.48s3.74,9.46,10,9.45l39.59,0-3.67-3.73Z"></path>
    <path class="cls-16" d="M419.16,427.21c-4.18,0-6.3,1.94-6.29,5.73s2.13,5.73,6.31,5.73l35.93,0,0-11.49Z"></path>
    <path class="cls-16" d="M160.15,433.24c0,2.07.58,4.19,4.85,4.18l34.49,0V429l-34.49,0C160.73,429.06,160.15,431.18,160.15,433.24Z"></path>
    <path class="cls-16" d="M370.77,421.51c0-11.73-1.74-14.24-20.24-14.2l-20.89.06V435.8l20.89,0C369,435.75,370.77,433.24,370.77,421.51Z"></path>
    <polygon class="cls-1" points="245.79 454.6 245.79 454.6 245.79 454.6 245.79 454.6"></polygon>
    <polygon class="cls-17" points="245.79 454.6 245.79 454.6 245.79 454.6 245.79 454.6"></polygon>
    <polygon class="cls-18" points="270.32 437.56 270.32 437.56 270.64 437.33 270.32 437.56"></polygon>
    <polygon class="cls-1" points="352.73 392.2 308.45 392.35 308.45 392.35 352.73 392.2"></polygon>
    <polygon class="cls-19" points="352.73 392.2 308.45 392.35 308.45 392.35 352.73 392.2"></polygon>
    <polygon class="cls-1" points="313.55 393.19 309.91 400.25 309.91 454.6 313.55 450.89 313.55 393.19"></polygon>
    <polygon class="cls-20" points="313.55 393.19 309.91 400.25 309.91 454.6 313.55 450.89 313.55 393.19"></polygon>
    <polygon class="cls-1" points="149.74 393.38 146.1 389.71 146.1 404.89 149.74 401.2 149.74 393.38"></polygon>
    <polygon class="cls-21" points="149.74 393.38 146.1 389.71 146.1 404.89 149.74 401.2 149.74 393.38"></polygon>
    <polygon class="cls-1" points="215.67 450.06 219.34 443.05 219.34 412.26 215.67 412.27 215.67 450.06"></polygon>
    <polygon class="cls-22" points="215.67 450.06 219.34 443.05 219.34 412.26 215.67 412.27 215.67 450.06"></polygon>
    <polygon class="cls-1" points="192.31 392.72 192.31 389.03 146.61 389.19 150.26 392.85 192.31 392.72"></polygon>
    <polygon class="cls-23" points="192.31 392.72 192.31 389.03 146.61 389.19 150.26 392.85 192.31 392.72"></polygon>
    <path class="cls-1" d="M215.67,412.27h3.67c0-19.43-4.51-23.31-27-23.23v3.69C211.52,392.66,215.67,396.13,215.67,412.27Z"></path>
    <path class="cls-24" d="M215.67,412.27h3.67c0-19.43-4.51-23.31-27-23.23v3.69C211.52,392.66,215.67,396.13,215.67,412.27Z"></path>
    <path class="cls-25" d="M219.34,412.26c0-19.43-4.51-23.31-27-23.23l-45.69.16,3.65,3.66,42-.13c19.22-.06,23.37,3.41,23.37,19.55v37.79l3.67-7Z"></path>
    <path class="cls-26" d="M230.62,450.91l-65.62,0c-14.3,0-20.94-5.52-20.94-17.41s6.64-17.43,20.94-17.46l39.62-.08L201,412.3l-35.95.08c-16.3,0-24.58,7.17-24.58,21.14s8.28,21.09,24.58,21.09h66.75Z"></path>
    <path class="cls-1" d="M204.62,411.21c0-9.46-4.88-10.15-12.32-10.13l-42.56.12-3.64,3.69,46.2-.12c7.72,0,8.65.67,8.65,6.45v1.08l3.67,3.68Z"></path>
    <path class="cls-27" d="M204.62,411.21c0-9.46-4.88-10.15-12.32-10.13l-42.56.12-3.64,3.69,46.2-.12c7.72,0,8.65.67,8.65,6.45v1.08l3.67,3.68Z"></path>
    <path class="cls-28" d="M204.62,411.21c0-9.46-4.88-10.15-12.32-10.13l-42.56.12-3.64,3.69,46.2-.12c7.72,0,8.65.67,8.65,6.45v1.08l3.67,3.68Z"></path>
    <polygon class="cls-1" points="200.95 438.87 204.62 442.55 204.62 423.83 200.95 427.53 200.95 438.87"></polygon>
    <polygon class="cls-29" points="200.95 438.87 204.62 442.55 204.62 423.83 200.95 427.53 200.95 438.87"></polygon>
    <polygon class="cls-30" points="200.95 438.87 204.62 442.55 204.62 423.83 200.95 427.53 200.95 438.87"></polygon>
    <path class="cls-1" d="M155.05,433.25c0,5.85,3.72,9.33,9.95,9.33l39.62,0L201,438.86l-35.95,0c-4.18,0-6.31-1.91-6.31-5.65s2.13-5.66,6.31-5.67l35.95-.05,3.67-3.7L165,423.9C158.77,423.91,155.05,427.4,155.05,433.25Z"></path>
    <path class="cls-31" d="M155.05,433.25c0,5.85,3.72,9.33,9.95,9.33l39.62,0L201,438.86l-35.95,0c-4.18,0-6.31-1.91-6.31-5.65s2.13-5.66,6.31-5.67l35.95-.05,3.67-3.7L165,423.9C158.77,423.91,155.05,427.4,155.05,433.25Z"></path>
    <path class="cls-32" d="M155.05,433.25c0,5.85,3.72,9.33,9.95,9.33l39.62,0L201,438.86l-35.95,0c-4.18,0-6.31-1.91-6.31-5.65s2.13-5.66,6.31-5.67l35.95-.05,3.67-3.7L165,423.9C158.77,423.91,155.05,427.4,155.05,433.25Z"></path>
    <path class="cls-1" d="M350.53,402.11l-26,.07,3.64,3.7,22.35-.05c18.38-.05,21.71,2.35,21.71,15.68s-3.33,15.73-21.71,15.75l-22.35,0L324.54,441l26,0c19,0,25.38-2.83,25.38-19.48S369.56,402.06,350.53,402.11Z"></path>
    <path class="cls-33" d="M350.53,402.11l-26,.07,3.64,3.7,22.35-.05c18.38-.05,21.71,2.35,21.71,15.68s-3.33,15.73-21.71,15.75l-22.35,0L324.54,441l26,0c19,0,25.38-2.83,25.38-19.48S369.56,402.06,350.53,402.11Z"></path>
    <path class="cls-34" d="M350.53,402.11l-26,.07,3.64,3.7,22.35-.05c18.38-.05,21.71,2.35,21.71,15.68s-3.33,15.73-21.71,15.75l-22.35,0L324.54,441l26,0c19,0,25.38-2.83,25.38-19.48S369.56,402.06,350.53,402.11Z"></path>
    <polygon class="cls-1" points="328.18 405.88 324.54 402.18 324.54 441 328.18 437.28 328.18 405.88"></polygon>
    <polygon class="cls-35" points="328.18 405.88 324.54 402.18 324.54 441 328.18 437.28 328.18 405.88"></polygon>
    <polygon class="cls-36" points="328.18 405.88 324.54 402.18 324.54 441 328.18 437.28 328.18 405.88"></polygon>
    <rect class="cls-1" x="303.7" y="387.61" height="9.5"></rect>
    <rect class="cls-37" x="303.7" y="387.61" height="9.5"></rect>
    <polygon class="cls-1" points="271.5 392.46 283.31 388.72 229.18 388.91 232.83 392.59 271.5 392.46"></polygon>
    <polygon class="cls-38" points="271.5 392.46 283.31 388.72 229.18 388.91 232.83 392.59 271.5 392.46"></polygon>
    <polygon class="cls-1" points="232.31 393.12 228.67 389.43 228.67 406.14 228.67 406.14 232.31 402.43 232.31 393.12"></polygon>
    <polygon class="cls-39" points="232.31 393.12 228.67 389.43 228.67 406.14 228.67 406.14 232.31 402.43 232.31 393.12"></polygon>
    <polygon class="cls-1" points="296.86 441.02 272.16 441.04 272.16 441.04 296.86 441.02"></polygon>
    <polygon class="cls-40" points="296.86 441.02 272.16 441.04 272.16 441.04 296.86 441.02"></polygon>
    <polygon class="cls-10" points="283.31 388.72 271.5 392.46 257.3 402.36 232.31 402.43 228.67 406.14 258.43 406.06 283.31 388.72"></polygon>
    <polygon class="cls-1" points="257.58 450.9 271.46 441.26 270.32 437.56 245.79 454.6 245.79 454.6 257.58 450.9"></polygon>
    <polygon class="cls-41" points="257.58 450.9 271.46 441.26 270.32 437.56 245.79 454.6 245.79 454.6 257.58 450.9"></polygon>
    <polygon class="cls-42" points="257.58 450.9 271.46 441.26 270.32 437.56 245.79 454.6 245.79 454.6 257.58 450.9"></polygon>
    <polygon class="cls-1" points="271.02 437.33 272.16 441.04 296.86 441.02 300.53 437.31 270.64 437.33 271.02 437.33"></polygon>
    <polygon class="cls-43" points="271.02 437.33 272.16 441.04 296.86 441.02 300.53 437.31 270.64 437.33 271.02 437.33"></polygon>
    <polygon class="cls-44" points="271.02 437.33 272.16 441.04 296.86 441.02 300.53 437.31 270.64 437.33 271.02 437.33"></polygon>
    <polygon class="cls-1" points="296.86 450.89 257.58 450.9 245.79 454.6 300.53 454.6 300.53 437.31 296.86 441.02 296.86 450.89"></polygon>
    <polygon class="cls-45" points="296.86 450.89 257.58 450.9 245.79 454.6 300.53 454.6 300.53 437.31 296.86 441.02 296.86 450.89"></polygon>
    <polygon class="cls-46" points="296.86 450.89 257.58 450.9 245.79 454.6 300.53 454.6 300.53 437.31 296.86 441.02 296.86 450.89"></polygon>
    <polygon class="cls-47" points="298.25 392.6 297.11 388.89 219.34 443.05 215.67 450.06 298.25 392.6"></polygon>
    <polygon class="cls-48" points="298.25 392.6 297.11 388.89 219.34 443.05 215.67 450.06 298.25 392.6"></polygon>
    <polygon class="cls-49" points="230.62 450.91 231.75 454.61 309.91 400.25 313.55 393.19 230.62 450.91"></polygon>
    <path class="cls-50" d="M352.73,388.48l-54.92.19,1.14,3.71,53.78-.18c28.14-.09,34.23,5.11,34.23,29.28s-6.09,29.39-34.23,29.4H313.55l-3.64,3.71h42.82c30.13,0,37.9-6.79,37.9-33.13S382.86,388.38,352.73,388.48Z"></path>
    <g id="_white" data-name=" white">
      <path class="cls-18" d="M232.31,402.43l25-.07,14.2-9.9-38.67.13-3.65-3.68h-.51v.52l3.64,3.69Z"></path>
      <path class="cls-18" d="M272.16,441h0l-1.14-3.7h-.38l-.32.21,1.14,3.71-13.88,9.64h39.28V441Z"></path>
      <path class="cls-18" d="M106,393l-75.42.24L27,389.59h-.52v.51l3.64,3.65V451H41.54V403.27L75,403.18V451H86.54v-47.8l19-.06c10.8,0,14.63,3.68,14.63,14.15v33.7h11.55v-34C131.73,397.85,126.44,392.93,106,393Z"></path>
      <path class="cls-18" d="M446.36,391.9l-42,.14-3.65-3.72h-.52v.53l3.65,3.71,0,7.92,42.52-.12c7.43,0,12.31.68,12.33,10.27v4.83l-39.58.08c-14.29,0-20.92,5.64-20.9,17.68s6.68,17.64,21,17.64h50.64l-.09-39.15C469.72,395.35,465.56,391.84,446.36,391.9Zm12.42,50.47-39.59,0c-6.23,0-10-3.53-10-9.45s3.7-9.46,9.93-9.48l39.59-.06Z"></path>
      <path class="cls-18" d="M352.73,392.2l-53.78.18h0l-1.14-3.71h-.39l-.31.22,1.14,3.71h0l-82.58,57.46V412.27c0-16.14-4.15-19.61-23.37-19.55l-42,.14-3.64-3.67h-.52v.52l3.64,3.67v7.82l42.56-.12c7.44,0,12.32.67,12.32,10.13V416l-39.62.08c-14.3,0-20.94,5.57-20.94,17.46s6.64,17.41,20.94,17.41l65.62,0,82.93-57.72v57.7h39.18c28.14,0,34.23-5.23,34.23-29.4S380.87,392.11,352.73,392.2ZM165,442.58c-6.23,0-9.95-3.48-9.95-9.33s3.72-9.34,9.95-9.35l39.62-.07v18.72ZM350.52,441l-26,0V402.18l26-.07c19-.06,25.39,2.68,25.39,19.39S369.42,441,350.52,441Z"></path>
    </g>
    <g id="_top" data-name=" top">
      <path class="cls-51" d="M386.23,421.48c0-23.69-5.8-28.62-33.5-28.53l-38.45.12v57.08h38.45C380.43,450.13,386.23,445.17,386.23,421.48Zm-62.42,20.26v-40.3l26.72-.08c19.26-.05,26.11,3,26.11,20.14s-6.85,20.21-26.11,20.22Z"></path>
      <path class="cls-52" d="M205.35,411.21v5.51L165,416.8c-13.87,0-20.21,5.28-20.21,16.72s6.34,16.68,20.21,16.67h49.94V412.27c0-15.73-3.78-18.87-22.64-18.81l-41.83.13v6.87l41.83-.12C199.94,400.32,205.35,401.08,205.35,411.21Zm0,32.08-40.35,0c-6.59,0-10.68-3.86-10.68-10.07s4.09-10.08,10.68-10.09l40.35-.07Z"></path>
      <polygon class="cls-53" points="269.13 393.21 233.04 393.33 233.04 401.69 257.07 401.62 269.13 393.21"></polygon>
      <polygon class="cls-54" points="296.13 450.15 296.13 441.76 272 441.78 259.94 450.16 296.13 450.15"></polygon>
      <path class="cls-55" d="M106,393.73,30.82,394v56.26h10V402.54l34.94-.1v47.78H85.81V402.41l19.74-.05c11.2,0,15.37,4,15.37,14.88v33H131V416.9C131,398.23,126.08,393.67,106,393.73Z"></path>
      <path class="cls-56" d="M446.36,392.65l-41.79.13,0,7,41.79-.12c7.63,0,13,.75,13.06,11v5.59l-40.31.08c-13.86,0-20.19,5.34-20.17,16.93s6.38,16.9,20.24,16.89h49.9L469,411.7C469,395.76,465.2,392.58,446.36,392.65Zm-27.17,50.5c-6.59,0-10.69-3.91-10.7-10.2s4.07-10.21,10.66-10.22l40.32-.07,0,20.46Z"></path>
      <polygon class="cls-57" points="312.43 393.09 298.79 393.12 216.74 450.19 230.4 450.17 312.43 393.09"></polygon>
    </g>
    <path class="cls-58" d="M445.92,388.11l-45.22.21,3.66,3.72,41.56-.19c19.6-.07,23.84,3.45,23.84,19.83v39.2l3.74,3.74V411.67C473.5,392,468.89,388,445.92,388.11Z"></path>
    <path class="cls-59" d="M230.62,450.91l-65.63,0c-14.29,0-20.93-5.52-20.93-17.41S150.7,416.1,165,416.07l39.63-.09L201,412.3l-36,.09c-16.29,0-24.57,7.16-24.57,21.14s8.28,21.09,24.57,21.09l66.76,0Z"></path>
    <g id="_high_light" data-name=" high light">
      <path class="cls-60" d="M106,389.32V393c20.41-.07,25.7,4.85,25.7,23.9h3.68C135.41,394.67,129.62,389.24,106,389.32Z"></path>
      <path class="cls-61" d="M446.35,388.16v3.74c19.2-.06,23.36,3.45,23.4,19.8h3.67C473.38,392,468.85,388.08,446.35,388.16Z"></path>
      <path class="cls-62" d="M419.13,411.81c-16.29,0-24.56,7.26-24.53,21.42h3.64c0-12,6.61-17.65,20.9-17.68Z"></path>
      <path class="cls-63" d="M215.67,412.27h3.67c0-19.43-4.51-23.31-27-23.23v3.69C211.52,392.66,215.67,396.13,215.67,412.27Z"></path>
      <path class="cls-64" d="M165,416.06v-3.68c-16.3,0-24.58,7.17-24.58,21.14h3.64C144.06,421.63,150.7,416.09,165,416.06Z"></path>
      <path class="cls-65" d="M387,421.48h3.67c0-26.34-7.77-33.09-37.9-33v3.72C380.87,392.11,387,397.31,387,421.48Z"></path>
    </g>
  </g>
  <path class="cls-18" d="M250.19,347.23c-62,0-112.85-14.1-143.3-39.7C77.27,282.64,62,245.88,60.22,195.12c-1.64-46.93,17.64-91.57,50.32-116.52C141.48,55,185.58,44,249.34,44,315,44,359.44,55,389.21,78.82c31.67,25.29,51.25,71.05,49.87,116.58-1.53,50.79-16.56,86.28-47.3,111.7C360.51,333,310.23,347.23,250.19,347.23ZM250,65.66c-17.38,0-34,1.44-46.92,4.07-21.71,4.43-33.07,9-48.65,19.45-40.1,27-48.52,71.72-48.52,104.49,0,50,16.71,86.35,49.67,108.15,20.42,13.48,49.59,19.48,94.6,19.48,41.82,0,67.47-5.41,91.51-19.3,23.68-13.67,51.9-43.62,51.9-108.62,0-47.75-16.22-82.81-48.23-104.2-15-10-24.65-14.47-48.81-19.47-12.68-2.61-29.2-4-46.54-4Z"></path>
  <path class="cls-18" d="M250.67,264c-2.92,0-3.73-1.83-6.44-7.9-1.2-2.71-3-6.8-5.77-12.28a104.65,104.65,0,0,0-53.68-49.48c-6.47-2.6-15.4-5.25-24-7.81l-.12,0c-17.72-5.27-37.8-11.25-52.92-20.26l-.56-9.51V132.53l16.18-10.89a158.13,158.13,0,0,0,19.87,10.71c5,2.27,10.5,4.69,16.14,7.17l.32.14c19.16,8.45,40.89,18,49.71,24.36a134.32,134.32,0,0,1,37.56,42.48c1.31,2.35,2.4,3.19,3,3.19s1.69-.72,3.07-3.4c9.22-18,25.61-34.58,37.76-43,11.73-8.09,31.59-16,49.12-23.06l.14-.06c8.07-3.23,15.7-6.29,21.47-9a114.39,114.39,0,0,0,15.59-8.64L392.34,132v24.64l-.55,9c-10.28,6-16.5,9.6-41.7,16.08l-1.25.32c-45.86,11.67-75.15,32.44-87.06,61.73-1.41,3.48-2.52,6.56-3.4,9l-.17.47C255.68,260.41,254.41,264,250.67,264Z"></path>
  <path id="in_sf_base" data-name="in sf base" class="cls-66" d="M206.79,319.31C167.07,313.77,105.7,292.8,105.7,192c0-57.63,25.79-126.62,144.49-126.62C357.32,65.34,393.9,123,393.9,191.75c0,94.94-55,119.7-100.3,127.18C271.5,322.58,232.66,322.92,206.79,319.31ZM419.9,192.61c0-76.86-36.17-140.5-169.29-140.5-139.82,0-169.28,77.09-169.28,140.66,0,106.41,71.4,132.23,123.32,138.37,26.29,3.11,64.36,2.92,88.72.05C344.83,325.17,419.9,299.52,419.9,192.61Z"></path>
  <path id="in_sf_base-2" data-name="in sf base" class="cls-67" d="M206.79,319.31C167.07,313.77,105.7,292.8,105.7,192c0-57.63,25.79-126.62,144.49-126.62C357.32,65.34,393.9,123,393.9,191.75c0,94.94-55,119.7-100.3,127.18C271.5,322.58,232.66,322.92,206.79,319.31ZM419.9,192.61c0-76.86-36.17-140.5-169.29-140.5-139.82,0-169.28,77.09-169.28,140.66,0,106.41,71.4,132.23,123.32,138.37,26.29,3.11,64.36,2.92,88.72.05C344.83,325.17,419.9,299.52,419.9,192.61Z"></path>
  <path class="cls-68" d="M250.8,54.37V64c-108.25.26-145.1,57.46-145.1,130,0,66.16,28.57,99.73,61,114.8,36.33,16.9,78.56,13.93,58.7,21.52-4.85,1.85-8.89,4.9-26.36,2.85-51.46-6-117.25-31.4-117.25-138.31C81.78,118.06,117.91,54.46,250.8,54.37Z"></path>
  <path id="out_sf_base" data-name="out sf base" class="cls-69" d="M438.14,195.74c0,40.91-13.77,83.31-46.73,110.58-34.52,28.56-88.18,40.61-141.79,40.61-57.46,0-107.14-10.86-144.64-42.39-29.79-25.06-44.17-69.72-44.17-109.29,0-43.11,13.86-88.82,50-116.43C144,53.49,203,44.27,249.4,44.27c53.26,0,104.87,8.71,139.3,36.19C422.16,107.19,438.14,153.45,438.14,195.74Zm-19-1.42c0-71.44-41.67-140.5-169.27-140.5C110,53.82,80.54,130.9,80.54,194.48c0,108.46,74.17,133.2,126.3,138.7a396.6,396.6,0,0,0,87.13-.11C324.76,329.65,419.11,309.11,419.11,194.32Z"></path>
  <path class="cls-70" d="M84.46,159.06c6.48-18.54,14.62-49.22,38.48-70.4,26.9-23.87,74.18-32.31,88.06-33.92-5.42-3.17-8.26-3.84-16.25-6.41C155.85,54,123,64.79,99.43,89.51S65.94,145.23,62.8,165.88C70.93,162.9,74.2,162.18,84.46,159.06Z"></path>
  <path id="in_up_right" data-name="in up right" class="cls-71" d="M248.49,60.16c45.09,0,88.05,7.7,115,42.32-41.25-51.09-180.61-52.29-226.56,0C163.84,71.75,203.38,60.16,248.49,60.16Z"></path>
  <path id="in_up_right-2" data-name="in up right" class="cls-72" d="M250.19,326.27c-49.27,0-78.25-6.22-103-28.85-3.08-2.83-2.88-2.66.64-.11,7.12,5.14,15.75,10.75,25.33,14.32,22.59,8.42,50.94,10.8,77.13,10.8s48.86-2.71,69.07-9.09c14.6-4.62,25.86-12.66,36-20.2,3.63-2.72,4-2.58.71.29C329,316.75,297.32,326.27,250.19,326.27Z"></path>
  <path class="cls-73" d="M424.39,261c2.35-5.23,2.2-4.85,3.21-8.16.43-1.45-.39.88-1.37,2.71a26,26,0,0,1-2.91,4.93c-2,2.74-2.55,3-6.19,5.33-2.91,1.84-6.54,3-12.3,6.2-1.48.82-2.2,1.4-5.23,5.34-2.19,2.83-4.52,6.07-5.73,7.46-3.75,4.32-13.69,12.28-19.14,17.06-4.76,4.15-3.16,4.45,3.56,2.13,6-2.08,14.94-5.79,20.22-8a20.75,20.75,0,0,0,7.17-5C412.2,283.42,419.84,271.11,424.39,261Z"></path>
  <path class="cls-74" d="M81.33,194.18C81.33,159.8,93.49,115,122.79,89c26.9-23.87,72.91-32.8,86.78-34.41-5.41-3.17-8.27-3.84-16.24-6.41-38.9,5.7-71.92,17-95.47,41.75C72.74,116.32,61,159.6,60.38,188.62,67.23,190.62,72.35,192,81.33,194.18Z"></path>
  <path id="in_line" data-name="in line" class="cls-75" d="M250,65.71h0c17.35,0,33.87,1.44,46.52,4.05,24.17,5,33.79,9.45,48.8,19.47,32,21.37,48.2,56.42,48.2,104.16,0,65-28.21,94.9-51.87,108.56-24,13.89-49.67,19.3-91.48,19.3-45,0-74.17-6-94.57-19.48C122.68,280,106,243.61,106,193.67c0-32.76,8.43-77.47,48.51-104.44,15.56-10.48,26.91-15,48.62-19.44C216,67.16,232.63,65.71,250,65.71Zm0-.42c-16.78,0-33.62,1.35-47,4.08-21.51,4.39-33.12,9-48.77,19.5-37.92,25.52-48.68,67.5-48.68,104.8,0,51.25,17.23,86.9,49.83,108.45,23.63,15.61,57.48,19.56,94.8,19.56,38.55,0,65.86-4.42,91.69-19.35C371.75,285.06,394,251.13,394,193.39c0-44.17-14.15-81.64-48.39-104.52-15.41-10.3-25.13-14.6-48.94-19.52-13.07-2.7-29.81-4.06-46.62-4.06Z"></path>
  <path id="in_line-2" data-name="in line" class="cls-76" d="M250,65.29c16.81,0,33.55,1.36,46.62,4.06,23.81,4.92,33.53,9.22,48.94,19.52C379.81,111.75,394,149.22,394,193.39c0,57.74-22.21,91.67-52.08,108.94-25.83,14.93-53.14,19.35-91.69,19.35-37.32,0-71.17-3.95-94.8-19.56-32.6-21.55-49.83-57.2-49.83-108.45,0-37.3,10.76-79.28,48.68-104.8C169.89,78.33,181.5,73.76,203,69.37,216.39,66.64,233.23,65.29,250,65.29Zm0-.86h0c-17.46,0-34.21,1.46-47.17,4.1-21.89,4.46-33.36,9-49.08,19.63-40.55,27.29-49.06,72.44-49.06,105.51,0,50.4,16.9,87.14,50.22,109.17,20.62,13.62,50,19.69,95.27,19.69,42.06,0,67.89-5.46,92.13-19.46,23.95-13.84,52.49-44.11,52.49-109.68,0-48.2-16.4-83.6-48.76-105.23C330.9,78,321.18,73.55,296.8,68.51c-12.72-2.63-29.34-4.08-46.78-4.08Z"></path>
  <path id="outline" class="cls-75" d="M249.34,44.34c55.24,0,105.8,7.75,139.63,34.77s51,74.56,49.74,116.27c-1.42,47.17-14.2,84.17-47.16,111.44-34.52,28.55-87.75,40-141.36,40-53.89,0-108.66-10.68-143.07-39.61C75.7,280.83,62.24,242,60.6,195.11,59,149,77.26,104.46,110.76,78.89,147.75,50.65,200.34,44.34,249.34,44.34Zm0-.43c-63.77,0-107.89,11-138.84,34.64-32.68,25-52,69.62-50.34,116.57,1.79,50.76,17,87.56,46.7,112.46,30.46,25.6,81.36,39.7,143.33,39.7,60,0,110.34-14.25,141.62-40.13,30.75-25.44,45.79-60.95,47.32-111.75,1.38-45.55-18.21-91.33-49.89-116.62C359.46,55,315,43.91,249.34,43.91Z"></path>
  <path id="outline-2" data-name="outline" class="cls-77" d="M249.34,45.2c65.35,0,109.56,11,139.11,34.58,31.37,25,50.76,70.42,49.4,115.58-1.52,50.4-16.42,85.62-46.86,110.8C359.94,331.85,309.94,346,250.19,346c-61.68,0-112.28-14-142.52-39.41-29.33-24.66-44.46-61.15-46.22-111.51-1.63-46.54,17.47-90.8,49.84-115.51C142,56.12,185.86,45.2,249.34,45.2Zm0-.86c-49,0-101.59,6.31-138.58,34.55C77.26,104.46,59,149,60.6,195.11c1.64,46.87,15.1,85.72,46.52,112.14,34.41,28.93,89.18,39.61,143.07,39.61,53.61,0,106.84-11.49,141.36-40,33-27.27,45.74-64.27,47.16-111.44C440,153.67,422.83,106.14,389,79.11S304.58,44.34,249.34,44.34Z"></path>
  <path class="cls-78" d="M347.23,71.27c8,1.1,36.71,7.34,46.45,13.26,9.26,5.62,7.7,5.84,7.7,5.84l-17.25,6.55S372,83.38,347.23,71.27Z"></path>
  <path class="cls-79" d="M150.8,70.85c-17.11,4.06-40.09,9.91-49.16,15.81-4.28,2.78-16,18.17-16,18.17l16.67-13.89c8.13-2.14,8.55-2.57,14.76-4.06,6.91-1.67,10.84-2.2,18.45-7.3S167.9,66.79,150.8,70.85Z"></path>
  <path class="cls-18" d="M250.52,336.45A409.12,409.12,0,0,1,196,332.5C152.63,326.76,79.83,301.13,79.83,194c0-63.2,30.39-110.39,83.36-129.47C186.16,56.23,215.5,52,250.41,52c62.73,0,107.5,15.3,136.86,46.79,22.1,23.68,32.83,54.76,32.83,95,0,101.54-66.77,131.83-122.81,139.36A344.75,344.75,0,0,1,250.52,336.45ZM250.41,54.6c-34.61,0-63.66,4.15-86.35,12.32C112.17,85.62,82.4,131.93,82.4,194c0,99.93,62,129.1,114,136,38.62,5.1,66,5.32,100.58.68,55-7.39,120.61-37.14,120.61-136.82,0-39.55-10.52-70.06-32.14-93.24C356.55,69.64,312.38,54.6,250.41,54.6Z"></path>
  <path class="cls-80" d="M250.53,336.87h0A411.06,411.06,0,0,1,196,332.93c-31.79-4.21-57.74-15.41-77.18-33.3C92.65,275.58,79.41,240,79.41,194c0-63.39,30.48-110.72,83.63-129.87,23-8.29,52.41-12.5,87.37-12.5,62.86,0,107.73,15.35,137.17,46.92,22.18,23.78,32.95,54.95,32.95,95.29,0,101.85-67,132.23-123.18,139.78A342,342,0,0,1,250.53,336.87Zm-.12-284.41c-34.86,0-64.16,4.19-87.08,12.45C110.54,83.93,80.26,131,80.26,194c0,45.8,13.16,81.15,39.11,105,19.3,17.77,45.11,28.9,76.71,33.07A406.39,406.39,0,0,0,250.53,336h0a342,342,0,0,0,46.71-3.25c55.85-7.52,122.44-37.71,122.44-138.94,0-40.11-10.7-71.1-32.72-94.7C357.68,67.72,313,52.46,250.41,52.46Z"></path>
  <path class="cls-16" d="M250.41,54.6c-34.61,0-63.66,4.15-86.35,12.32C112.17,85.62,82.4,131.93,82.4,194c0,99.93,62,129.1,114,136a407.67,407.67,0,0,0,54.17,3.93h0a339.39,339.39,0,0,0,46.41-3.25c55-7.39,120.61-37.13,120.61-136.82,0-39.55-10.52-70-32.14-93.24C356.55,69.64,312.38,54.6,250.41,54.6Z"></path>
  <path class="cls-81" d="M73.92,256.09c1.14,2.42,2.26,6,6.69,8,3.43,1.54,6.17,2.68,9.61,4,5.52,2.15,9.75,9.5,13.34,14.25s14.77,15,20.38,19.63c8.38,6.84,23.81,16.07,35.61,20.87.86.34,33.07,13.75,29.5,16.89-1,.91-30.68-7.5-32.06-7.91-25.41-7.72-52.29-23.14-70.17-48.81-2.42-3.47-11.33-19.66-13.33-26.21C72.23,252.66,72.48,253,73.92,256.09Z"></path>
  <path class="cls-82" d="M415.49,159.47C409,141,400.87,110.26,377,89.09,350.11,65.22,302.83,56.78,289,55.17c5.41-3.17,8.26-3.85,16.25-6.41,38.9,5.7,71.91,17,95.47,41.75,19.77,20.77,28.44,45,32.9,64.84C426.74,157.34,424.45,157.34,415.49,159.47Z"></path>
  <path id="wing_low_sf" data-name="wing low sf" class="cls-83" d="M303.87,170.82a3.8,3.8,0,0,0-.45.22c-9,4.48-52.24,51.94-53.31,53s-47.3-36.41-48.16-37.91-79.58-29.85-79.58-29.85l-19-1.71s1.28,4.91,6.19,11.75c19.78,12.5,58.93,21,79.2,29.13,24.53,9.87,41.61,32.18,50.55,48.15,6,10.69,7.15,20.09,11.32,20.09s6.52-9.94,9.31-16.36c13.78-31.82,30.71-50.87,90.09-65.94,36.61-9.29,41.89-16.92,41.89-16.92L399.74,146S315,166,303.87,170.82Z"></path>
  <path class="cls-84" d="M100.29,148.88a145.53,145.53,0,0,0,8.4,17.41,154.45,154.45,0,0,0,20.84,8.65c26.35,8.71,59.63,13.58,69.22,18.17,34.54,16.54,42.49,32,50.59,45.59-3.56-9-6.69-17.35-19.11-32.77-17.92-22.27-29.44-27.42-55.14-36.9-8.85-3.27-21.16-8.13-36.05-13.68a247.41,247.41,0,0,1-45.25-23.21C93.64,132,97.69,142.09,100.29,148.88Z"></path>
  <path class="cls-85" d="M272.28,180.5c7-7.91,12.45-13.22,25.59-21,24.38-14.45,62.22-22.31,87.4-41.67,16.82-12.93,21.45-19.49,21.45-19.49A48.79,48.79,0,0,1,408.83,111a78.89,78.89,0,0,1-.05,12.38,44.77,44.77,0,0,1-1.52,7.88c-11.72,7.86-28.1,17.07-43.2,22.7s-29.3,10.55-38.27,13.89c-38.74,14.51-55.59,36.49-68.24,59.16-5.87,10.54-7.34,11.87-7.34,11.75,0-.43-.08-24.87-.08-28.48.28,0,.63,0,2.35-3A190,190,0,0,1,272.28,180.5Z"></path>
  <path class="cls-86" d="M406,132.19c-11.55,7.75-31.64,17-46.52,22.58s-23.66,8-32.5,11.26c-24.92,9.19-40.76,18.78-59.13,41.6-12.42,15.44-14.43,23.7-17.34,30.57,0,4,.24,24.69.24,24.69a2.4,2.4,0,0,0,2.36-1.33c.42-.65.06-7.29-.05-12.13-.08-4,.25-5.12,2.39-9.05,1.66-3.06,3.56-6.5,4.85-8.51,10.43-16.22,30.11-28.51,49.44-37.77C326.63,186,352.1,180.6,369,175a190.38,190.38,0,0,0,22.42-9.26A78.72,78.72,0,0,0,399,151C401.64,144.25,406.16,132.09,406,132.19Z"></path>
  <path class="cls-87" d="M246.34,207.63c1.68,3,3.19,2.71,3.79,2.71,0,4.49.11,27.88.12,28.32,0,.12-.49-1.51-6.36-12.06-23.35-41.82-45.82-49.86-66.91-57.76-8.95-3.34-25.61-9.75-40.72-15.38s-32.1-15.2-43.85-23c-.69-.45.17-2.9-.31-7.1a96.37,96.37,0,0,1-.28-13.59,58.17,58.17,0,0,1,1.7-12.4s7.87,11.26,25.76,22.65a253.11,253.11,0,0,0,37.29,19.46c15.79,6.58,32,13.66,45.31,21.59a101.51,101.51,0,0,1,26.93,22.22A137.72,137.72,0,0,1,246.34,207.63Z"></path>
  <path class="cls-88" d="M214.56,169.6c10.68,11.25,15.39,16.52,22.79,30.77,5.1,9.77,6.14,10.55,12.55,35.34l-1.63-24.44s-8.84-13.89-14.4-20.87C228.48,183.63,220.83,175,214.56,169.6Z"></path>
  <path class="cls-75" d="M250.67,264c-2.94,0-3.78-1.84-6.49-7.93-1.3-2.93-3.08-6.92-5.77-12.27a104.55,104.55,0,0,0-53.64-49.45c-6.39-2.57-15-5.12-24.05-7.82-17.77-5.29-37.91-11.27-53.07-20.31l.45-.75c15.05,9,35.14,15,52.86,20.24,9.11,2.71,17.71,5.27,24.13,7.85a105.41,105.41,0,0,1,54.08,49.85c2.69,5.37,4.49,9.39,5.79,12.31,2.8,6.26,3.39,7.43,5.71,7.43,3.18,0,4.31-3.16,6.79-10.09.93-2.59,2.07-5.81,3.59-9.54,7.7-18.94,22.72-34.52,44.66-46.29,17.65-9.47,34.72-13.83,42.93-15.92l1.26-.31c25.12-6.45,31.29-10.06,41.52-16l.42.74c-10.28,6-16.49,9.62-41.73,16.11l-1.26.32c-45.85,11.67-75.12,32.43-87,61.69-1.5,3.71-2.65,6.92-3.58,9.5C255.72,260.45,254.45,264,250.67,264Z"></path>
  <path class="cls-89" d="M250.72,263.33c-2.76,0-3.56-1.82-6.21-7.82-1.32-3-3.15-7.13-5.92-12.65a104.67,104.67,0,0,0-53.75-49.56c-6.28-2.53-14.72-5-23.66-7.52-17.93-5.16-38.25-11-53.67-20.65l.22-.36c15.37,9.62,35.66,15.45,53.57,20.6,8.94,2.57,17.39,5,23.7,7.54a105.13,105.13,0,0,1,54,49.77c2.77,5.52,4.6,9.64,5.92,12.66,2.63,6,3.34,7.55,5.82,7.55,3.27,0,4.44-3.37,6.8-10.09,1-2.73,2.14-6.13,3.73-10.05,7.68-18.89,22.66-34.42,44.55-46.17,17.62-9.46,34.67-13.81,42.88-15.89l1.27-.33c25.3-6.51,32.29-10.18,42.45-16.11l.23.37c-9.91,5.77-17.25,9.64-42.57,16.15l-1.27.33c-45.91,11.7-75.23,32.5-87.14,61.81-1.59,3.92-2.77,7.3-3.73,10C255.5,259.85,254.28,263.33,250.72,263.33Z"></path>
  <path class="cls-18" d="M250.19,239.05a1.3,1.3,0,0,1-1.18-.78A166,166,0,0,0,233.22,211c-6.77-9.62-13.75-15.95-19.93-21.54l-.41-.37c-5.83-5.3-12.79-10.7-33.67-18.57-3.35-1.26-7.89-2.9-12.88-4.71-11-4-24.68-8.93-31.54-12-4-1.79-7.14-3.13-9.72-4.25-10.78-4.64-12.72-5.47-31.81-17.54a1.28,1.28,0,0,1-.41-1.77,1.3,1.3,0,0,1,1.78-.4c18.92,12,20.84,12.78,31.44,17.36,2.61,1.12,5.73,2.46,9.75,4.25,6.78,3,20.42,7.95,31.38,11.92,5,1.81,9.56,3.46,12.9,4.72,21.31,8,28.48,13.59,34.51,19.06l.41.37c6.26,5.69,13.36,12.12,20.29,22a178.49,178.49,0,0,1,14.82,25.11,144.8,144.8,0,0,1,15.27-25.76,131.15,131.15,0,0,1,24.93-26c10.07-7.79,21.94-12.65,33.25-17,7.09-2.7,12.78-4.68,18.29-6.6a321.47,321.47,0,0,0,32-12.6c21.65-9.93,31.53-16.78,31.62-16.85a1.28,1.28,0,0,1,1.47,2.1c-.4.29-10.13,7-32,17.08a327.44,327.44,0,0,1-32.21,12.7c-5.48,1.9-11.15,3.88-18.21,6.56-11.12,4.25-22.81,9-32.58,16.6a128.34,128.34,0,0,0-24.43,25.49c-11.5,15.75-16.05,27.79-16.1,27.91a1.24,1.24,0,0,1-1.17.83Z"></path>
  <path class="cls-89" d="M249.9,211.35c-1.09,0-2.36-1.25-3.67-3.61a133.63,133.63,0,0,0-37.34-42.21c-8.79-6.32-30.62-15.94-49.88-24.42-5.77-2.54-11.22-4.94-16.16-7.18a168.4,168.4,0,0,1-21.11-11.54l.48-.71a165.44,165.44,0,0,0,21,11.47c4.91,2.24,10.37,4.64,16.14,7.18,19.3,8.5,41.16,18.14,50,24.5A134.55,134.55,0,0,1,247,207.32c1.3,2.34,2.37,3.16,2.93,3.16s1.65-.7,3-3.36c9.24-18.05,25.63-34.61,37.78-43,11.73-8.12,31.61-16.07,49.15-23.1,8.12-3.25,15.78-6.33,21.59-9a132.19,132.19,0,0,0,17.07-9.59l.49.71a133.76,133.76,0,0,1-17.2,9.65c-5.82,2.69-13.51,5.77-21.64,9-17.49,7-37.32,14.95-49,23-12.06,8.33-28.33,24.77-37.5,42.7C252.44,210,251.06,211.35,249.9,211.35Z"></path>
  <path class="cls-75" d="M249.9,210.49c-1.09,0-2.36-1.25-3.67-3.6a133.54,133.54,0,0,0-37.34-42.21c-8.79-6.32-30.62-15.94-49.88-24.43-5.77-2.54-11.22-4.94-16.16-7.17a155.85,155.85,0,0,1-20-10.8l.47-.71a155.9,155.9,0,0,0,19.9,10.73c4.91,2.23,10.36,4.63,16.13,7.17,19.3,8.5,41.17,18.13,50,24.51A134.44,134.44,0,0,1,247,206.47c1.3,2.34,2.37,3.16,2.93,3.16s1.65-.7,3-3.36c9.23-18.06,25.63-34.61,37.78-43,11.73-8.1,31.59-16.05,49.12-23.07,8.13-3.26,15.81-6.33,21.62-9a112.68,112.68,0,0,0,15.61-8.66l.5.7a114.16,114.16,0,0,1-15.75,8.73c-5.82,2.7-13.52,5.78-21.65,9-17.5,7-37.32,14.94-49,23-12.06,8.34-28.33,24.78-37.5,42.71C252.44,209.1,251.06,210.49,249.9,210.49Z"></path>
  <polygon class="cls-18" points="250.44 234.25 249.87 211.49 250.67 211.49 250.44 234.25"></polygon>
  <path class="cls-18" d="M117.4,96.87a119.92,119.92,0,0,1,46.66-29.95c22.69-8.17,51.74-12.32,86.35-12.32C310.6,54.6,354,68.79,382.86,97.94c0,0,.34.29.68.62.62-.37,1.76-1.49,2.07-1.51-.34-.38-.68-.65-.77-.76C355.45,66.52,311.42,52,250.41,52c-34.91,0-64.25,4.19-87.22,12.47A122.35,122.35,0,0,0,115,95.67s-.21.11-.12.22a7.18,7.18,0,0,0,.85.57,6.71,6.71,0,0,0,1.23.85C117.08,97.36,117.33,97,117.4,96.87Z"></path>
  <path class="cls-90" d="M383.49,99.09l-.23-.22-.57-.5c-.06-.07-.13-.11-.13-.12C353.75,69.17,310.52,55,250.41,55c-34.56,0-63.56,4.13-86.21,12.3a119.1,119.1,0,0,0-46.49,29.84c-.22.3-.43.57-.75.57h0l-.15,0a3.33,3.33,0,0,1-1-.62l-.39-.3-.36-.23a2,2,0,0,1-.58-.41L114.4,96v-.26a.61.61,0,0,1,.31-.41A122.51,122.51,0,0,1,163,64.11c23-8.29,52.41-12.5,87.37-12.5,61.18,0,105.26,14.52,134.72,44.38l.13.12a6.5,6.5,0,0,1,.66.65l.58.63-.85.08c-.08,0-.53.4-.83.65a9.7,9.7,0,0,1-1.05.81ZM250.41,54.17c60.35,0,103.77,14.22,132.76,43.47l.09.08.33.3c.2-.16.46-.36.69-.56l.64-.51-.22-.21a.92.92,0,0,1-.17-.15C355.22,66.9,311.35,52.46,250.41,52.46c-34.86,0-64.16,4.19-87.08,12.45a122,122,0,0,0-47.88,30.88l.08,0,.43.27.42.32c.17.14.37.29.52.39l.07-.09.13-.16a120.28,120.28,0,0,1,46.81-30C186.65,58.33,215.75,54.17,250.41,54.17Z"></path>
  <path class="cls-18" d="M405,130.06c-2.07,1.39-12,7.76-31.2,16.57a321.47,321.47,0,0,1-32,12.6c-5.5,1.92-11.2,3.9-18.29,6.6-11.31,4.31-23.18,9.16-33.25,17a131.15,131.15,0,0,0-24.93,26,144.8,144.8,0,0,0-15.27,25.76,178.49,178.49,0,0,0-14.82-25.11c-6.93-9.84-14-16.27-20.29-22l-.41-.37c-6-5.47-13.2-11-34.51-19.06-3.34-1.26-8-2.94-12.88-4.71-11-4-24.62-8.92-31.4-11.93-4-1.79-7.19-3.15-9.75-4.25-10.48-4.52-12.48-5.39-30.8-17-1.9-1.18-2.8-.48-3.5,1.17C84,149.69,79.83,170.75,79.83,194c0,45.93,13.21,81.37,39.25,105.34,19.37,17.83,45.26,29,76.94,33.18a409.37,409.37,0,0,0,54.51,3.95h0a344.5,344.5,0,0,0,46.76-3.27c56-7.53,122.83-37.82,122.83-139.36,0-24-3.83-44.7-11.59-62.55C407.7,129.35,406.27,129.24,405,130.06ZM296.94,330.64a339.39,339.39,0,0,1-46.41,3.25h0A407.67,407.67,0,0,1,196.36,330c-52-6.88-114-36-114-136,0-22.81,4-43.49,11.7-61.46,18.3,11.56,20.36,12.44,31,17,2.54,1.1,5.7,2.46,9.71,4.25,6.87,3.05,20.56,8,31.56,12,4.91,1.77,9.53,3.44,12.87,4.7,20.87,7.87,27.84,13.27,33.67,18.57l.42.37c6.17,5.59,13.15,11.92,19.92,21.54A166,166,0,0,1,249,238.27a1.3,1.3,0,0,0,1.18.78h0a1.28,1.28,0,0,0,1.19-.82c0-.13,4.57-12.17,16.08-27.92a128.35,128.35,0,0,1,24.43-25.49c9.77-7.58,21.46-12.35,32.58-16.6,7.06-2.68,12.73-4.66,18.23-6.58A320.72,320.72,0,0,0,374.91,149c18.87-8.66,28.68-14.86,31.3-16.59,7.6,17.51,11.34,37.87,11.34,61.45C417.55,293.51,352,323.25,296.94,330.64Z"></path>
  <path class="cls-91" d="M250.53,334.3h0a406.6,406.6,0,0,1-54.23-3.92C144.15,323.49,82,294.22,82,194c0-22.64,4-43.37,11.74-61.62l.2-.47.42.27c18.28,11.54,20.21,12.37,30.91,17,2.52,1.09,5.67,2.45,9.72,4.24,6.85,3.05,20.53,8,31.53,12,4.9,1.77,9.53,3.44,12.86,4.7,21,7.9,28,13.33,33.82,18.64l.41.38c6.18,5.61,13.19,11.95,20,21.61a161.35,161.35,0,0,1,15.83,27.41.87.87,0,0,0,.79.52.89.89,0,0,0,.81-.56c0-.12,4.54-12.13,16.12-28a128.77,128.77,0,0,1,24.53-25.58c9.82-7.62,21.54-12.4,32.69-16.65,7.08-2.7,12.76-4.67,18.24-6.59a321.05,321.05,0,0,0,32.15-12.67c18.86-8.65,28.68-14.86,31.25-16.56l.42-.28.2.47C414.25,149.84,418,170,418,193.82c0,100-65.8,129.82-121,137.24A341.92,341.92,0,0,1,250.53,334.3ZM94.3,133.15c-7.62,18-11.47,38.5-11.47,60.83,0,99.62,61.77,128.7,113.58,135.55a405.05,405.05,0,0,0,54.12,3.92h0a339.85,339.85,0,0,0,46.35-3.24c54.85-7.37,120.25-37,120.25-136.39,0-23.5-3.64-43.4-11.11-60.82-3.12,2-12.94,8.09-30.94,16.35A319.78,319.78,0,0,1,342.86,162c-5.48,1.92-11.15,3.89-18.21,6.59-11.11,4.22-22.75,9-32.48,16.53a127.33,127.33,0,0,0-24.35,25.42c-11.49,15.73-16,27.67-16,27.79a1.74,1.74,0,0,1-1.58,1.12h0a1.72,1.72,0,0,1-1.61-1.06,160.69,160.69,0,0,0-15.75-27.23c-6.73-9.58-13.7-15.9-19.85-21.47l-.42-.38c-5.8-5.25-12.73-10.63-33.54-18.48-3.33-1.25-8-2.93-12.85-4.7-11-4-24.71-8.95-31.59-12-4-1.79-7.19-3.15-9.71-4.23C114.48,145.44,112.25,144.47,94.3,133.15Z"></path>
  <path class="cls-92" d="M392.54,164.32a.19.19,0,0,1-.1,0,.21.21,0,0,1-.09-.29c0-.08,4.83-8.89,6.91-13.72s6.52-17.23,6.56-17.35a.21.21,0,0,1,.27-.13.24.24,0,0,1,.14.27c-.05.13-4.51,12.52-6.59,17.38s-6.86,13.67-6.9,13.76A.29.29,0,0,1,392.54,164.32Z"></path>
  <path class="cls-93" d="M93.09,98.44c.33-1.49.74-1.27.48,0-.86,4-1.1,11.58-.95,19.34a80.14,80.14,0,0,0,1.24,11.5,1.85,1.85,0,0,0-2,1.11C91,121.38,90.3,110.91,93.09,98.44Z"></path>
  <path class="cls-94" d="M407.36,99.77c-.33-1.49-.62-1.44-.36-.21.87,4,1.3,11.37,1.25,19.13a88.74,88.74,0,0,1-.88,11.07,4.37,4.37,0,0,1,1.49,2.08C410.22,118.16,409.14,107.75,407.36,99.77Z"></path>
  <path class="cls-95" d="M393.43,111l-15.05,11.72L372.87,114c3.64-5,9.42-13.93,10.11-14.88a9.4,9.4,0,0,1,3.89-2.73c1.44-.48,7.8-3.44,12.94-5.37l6.56,7.45Z"></path>
  <path class="cls-96" d="M106.94,109.85l15,11.72,5.51-8.73c-3.63-5-9.4-13.92-10.11-14.88a9.49,9.49,0,0,0-3.89-2.73c-1.43-.47-7.8-3.44-12.93-5.36L94,97.31Z"></path>
  <path class="cls-97" d="M127.87,113.06l-3.15,4.7c-1,1.52-2.93,4.63-2.93,4.63a194.13,194.13,0,0,1-16.18-12.5A92.43,92.43,0,0,1,93.52,97.35c1.31-1.5,6.62-7.08,6.62-7.08s-.38.49.79,1.84c3.62,4.22,18.07,16.5,24.15,20.41A3.1,3.1,0,0,0,127.87,113.06Z"></path>
  <path class="cls-18" d="M399.74,91c-2.53.91-11,4.06-12.95,4.81a2.91,2.91,0,0,1-3-.49C354.44,66.19,310.74,52,250.41,52c-34.91,0-64.25,4.19-87.22,12.47a122.85,122.85,0,0,0-46.54,29.42,2.24,2.24,0,0,1-2.16.68c-1.16-.39-11-3.65-13.8-4.86l-.26.27c2.32,1,11.82,5.34,13.1,5.76a9.15,9.15,0,0,1,3.68,2.58L127.89,113l.14-.17s-7.28-10.83-9.52-14.06a2.27,2.27,0,0,1,0-3,120.1,120.1,0,0,1,45.54-28.79c22.69-8.17,51.74-12.32,86.35-12.32C309.91,54.6,353,68.47,381.87,97a1.86,1.86,0,0,1,.34,2.57c-1.09,1.71-7.14,11.47-9.36,14.61l.11.19c2.4-3.37,10.15-14.63,10.36-14.92A10.61,10.61,0,0,1,387,96.82c.63-.27,10.31-4.48,12.87-5.7Z"></path>
  <path class="cls-98" d="M372.82,114.27l5.9,9a172.1,172.1,0,0,0,16-12.26c6.7-5.91,6.47-6.21,12.09-12.54l-6.78-7.8s.31,1.28-1.18,3c-3.59,4.12-17.33,16-23.41,20A3,3,0,0,1,372.82,114.27Z"></path>
  <path class="cls-92" d="M107.79,164.69a.21.21,0,0,1-.18-.11c0-.09-4.86-8.91-6.92-13.76s-6.53-17.24-6.58-17.37a.21.21,0,0,1,.13-.27.21.21,0,0,1,.28.13c0,.12,4.49,12.5,6.56,17.34s6.85,13.64,6.9,13.73a.22.22,0,0,1-.09.3Z"></path>
</svg>
