<?xml version="1.0" encoding="UTF-8"?>
<svg xmlns="http://www.w3.org/2000/svg" id="Layer_1" data-name="Layer 1" viewBox="0 0 500 500">
  <defs>
    <style>.cls-1{fill:#14214a;fill-rule:evenodd;}</style>
  </defs>
  <path class="cls-1" d="M250,25c124.26,0,225,100.74,225,225S374.26,475,250,475,25,374.26,25,250,125.74,25,250,25Zm97.08,44.4L274.4,232.18l0,0,0,0v0l0,0,0,0v0l0,0,0,0,0,0v0l0,0,0,0,0,0v0l0,0h0l-.85,1.89c-1.54,3.46-3.67,4.75-7.32,4.75H234c-3.65,0-5.78-1.29-7.32-4.75l-.85-1.89h0l0,0v0l0,0,0,0,0,0v0l0,0,0,0,0,0v0l0,0,0,0v0l0,0,0,0L152.92,69.4a205.94,205.94,0,0,0-75.73,70.28l104.35,211.5h0l0,0,0,0v0h0l0,.07,0,0,0,0,0,.05,0,.07,0,0,0,0,0,.05,0,.07h0l0,.07,0,0,0,.08h0l0,.07v0l0,.08h0l0,.07v0l.05.08h0l0,.05c.91,1.86,2.62,1.91,3.51-.06h0v-.12h0v-.1h0V352h0v-.12h0v-.1h0v-.1h0v-.1h0v-.12h0v-.1h0v-.1h0v0l38.71-86.7,0-.05.09-.21.08-.18.08-.17h0L226,262c1.55-3.46,3.67-4.75,7.32-4.75h33.38c3.65,0,5.77,1.29,7.32,4.75l.83,1.87h0l.08.17.08.18.09.21,0,.05,38.71,86.7v0h0v.1h0v.1h0v.12h0v.1h0v.1h0v.1h0V352h0v.1h0v.1h0v.12h0c.89,2,2.6,1.92,3.51.06l0-.05h0l.05-.08v0l0-.07h0l0-.08v0l0-.07h0l0-.08,0,0,0-.07h0l0-.07,0-.05,0,0,0,0,0-.07,0-.05,0,0,0,0,0-.07h0v0l0,0,0,0h0l104.35-211.5A205.94,205.94,0,0,0,347.08,69.4ZM250,205.53c.73,0,1.45-.58,2-1.76v0l0,0v-.06l0,0v-.06l0,0v-.06l0,0v-.06l0,0v0l0,0v-.06l0,0v-.06l0,0V203l0,0v0l0,0v-.06l0,0v-.06l0,0v-.06l0,0,0-.06v0l0-.07v0l0-.09v0l0-.06,0,0,0-.09v-.06l0,0,0-.06,0,0v-.07l0,0v0l0-.06h0L317.76,56.46a206.05,206.05,0,0,0-135.52,0l64.91,145.36h0l0,.06v0l0,0V202l0,0,0,.06,0,0v.06l0,.09,0,0,0,.06v0l0,.09v0l0,.07v0l0,.06,0,0v.06l0,0v.06l0,0V203l0,0v0l0,0v.06l0,0v.06l0,0v.06l0,0v0l0,0v.06l0,0v.06l0,0v.06l0,0v0l0,0v.06c.53,1.18,1.25,1.76,2,1.76Zm191-30.2L321.79,416.88l-.09.18-.08.16v0l-.14.29-.06.1-.1.21-.09.18-.64,1.3c-2.5,5.07-9.12,5.14-11.41,0l-.56-1.26,0,0,0,0,0,0v0l0,0,0,0,0,0v0l0,0,0,0,0,0v0l0,0,0,0,0,0v0l0,0,0,0,0,0,0,0v0l0,0,0,0,0,0v0l0,0,0,0,0,0v0l0,0,0,0,0,0L252.85,293.21l0,0,0-.05,0,0,0-.07,0-.05,0-.06,0,0v0l0-.06v0l0-.06,0-.05,0-.08v0l0-.06,0,0v0l0-.07h0l-.47-1.05c-.52-1.17-1.25-1.75-2-1.75s-1.45.58-2,1.75l-.47,1.05h0l0,.07v0l0,0,0,.06v0l0,.08,0,.05,0,.06v0l0,.06,0,0v0l0,.06,0,.05,0,.07,0,0,0,.05,0,0L192,416.82l0,0,0,0,0,0v0l0,0,0,0,0,0v0l0,0,0,0,0,0v0l0,0,0,0,0,0,0,0v0l0,0,0,0,0,0v0l0,0,0,0,0,0v0l0,0,0,0,0,0v0l0,0,0,0,0,0-.56,1.26c-2.29,5.14-8.91,5.07-11.41,0l-.64-1.3-.09-.18-.1-.21-.06-.1-.14-.29v0l-.08-.16-.09-.18L59,175.33A204.55,204.55,0,0,0,45,250c0,113.22,91.78,205,205,205s205-91.78,205-205a204.55,204.55,0,0,0-14-74.67Z"></path>
</svg>
