<?xml version="1.0" encoding="UTF-8"?>
<svg xmlns="http://www.w3.org/2000/svg" id="Layer_1" data-name="Layer 1" viewBox="0 0 500 500">
  <defs>
    <style>.cls-1{fill:#1e1111;}.cls-2{fill:#1e1011;}.cls-3{fill:#1a1111;}.cls-4{fill:#1b1111;}.cls-5{fill:#1d1011;}.cls-6{fill:#1c1212;}.cls-7{fill:#1b1110;}.cls-8{fill:#1d1211;}.cls-9{fill:#666161;}.cls-10{fill:#7a7576;}.cls-11{fill:#726e6d;}.cls-12{fill:#fbfbf9;}</style>
  </defs>
  <path class="cls-1" d="M183.71,406.48c22.95,9.58,47,14.82,71.72,13.2,71.64-4.69,122.94-39.42,152-105.65,3.8-8.65,3.56-8.75,13.12-8.73q18.69,0,37.39.06c1.88,0,3.65-.25,3.74,2.56.07,2.55-.66,3.73-3.42,4-7.1.64-14.19,1.32-21.23,2.54-6.85,1.19-11.54,5-14.54,11.05-4.7,9.53-9.4,19-15.37,27.87q-37.28,55.15-100.65,75.49a181.13,181.13,0,0,1-75.71,7.76c-44.59-4.82-83-23.11-114.81-54.92a180.43,180.43,0,0,1-37.34-54.12c-4.12-9.18-11.07-13.2-20.59-14C52.5,313,47,312.22,41.42,311.77c-2.62-.21-3.15-1.49-3.14-3.8,0-2.73,1.65-2.71,3.61-2.71,14.68,0,29.35.09,44-.05,2.59,0,3.66,1.06,4.49,3.21,1.91,4.95,4,9.84,6,14.75a30.08,30.08,0,0,0,3.06,6.27,170.73,170.73,0,0,0,77.22,74C179,404.37,181.21,405.79,183.71,406.48Z"></path>
  <path class="cls-2" d="M435.73,194.79c-7.27,0-14.54,0-21.82,0-2.22,0-3.27-.62-4.13-2.95C398.84,162,381,136.9,356,117.16a170.86,170.86,0,0,0-221.64,8.31,163.15,163.15,0,0,0-43.55,65.35c-1.08,3-2.54,4.08-5.88,4-14.28-.25-28.56-.13-42.85-.12-2,0-3.74.29-3.82-2.82s1.52-3.27,3.75-3.52c7-.77,13.93-1.52,20.86-2.54,7.44-1.09,12.22-5.66,15.32-12.33A194.45,194.45,0,0,1,97.64,140q34.58-46.92,89.45-66.52c28.24-10.14,57.41-13.69,87-9.32C335.79,73.28,383,104.6,414.37,158.9c3.37,5.83,6.18,12,9.4,17.87,3.1,5.7,8.27,8.39,14.5,9.22,6.81.91,13.63,1.83,20.47,2.48,2.43.22,3,1.19,3,3.39.06,2.67-1.4,2.92-3.45,2.91-7.53,0-15.06,0-22.59,0Z"></path>
  <path class="cls-3" d="M301.33,252.27a16,16,0,0,1,.65,14.57c-2.43,5.66-6.77,9-12.88,9.07-16,.24-32,.12-47.93.23-2.19,0-3-.73-2.92-2.94.17-8.94-.77-7.57,7.34-7.58,12.59,0,25.19,0,37.79,0,5.58,0,8.4-1.82,8.42-5.36s-2.51-5.35-8.27-5.36c-10.52,0-21,.07-31.56-.09a14.47,14.47,0,0,1-13.86-9.51c-2.39-6.53-1-12.65,3.71-17.12,3.23-3,7.22-4,11.46-4,14.41-.06,28.83,0,43.24-.08,2.59,0,3.42.94,3.38,3.43-.11,7.92,1.25,7-6.55,7-12.86,0-25.72,0-38.58,0-3,0-5.44.74-5.91,4.23-.49,3.69,1.4,5.58,6,5.62q16,.12,31.95,0A18,18,0,0,1,295.1,246,13.5,13.5,0,0,1,301.33,252.27Z"></path>
  <path class="cls-4" d="M178.28,276.07c-7.79,0-15.59-.1-23.37.06-2.62.05-3.39-.83-3.3-3.36.3-8.12-1-7.14,7-7.15,13,0,26,0,39,0,5.34,0,7.81-2.27,7.15-6.37s-4-4.33-7.14-4.35c-9.87-.06-19.74,0-29.61,0a28.4,28.4,0,0,1-6.56-.69A14.86,14.86,0,0,1,150,239.34c.08-7.29,5.13-13.57,12-14.75a30.45,30.45,0,0,1,5-.44c14,0,28.05,0,42.08-.1,3,0,4.13.73,4,3.93-.21,6.5,0,6.5-6.68,6.5q-19.29,0-38.57,0c-4,0-6.08,1.73-6.14,4.85-.07,3.27,1.71,4.87,6,4.92,11.17.11,22.34,0,33.5.14,7.17.07,12.35,3.93,14.35,10.4,2.18,7.07-.07,14.48-5.59,18.47a13.9,13.9,0,0,1-8.36,2.69H178.28Z"></path>
  <path class="cls-5" d="M409.92,250.19c0-7.53.08-15.05-.05-22.58,0-2.63.78-3.37,3.51-3.69,7.85-.94,13.62,1.57,19,7.62,8.67,9.8,18.27,18.77,27.5,28.06.79.79,1.52,2.27,2.73,1.85s.68-2,.69-3.13c0-9.86.12-19.73-.09-29.58-.08-3.51.86-4.85,4.57-4.75,7.18.19,7.19,0,7.19,7.32,0,13.75-.07,27.5.06,41.26,0,2.72-.78,3.86-3.48,3.53a1,1,0,0,0-.39,0c-7.75,1.37-13.28-1.68-18.5-7.5-8.83-9.83-18.49-18.92-27.82-28.3-.8-.8-1.61-2.27-2.73-1.89-1.54.53-.78,2.27-.79,3.45-.06,10.25-.12,20.51,0,30.75,0,2.72-.77,3.54-3.5,3.53-7.87-.05-7.87.06-7.87-7.66V250.19Z"></path>
  <path class="cls-6" d="M37.31,238.36c-1.09,1.33-.57,2.95-.58,4.44,0,9.73-.12,19.47,0,29.21.05,2.91-.56,4.15-3.8,4.12-7.88-.06-7.88.1-7.88-7.74,0-13.5.09-27-.08-40.51,0-3.21,1.16-3.63,4.05-4,8-1,13.49,2.13,18.89,7.92,9.61,10.32,20.1,19.82,30.45,29.89.59-.19.2-1.23.21-2.06,0-10.39.12-20.78-.11-31.16-.07-3.37.81-4.61,4.3-4.53,8.56.19,7.15-.37,7.17,7,0,13.89,0,27.78.06,41.68,0,2.68-.8,3.25-3.49,3.58-7.74,1-13.33-1.65-18.61-7.5C58.72,258.5,48.66,249.07,39,239.3,38.51,238.84,38.14,238.29,37.31,238.36Z"></path>
  <path class="cls-7" d="M317,276c5.14-8.28,9.87-15.93,14.64-23.56,5.21-8.33,10.56-16.58,15.62-25,1.54-2.56,3.4-3.14,6.23-3.51,6.52-.85,9.9,2,13.08,7.47,8.18,13.94,17.06,27.47,25.62,41.19.56.9,1.86,1.8,1.1,3-.62,1-1.92.41-2.93.49-.51,0-1.05-.07-1.55,0-5.94,1-10.26-.85-12.47-6.79-.87-2.35-2.8-2.8-5.25-2.78-10.37.13-20.74.09-31.11,0a5,5,0,0,0-4.83,2.41c-1.59,2.43-2.37,6.24-5.21,6.86C326.05,276.62,321.82,276,317,276Z"></path>
  <path class="cls-8" d="M127.26,250.33c0,7.51-.09,15,0,22.53,0,2.56-.73,3.29-3.31,3.28-8.15,0-8.16.1-8.16-8,0-13.21.12-26.42,0-39.63-.05-3.3.68-4.62,4.25-4.47,8.67.36,7.12-.75,7.2,7.27C127.31,237.64,127.25,244,127.26,250.33Z"></path>
  <path class="cls-9" d="M301.33,252.27q-3.1-3.14-6.23-6.26A8.07,8.07,0,0,1,301.33,252.27Z"></path>
  <path class="cls-10" d="M183.71,406.48a11,11,0,0,1-7.06-3.08C179.4,403.51,181.58,404.93,183.71,406.48Z"></path>
  <path class="cls-11" d="M99.43,329.44a8.19,8.19,0,0,1-3.06-6.27A13.15,13.15,0,0,1,99.43,329.44Z"></path>
  <path class="cls-12" d="M355.54,257h-10.1c-2,0-2.7-.63-1.47-2.55,3.4-5.34,6.79-10.69,10.09-16.09,1-1.69,1.94-2,3-.26,3.45,5.47,6.83,11,10.25,16.46,1.35,2.17,0,2.41-1.7,2.42-3.37,0-6.74,0-10.11,0Z"></path>
</svg>
