<?xml version="1.0" encoding="UTF-8"?>
<svg xmlns="http://www.w3.org/2000/svg" id="Layer_1" data-name="Layer 1" viewBox="0 0 500 500">
  <defs>
    <style>.cls-1{fill:#010101;}.cls-2{fill:#fdfdfd;}.cls-3{fill:#020202;}.cls-4{fill:#fefefe;}.cls-5{fill:#030303;}.cls-6{fill:#fcfcfc;}.cls-7{fill:#fafafa;}.cls-8{fill:#f7f7f7;}.cls-9{fill:#f6f6f6;}</style>
  </defs>
  <path class="cls-1" d="M249.86,368.16c-47.73-.19-94.32-6.87-138.8-25-24.11-9.81-46.35-22.65-64.25-42C35.94,289.45,28.21,276,25.71,260c-3-19.05,2.32-36.08,13.34-51.45,14.8-20.64,35.25-34.27,57.68-45.19,33.4-16.26,69-24.86,105.72-28.81,51-5.48,101.48-2.93,151.14,10.49,32.21,8.7,62.58,21.4,88.43,43.17,12,10.12,22.09,21.87,27.92,36.64,10.31,26.11,4.7,49.76-12.35,71.07-16.75,20.93-39.06,34.37-63.23,44.94-36.22,15.83-74.4,23.41-113.66,26.28C270.43,367.88,260.15,368.09,249.86,368.16Z"></path>
  <path class="cls-2" d="M254.18,143.78c41.76.37,86.52,6.53,129.25,23.83,22,8.91,42.68,20.16,59.27,37.6,27.34,28.74,27,62.12-.76,90.5-16.83,17.17-37.45,28.46-59.55,37.19-49.3,19.49-100.72,25.28-153.28,22.81-42.38-2-83.55-9.77-122.43-27.46C87.1,319.33,68.86,308.3,54.51,291.9,39.4,274.6,32.33,255.07,40,232.29c5.92-17.5,18.32-30.11,32.81-40.78,24.46-18,52.25-28.78,81.43-36.25C185.72,147.21,217.75,143.86,254.18,143.78Z"></path>
  <path class="cls-3" d="M249.79,348.91c-44.65-.39-88.33-6.3-130-23.07-20.54-8.26-39.8-18.75-55.65-34.57-12.17-12.15-20.58-26.11-19.53-44.12.88-15.07,8.37-27,18.6-37.38,18.06-18.32,40.4-29.73,64.21-38.43,46.35-17,94.44-21.82,143.41-19.55,36.56,1.7,72.31,7.92,106.55,21.33,20.46,8,39.76,18.1,56,33.23,11.34,10.59,20.09,22.74,21.91,38.79,1.37,12.05-2,22.91-8.5,32.83-11.11,16.88-27.06,28.19-44.51,37.55C369.81,332.9,334.8,341.6,298.57,346A395.7,395.7,0,0,1,249.79,348.91Z"></path>
  <path class="cls-4" d="M249.69,157.08c43.53-.6,86.17,5,126.94,21.08,21.34,8.44,41.4,19.13,57.47,36,10.39,10.89,17.4,23.33,16.28,39.07-.82,11.57-6.1,21.17-13.54,29.68-15.38,17.61-35.22,28.66-56.42,37.48-35.8,14.89-73.38,21.39-111.91,23.05-46.26,2-91.7-2.64-135.65-17.94-24.24-8.45-47-19.65-65.56-38-8-7.91-14.35-16.94-16.86-28.12-3.68-16.45,2.22-30.23,12.79-42.35,14.69-16.86,33.65-27.59,53.87-36.27,33.84-14.53,69.46-21.33,106-23.59C232,156.61,240.84,157.08,249.69,157.08Z"></path>
  <path d="M256.52,214c2.53-7.47,5.27-14.86,7.48-22.42,1-3.54,2.74-4.61,6.34-4.54,9.35.17,9.34,0,6.38,8.62-4.62,13.44-9.31,26.87-13.75,40.37-1.09,3.32-2.55,4.75-6.29,4.64-8.93-.26-8.9-.05-10.56-8.77a199.14,199.14,0,0,0-5.72-24c-3.24,9.54-6.44,19.1-9.77,28.61-.52,1.49-.37,3.87-2.72,3.94a51.42,51.42,0,0,1-10.83-.37c-1.42-.26-.16-2.5.26-3.74,4.57-13.46,9.22-26.9,13.79-40.36.74-2.17,2.05-4.26.6-6.77-1.12-1.92.58-2,1.86-2.05,4.74,0,9.49.05,14.23,0,2.42,0,2.74,1.5,3.09,3.33,1.48,7.89,3,15.78,4.56,23.67Z"></path>
  <path class="cls-1" d="M285.28,240.6c-3.64,0-7.28-.14-10.9,0-3.21.16-4.14-.56-2.93-3.94,4.72-13.24,9.22-26.55,13.71-39.86.82-2.44,2.38-4.78.88-7.68-1-1.87.86-2,2.09-2,7.9.07,15.84-.3,23.68.41,9.59.88,14.41,7.42,13.5,17.08a62.67,62.67,0,0,1-7,22.95c-4.53,8.81-12.09,12.53-21.62,12.88-3.78.14-7.58,0-11.37,0Z"></path>
  <path class="cls-1" d="M212.42,306.36a34.49,34.49,0,0,1-8.46-.76c-7.43-2-11.53-6.68-11.43-14.25a53,53,0,0,1,10-30.63c6.67-9.3,25.2-12.44,35.06-6.5a13,13,0,0,1,6.59,11.86,53.93,53.93,0,0,1-9.95,31.13C229,304.56,221.06,306.53,212.42,306.36Z"></path>
  <path class="cls-1" d="M364,252.09c4.24.23,9.16-.46,14,.53,8,1.64,11.39,5.67,10.29,13.73-1.15,8.47-3.55,16.64-13.05,19.72-2.39.78-1.89,1.94-1.29,3.54,1.51,4,2.77,8.09,4.47,12,1.5,3.43.25,3.93-2.93,3.94-10.56,0-10.55.11-13.54-10-.54-1.82-1.16-3.62-1.6-5.47s-1.22-3-3.48-3-2.91,1.36-3.48,3.09c-1.3,3.9-2.8,7.74-3.92,11.69-.77,2.71-2.12,3.68-5,3.7-11.19.08-11.17.2-7.45-10.48q6-17.25,11.93-34.53c.46-1.34,1.48-3.05,1-4-2.6-5.66,1.56-4.34,4.33-4.41C357.32,252,360.33,252.09,364,252.09Z"></path>
  <path class="cls-1" d="M167.14,252.09c4.53.26,9.77-.53,14.94.76,7,1.74,10.43,6.14,9.36,13.15-1.32,8.62-3.55,17-13.25,20.14-2.49.82-1.6,2.23-1.07,3.69,1.46,4,2.83,8.07,4.45,12,1.06,2.58.8,3.58-2.34,3.7-11,.44-11,.54-14.13-9.8-.5-1.67-1-3.33-1.5-5s-.71-3.64-3.45-3.67c-2.55,0-3.17,1.37-3.79,3.31-1.25,3.92-2.79,7.75-3.94,11.69-.74,2.54-2,3.42-4.73,3.47-11.3.22-11.33.3-7.66-10.37,3.95-11.52,8-23,11.94-34.53.5-1.48,1.48-3.41,1-4.51-2.21-4.64.87-4.06,3.57-4Z"></path>
  <path d="M211.09,214.51c.43,7.41.78,14.83,1.35,22.23.22,2.8-.47,4.26-3.53,3.86a17,17,0,0,0-2.37,0c-7.9,0-8,0-8.07-7.91,0-3.12-1-4.39-4.06-4a6.3,6.3,0,0,1-1.89,0c-7.52-1.43-12.82,1-15.22,8.62-1.33,4.2-4.8,3.44-7.84,3.24-2.88-.19-6.94,1.56-8.31-.91-1.07-1.92,2.22-4.82,3.65-7.23,7-11.82,14.13-23.57,21.11-35.41,1.46-2.47,3.85-4.68,2.61-8.18-.58-1.64,1.09-1.59,2.13-1.6,5.37,0,10.75.05,16.12-.06,2.8-.06,2.9,1.69,3,3.71.4,7.89.86,15.77,1.29,23.66Z"></path>
  <path class="cls-1" d="M323.61,252.08c5.54,0,11.07,0,16.6,0,2.12,0,3,.6,2,2.76-.06.14-.11.29-.16.44-2.75,9.15-2.75,9.15-12.45,9.15-2.69,0-5.38.1-8.06,0-2.18-.11-3.42.52-4.23,2.74-2.11,5.8-2.2,5.79,4.12,5.8,2.53,0,5.08.2,7.58-.05,4.08-.41,5.14.44,3.7,4.82-1.63,5-3.85,7.45-9.34,6.57-2.93-.47-6,0-9-.1a3.35,3.35,0,0,0-3.64,2.24c-2.82,6.23-2.6,6.67,4.25,6.66,3.64,0,7.27,0,10.91,0,1,0,3-.19,2.73,1a69.36,69.36,0,0,1-3,9.91c-.8,2.27-2.93,1.44-4.53,1.45-9.17.08-18.34-.1-27.51.11-3.69.08-4.25-1-3.05-4.33,4.8-13.38,9.39-26.84,14-40.28.47-1.34,1.45-3,1.05-4.05-2.4-6.24,2.1-4.75,5.16-4.79C315.07,252,319.34,252.07,323.61,252.08Z"></path>
  <path class="cls-1" d="M266.25,289.26c5.3-10.38,10.88-20.63,15.78-31.19,2.19-4.71,4.86-6.86,10.06-6a46.88,46.88,0,0,0,7.4.07c.4,2-.7,3.1-1.35,4.28-8.21,15-16.54,29.89-24.67,44.91-1.6,2.94-3.31,4.67-6.93,4.26-4.36-.5-9.92,1.75-12.88-.86s-1.26-8.36-1.56-12.71c-.68-10.09-1-20.22-1.42-30.33-.09-2.05.28-4.37-1.09-6-3.6-4.22-.16-3.54,2.33-3.57,12.09-.16,12.22-.15,12.55,11.76.23,8.34,0,16.7,0,25.05Z"></path>
  <path class="cls-1" d="M137.7,240.6c-4.75,0-9.51-.15-14.25.06-3.16.13-3.8-.71-2.73-3.75,4.71-13.27,9.26-26.59,13.76-39.93.83-2.46,2.32-4.88.89-7.74-1-2,.73-2,2-2,4.11-.06,8.23.12,12.34-.07,3.2-.14,3.3,1.13,2.4,3.67-3.75,10.59-7.38,21.22-11,31.83-1.76,5.11-1.76,5.11,3.67,5.13,4.27,0,8.54.06,12.82,0,2.18,0,2.92.79,2,2.86a3.36,3.36,0,0,0-.14.45c-2.67,9.51-2.67,9.51-12.66,9.5h-9Z"></path>
  <path class="cls-5" d="M137.4,259.26c-.05,3.61-1.73,4.62-4.06,5.38-7.06,2.3-14,4.79-21.07,7.22-.23.08-.38.4-1.06,1.14,6.4,0,12.31.13,18.21-.05,3.08-.09,3.32.91,2.44,3.55-3.06,9.27-3,9.29-12.94,9.3-7.58,0-15.17-.08-22.76.05-2.8,0-3.43-.88-2.22-3.29a1.83,1.83,0,0,0,.15-.45c1.46-7.32,5.5-11.38,13.15-13.2C117.3,266.52,127,262.66,137.4,259.26Z"></path>
  <path class="cls-3" d="M330.73,232.77c-.24-3.66,1.64-4.59,3.89-5.33A172.92,172.92,0,0,0,356.49,219c-5.83,0-11.66-.11-17.49,0-2.95.08-3.95-.42-2.81-3.68,3.13-9,3-9,12.61-9,7.6,0,15.19.11,22.78-.05,3.08-.07,3.17.93,2.5,3.58-1.82,7.13-5.43,11.47-13.2,13.27C350.78,225.44,341.06,229.38,330.73,232.77Z"></path>
  <path class="cls-6" d="M295.38,227.75c-5.94.12-6.06,0-4.42-4.77q3.39-9.84,6.84-19.65c1.26-3.54,4.72-4.68,9.73-3.26,3.59,1,4,3.63,3.32,6.72a67.94,67.94,0,0,1-4.86,14.3C303.77,226,300,228.2,295.38,227.75Z"></path>
  <path class="cls-6" d="M222,264.3c6.41-.06,8.27,2.12,7.05,7.9a61.58,61.58,0,0,1-5.37,15.13c-1.31,2.61-3.09,4.81-6.08,5.59-3.41.88-7.05,1.73-9.94-.88s-1.28-6-.38-8.9a105.7,105.7,0,0,1,4.65-12.4C213.94,266.32,217.52,264,222,264.3Z"></path>
  <path class="cls-7" d="M365.67,275.35c-7.25.06-7.25.06-5.27-5.6a8.82,8.82,0,0,1,12.08-5.08,2.88,2.88,0,0,1,1.79,3.45c-.52,2.83-1.13,5.75-4.38,6.69A20.15,20.15,0,0,1,365.67,275.35Z"></path>
  <path class="cls-8" d="M167,275.29c-1.18-.91-4.4,1.85-4.75-1.75s3.34-9,5.59-9.2a15,15,0,0,1,2.84,0c2.57.32,6.19-1.27,6.71,3.15.48,4.07-2.71,7.44-7.09,7.78C169.36,275.35,168.4,275.29,167,275.29Z"></path>
  <path class="cls-9" d="M198,203.36q0,6.22,0,12.44c0,1.26-.43,2.23-1.86,2.16-2.3-.12-4.89.93-6.79-.65-1-.82.55-2.26,1.12-3.3,2-3.67,4.11-7.27,6.17-10.89Z"></path>
</svg>
