<?xml version="1.0" encoding="UTF-8"?>
<svg xmlns="http://www.w3.org/2000/svg" id="Layer_1" data-name="Layer 1" viewBox="0 0 500 500">
  <path d="M247.32,377c-14.39.59-29.68-.76-44.94-2.56a331.88,331.88,0,0,1-73.81-17.2,249.22,249.22,0,0,1-28.32-12.18c-4.84-2.45-9.75-4.86-14-8.29-1-.8-1.09-1.15-.14-2.1,8.51-8.47,18.34-15.23,28.33-21.77,14.56-9.52,29.94-17.57,45.6-25.12A538.58,538.58,0,0,1,244.47,256c13.44-3.87,27-7,41-8.28,10-.94,20.08-1.4,30,1.28,6.62,1.8,12.6,4.7,16.86,10.36a26.52,26.52,0,0,1,5.12,15.12c.48,10.49-2.17,20.42-6.11,30C323,324.74,311.24,343,297.68,360.15q-5.26,6.66-10.42,13.41a4.16,4.16,0,0,1-3.32,1.81C272.08,376.15,260.22,377,247.32,377Z"></path>
  <path d="M253.23,122.94a362.67,362.67,0,0,1,57.27,4.51,315.28,315.28,0,0,1,62.36,16c8.43,3.16,16.41,7.41,24.6,11.18,2.82,1.3,5.65,2.55,8.42,4,1.18.61,1.35,1.06.47,2.11a81.36,81.36,0,0,1-12,11.37c-15.5,12.24-32.67,21.63-50.56,29.82-21.74,9.95-44.25,17.89-66.93,25.35-14.41,4.75-28.8,9.54-43.66,12.78-12.57,2.75-25.26,4.43-38.11,3.73-7.87-.42-15.53-2.15-22.13-7A24.69,24.69,0,0,1,163.55,222c-1.93-8-1-15.88.9-23.75,3.1-12.84,8.73-24.61,15-36.12a254.41,254.41,0,0,1,24-35.74,2.61,2.61,0,0,1,1.9-1.06A317.83,317.83,0,0,1,253.23,122.94Z"></path>
  <path d="M305.11,372.82a46.18,46.18,0,0,1,5-5.53c13.81-14,25.34-29.82,36.4-46,7-10.27,13.91-20.63,20.34-31.28q16.35-27.09,30.31-55.5c3.47-7,6.87-14.1,10.1-21.24,4.26-9.41,7.89-19.09,11.63-28.72,1.67-4.32,3.34-8.63,5-13,.44-1.15,1-.49,1.53-.18,5.08,3.23,10.16,6.45,14.64,10.51,8.71,7.87,16.53,16.5,22.68,26.55a82.49,82.49,0,0,1,11.62,31.92,71.63,71.63,0,0,1-1.42,26.85c-4.06,16.83-13.07,30.81-24.88,43.18-13,13.66-28.37,24.16-45,32.88a266.21,266.21,0,0,1-67.93,24.4c-9.4,2-19,3.38-28.45,5C306.26,372.8,305.86,372.78,305.11,372.82Z"></path>
  <path d="M25,250.14c-.06-16.49,5.37-31.55,14.71-45.34C49.44,190.45,62,179,76.24,169.28c19.36-13.28,40.52-22.73,62.81-29.89a234.86,234.86,0,0,1,28.19-7.45c4.11-.78,8.24-1.41,12.36-2.1.4-.07.9-.29,1.16.06.37.51-.21.83-.46,1.15-6.17,7.87-12.52,15.6-18.49,23.61C151.16,169,141.49,184,132.19,199.22a715.3,715.3,0,0,0-36.68,68.54,485,485,0,0,0-21.23,52.32c-.58,1.74-1.12,3.49-1.74,5.22s-.67,1.79-2.22.75a103.32,103.32,0,0,1-13.95-11.17c-10-9.52-18.33-20.22-24.17-32.8a89.78,89.78,0,0,1-6.67-22.63A71.05,71.05,0,0,1,25,250.14Z"></path>
</svg>
