<svg xmlns="http://www.w3.org/2000/svg" width="500" height="500" viewBox="0 0 500 500"><path d="M404.17,387.21V327.47H379.51v59.74Z" fill="#231f20" fill-rule="evenodd"/><path d="M273.64,362.4v-34H249.75v26c0,7.56-.31,9.68-.76,11.64-1.66,5.45-7.41,7.87-13.31,7.87-8.17,0-12-3.18-13.46-8.17a30.92,30.92,0,0,1-.76-5.29c-.15-2,0-4.09,0-6.36V328.37h-24.2v34.18c0,7.72,2.58,13.46,6.81,17.4,7.26,7.11,19.51,9.22,30.85,9.22,13.77,0,24.35-2,31.92-9.37,3.93-3.79,6.8-8.78,6.8-17.4Z" fill="#231f20" fill-rule="evenodd"/><path d="M156.28,358.17a20.49,20.49,0,0,0-3.63-.3H125.42a22,22,0,0,0-3.63.3,22.81,22.81,0,0,0,2.27-2.57l12.25-20.27A35.32,35.32,0,0,0,139,330a40.28,40.28,0,0,0,2.72,5.44l12.55,20.42a15.84,15.84,0,0,0,2,2.27Zm45.67,29L147.5,305.54H117l8,9.52a3.15,3.15,0,0,0,.76.46,3.16,3.16,0,0,0-.76.45L77.48,387.21H105L112.42,375a4,4,0,0,0,.45-1.52,14.33,14.33,0,0,0,1.81.31h49.16a3.84,3.84,0,0,0,1.66-.31,2,2,0,0,0,.31,1.21l7.71,12.56Z" fill="#231f20" fill-rule="evenodd"/><path d="M372.86,356.51c0-6.66-2.72-14.37-11.19-25.11l-20.42-25.86H312.82L329,323.68a55.87,55.87,0,0,0,6.2,5.75,26.89,26.89,0,0,0-12.86-3.17A56.33,56.33,0,0,0,295,332.91c-9.08,5-15.13,13.31-15.13,24.35,0,8.47,3.78,15,8.62,20,10.89,10.88,30.71,11.94,38,11.94,10.74,0,27.52-2.42,37.05-11a28.35,28.35,0,0,0,9.38-21.62Zm-23.6.75c0,6.2-4.08,10.89-9.22,13.46-4.24,2.27-9.23,2.88-13.61,2.88a31.9,31.9,0,0,1-13.77-3c-5.14-2.57-9.07-7.56-9.07-13,0-6.5,5-11.64,10.89-14.21A28.72,28.72,0,0,1,326,341.08a34.69,34.69,0,0,1,11.95,2c6.81,2.88,11.34,8.32,11.34,14.22Z" fill="#231f20" fill-rule="evenodd"/><path d="M396.33,110.83a78.3,78.3,0,0,0-48.77,16.94,78.7,78.7,0,0,0-97.56,0,78.7,78.7,0,0,0-97.56,0,78.67,78.67,0,1,0,0,123.44,78.67,78.67,0,0,0,97.56,0,78.67,78.67,0,0,0,97.56,0,78.66,78.66,0,1,0,48.77-140.38ZM139.57,238.36a60.65,60.65,0,1,1,0-97.73,78.69,78.69,0,0,0,0,97.73Zm12.87-12.83a60.67,60.67,0,0,1,0-72.07,60.63,60.63,0,0,1,0,72.07Zm84.69,12.83a60.69,60.69,0,0,1-71.81,0,78.69,78.69,0,0,0,0-97.73,60.65,60.65,0,0,1,71.81,0,78.66,78.66,0,0,0,0,97.73ZM250,225.53a60.63,60.63,0,0,1,0-72.07,60.63,60.63,0,0,1,0,72.07Zm84.68,12.83a60.69,60.69,0,0,1-71.81,0,78.66,78.66,0,0,0,0-97.73,60.65,60.65,0,0,1,71.81,0,78.69,78.69,0,0,0,0,97.73Zm12.88-12.83a60.63,60.63,0,0,1,0-72.07,60.67,60.67,0,0,1,0,72.07Zm48.77,24.61a61,61,0,0,1-35.9-11.78,78.69,78.69,0,0,0,0-97.73,60.64,60.64,0,1,1,35.9,109.51Z" fill="#231f20" fill-rule="evenodd"/></svg>