<?xml version="1.0" encoding="UTF-8"?>
<!-- Generator: Adobe Illustrator 26.0.1, SVG Export Plug-In . SVG Version: 6.00 Build 0)  -->
<svg xmlns="http://www.w3.org/2000/svg" xmlns:xlink="http://www.w3.org/1999/xlink" version="1.1" id="Layer_1" x="0px" y="0px" viewBox="0 0 500 500" style="enable-background:new 0 0 500 500;" xml:space="preserve">
<style type="text/css">
	.st0{fill-rule:evenodd;clip-rule:evenodd;fill:#013378;}
	.st1{fill-rule:evenodd;clip-rule:evenodd;fill:#FFFFFF;}
</style>
<g>
	<path class="st0" d="M250.1,335.1c124.2,0,224.9-38,224.9-85c0-47-100.7-85.2-224.9-85.2C125.7,164.9,25,203.1,25,250.1   C25,297.1,125.7,335.1,250.1,335.1L250.1,335.1L250.1,335.1L250.1,335.1z"></path>
	<path class="st1" d="M250.1,326.4c-119.3,0-216.2-34-216.2-76.3c0-42.2,96.9-76.6,216.2-76.6c119.6,0,216.4,34.4,216.4,76.6   C466.4,292.4,369.6,326.4,250.1,326.4L250.1,326.4L250.1,326.4L250.1,326.4z"></path>
	<path class="st0" d="M250.1,320.5c115.7,0,209.5-31.5,209.5-70.4c0-38.7-93.9-70.2-209.5-70.2c-115.8,0-209.4,31.5-209.4,70.2   C40.7,289,134.3,320.5,250.1,320.5L250.1,320.5L250.1,320.5L250.1,320.5z"></path>
	<path class="st1" d="M304.9,264.1c9.9-9.3,15.4-19,29.6-18.9c8.6,0.1,10.7,7,12.2,9.9l0,0l18.7-31.6h11.5l-31.1,55l0,0   c-0.6,1.2-2,3.3-1.9,5.1c0.3,2.8,3.8,2,2.5,2c6.2-0.3,17.7-12.2,20.5-15.1c0.6-0.7,1.6-2,2.2-2c0.6,0,1.7,0.6,1.7,1.5   c0,0.6-1.3,2.8-2.3,4.1c-5.8,7.3-15.4,18.4-26.3,18.7c-5.4,0-7.4-2.2-8.1-6.4c-2.5,2.2-10.9,5.9-19.4,5.9c-7.1-0.1-10-4.4-11.5-7.7   c-1.3-2.8-1.9-6.8-0.9-10.9c-3.9,2-7.5,2.3-12.8,2.2c-6.1-0.1-9.9-2.9-11.8-10c-7,12.8-7.3,13.2-14.4,26.6l0,0h-12.3l15.8-26.8l0,0   c2-3.6,3-6.5,3.8-9.6c0.4-1.7-0.9-3.3-2.8-3.5c-2,0-5.4,2-8.6,5.1c0,0-8.1,8.7-14.1,17.6c-5.7,8.4-15.4,18-26,18   c-7.7,0-14.7-4.2-16.1-12.3c0,0-0.7,1.9-7.5,5.8c-0.6,0.3-2,1.2-2.5,0.9c-1.3-1.2-2-2.6-2.2-3.6c0.4,0.1,1.3-0.6,4.1-2.8   c5.4-4.1,6.5-7.3,6.5-7.3c1.3-2.8,3.6-7.1,5.2-10.2c4.4-8.7,11.9-17.6,24.2-18c2,0,2.6,0.9,3,1.6c1.2,0.9,0.7,2.6,0.7,2.6   c-8.7,1.3-14.7,6.4-18.3,11.3c-2.2,3.2-4.5,8.4-4.9,12.2c-0.9,6.5,2.2,10.9,6.7,11.9c8.4,1.3,15.4-4.8,20.9-14.2   c1.5-2.5,2.5-8.9,2.5-12.3c0-3.5-1.9-7.1-3.3-8.6c0-2.5,1.6-4.1,3.5-4.1c0.6,0,1.2,0,1.7,0.6c2.9,2.9,4.5,8.4,4.5,12.6   c0,1.5,0,2.9-0.3,4.4c6.1-7.4,13.8-17,19.7-18.9c1.2-0.6,2.3-0.6,3.5-0.6c10.9-0.3,9.4,9.6,9.4,9.6c5.8-6.7,9.9-9.1,15.2-8.9   c5.8,0.3,7.8,4.4,7.8,7.5c-0.1,3.8-2.9,8.1-7.7,8.3c-4.2,0-6.7-2-8-5.8c-2.8,1-4.1,2.9-4.6,6.7c-0.9,4.8,2.8,8.6,7.4,8.6   C298.5,270.2,302,266.8,304.9,264.1L304.9,264.1L304.9,264.1L304.9,264.1z"></path>
	<path class="st1" d="M313.6,201.6c0,4.6-16.3,13.5-30,13.5c-21.5,0-43.8-10.3-54.1-12.6c-11.2-2.6-21.3-4.8-29.3-4.8   c-28,0-40.5,12-39.9,23.1c0.3,4.5,3.9,7.4,9.3,6.4c5.8-1,13.9-6.5,16-11.3c0.4-1,1.6-1.2,2-0.9c0.9,0.7,0.6,1.7,0.6,1.7   c-0.7,5.7-9.4,21.3-24.5,21.3c-8.4,0-14.1-7.8-13.9-15.5c0.1-14.4,14.8-28.9,50.9-28.9c6.8,0,14.5,0.6,22.9,2   c9.7,1.7,34,5.8,53.7,6.1c7.3,0,16.5,0.3,24.1-0.9c8-1.3,6.2-1.6,9.4-1.6C313.6,199.3,313.6,200.4,313.6,201.6L313.6,201.6   L313.6,201.6L313.6,201.6z"></path>
	<path class="st0" d="M335.1,252.1c-5.1-0.6-11.5,3.8-16.7,10.2c-2.6,3.2-5.4,9.3-5.8,12.9c-0.6,3.6,0.4,7.3,1.7,8.3   c1.3,1,7.1,4.1,16.1-5.1c5.1-5.1,10-13.4,10-13.4l0,0l-1.6-0.4l0,0C341.9,258.9,341.3,252.8,335.1,252.1L335.1,252.1L335.1,252.1   L335.1,252.1z"></path>
	<path class="st1" d="M229,235c0,1.6,2.2,2.9,4.1,3c-0.4,1.6-0.3,2.3-1,2.2c-4.4,0-6.1-4.2-6.1-4.2c-5.8,1-11.5,1.7-22.9,2.9   c-28.9,46.7-37.9,54.4-55.6,54.4c-12.6,0-23.8-8.3-24.1-23.1c-0.1-9,7.1-20,20.6-23.4c1.6,0,2.2,0.6,2.2,1.5c0,0.6-0.6,1.3-1.9,1.9   c-3.9,1.5-10.7,9.1-10.7,16.3c0,5.4,3.3,11.3,9,12.6c1.6,0.4,3,0.3,4.5,0.3c14.1,0,29.9-15.8,47-39.9c-2.8,0.1-14.5,1.5-17.4,4.8   c-1.3,1-2.2,0.4-2.5-0.7c0-0.3,0.4-1.3,0.9-1.9c4.6-5.2,18.6-6.4,21.9-6.8c13.1-20,29.9-32.5,33.4-32.4c0.6,0,1.9,0.9,1.3,2.3   c-0.1,0.3-1.6,1.9-2.2,2.3c-2.9,2.6-12.8,9-23.5,27.1c8.7-0.4,18.9-2.2,18.9-2.2s-0.6-1.9-0.6-3.5c0.4-6.2,4.1-10,8.7-9.3   c2.6,0.4,4.4,2.6,4.4,4.9c0,2.5-1.9,6.1-3.8,7.8C232.2,233.1,230.8,234.1,229,235L229,235L229,235L229,235z"></path>
	<path class="st0" d="M228.3,231.8c0,0,1.5,0.1,3.6-2.3c0.9-0.9,2.3-3.5,2-5.2c-0.1-0.9-0.6-1.9-1.6-1.7c-2.2,0.4-3.5,1.5-4.1,3.6   C227.6,228.4,227.9,230,228.3,231.8L228.3,231.8L228.3,231.8L228.3,231.8z"></path>
</g>
</svg>
