<?xml version="1.0" encoding="UTF-8"?>
<svg xmlns="http://www.w3.org/2000/svg" id="Layer_1" data-name="Layer 1" viewBox="0 0 500 500">
  <path d="M60.59,227.92A5.15,5.15,0,0,0,57,229.73L26.37,270.25c-.76,1-.35,1.81.9,1.81H62.72a5.13,5.13,0,0,0,3.63-1.81L97,229.74c.75-1,.35-1.8-.9-1.8Z"></path>
  <path d="M124.38,229.73c.76-1,.35-1.81-.9-1.81H107a5.19,5.19,0,0,0-3.64,1.81l-30.6,40.52c-.75,1-.35,1.81.9,1.81H90.16a5.11,5.11,0,0,0,3.63-1.81Z"></path>
  <path d="M134.69,227.92a5.17,5.17,0,0,0-3.63,1.81l-30.61,40.52c-.75,1-.34,1.81.9,1.81h12.53a5.14,5.14,0,0,0,3.64-1.81l30.6-40.52c.76-1,.35-1.81-.9-1.81Z"></path>
  <path d="M126.06,270.27c-.75,1-.35,1.81.9,1.81h8.55a5.13,5.13,0,0,0,3.63-1.82l30.59-40.5c.75-1,.35-1.82-.9-1.82h-8.55a5.17,5.17,0,0,0-3.63,1.81Z"></path>
  <path d="M149,270.26c-.75,1-.35,1.8.9,1.8H156a5.18,5.18,0,0,0,3.64-1.8l30.58-40.37c.75-1,.35-1.81-.9-1.81h-6.1a5.17,5.17,0,0,0-3.64,1.81Z"></path>
  <path d="M203.49,228.08a5.17,5.17,0,0,0-3.64,1.81l-30.59,40.38c-.75,1-.34,1.81.9,1.81h14.67a5.21,5.21,0,0,0,3.63-1.81l4.75-6.27a5.16,5.16,0,0,1,3.63-1.8l56.53,0a2.27,2.27,0,0,1,2.27,2.27v5.36a2.28,2.28,0,0,0,2.27,2.27h11.45a2.27,2.27,0,0,0,2.27-2.27V230.37a2.27,2.27,0,0,0-2.27-2.27Zm2.28,22.3c-1.25,0-1.66-.81-.91-1.81l5.53-7.34a5.14,5.14,0,0,1,3.64-1.81h39.34a2.27,2.27,0,0,1,2.27,2.26v6.42a2.27,2.27,0,0,1-2.27,2.27Z"></path>
  <path d="M279.54,269.8a2.27,2.27,0,0,0,2.27,2.26h11.45a2.27,2.27,0,0,0,2.27-2.26l0-22.16c0-1.25.88-1.75,1.95-1.12l22,13a9.86,9.86,0,0,0,4.22,1.15h8.25a9.87,9.87,0,0,0,4.22-1.16l22-12.93c1.08-.63,2-.13,2,1.12l0,22.15a2.27,2.27,0,0,0,2.27,2.26H373.8a2.27,2.27,0,0,0,2.27-2.26V230.37a2.27,2.27,0,0,0-2.27-2.27l-11.45,0a9.18,9.18,0,0,0-4.18,1.23L329.73,247.7a3.86,3.86,0,0,1-3.81,0l-28.47-18.39a9.14,9.14,0,0,0-4.17-1.23l-11.47,0a2.27,2.27,0,0,0-2.27,2.27Z"></path>
  <path d="M384.07,269.8a2.27,2.27,0,0,0,2.27,2.26h86.39A2.27,2.27,0,0,0,475,269.8V248.09a2.28,2.28,0,0,0-2.27-2.27h-42.4a2.27,2.27,0,0,0-2.26,2.27v4a2.29,2.29,0,0,0,2.28,2.27l26.39,0a2.28,2.28,0,0,1,2.27,2.27v2a2.27,2.27,0,0,1-2.27,2.27h-54.4a2.27,2.27,0,0,1-2.26-2.27V241.55a2.27,2.27,0,0,1,2.26-2.27h70.39A2.27,2.27,0,0,0,475,237v-6.65a2.27,2.27,0,0,0-2.27-2.27l-86.39,0a2.27,2.27,0,0,0-2.27,2.27Z"></path>
</svg>
