<svg xmlns="http://www.w3.org/2000/svg" width="500" height="500" viewBox="0 0 500 500"><path d="M250,106.64C125.74,106.64,25,170.83,25,250S125.74,393.36,250,393.36,475,329.17,475,250,374.26,106.64,250,106.64ZM83.29,193.26c6.19,25.9,51.23,47.41,112.18,55.59,0,1.22,0,2.44,0,3.66,0,61.43,17.68,113,41.51,127-98.88-4.73-176.87-59.27-176.87-125.86,0-21.86,8.41-42.43,23.2-60.36Zm134.55,57.92c10.41.79,21.16,1.21,32.16,1.21s21.75-.42,32.16-1.21c-1.47,45.57-15.31,81.28-32.16,81.28s-30.69-35.71-32.16-81.28Zm86.69-2.33c62.34-8.36,108-30.67,112.54-57.35,15.72,18.34,24.69,39.53,24.69,62.12,0,67-79.05,121.87-178.87,126,23.91-13.88,41.66-65.5,41.66-127.06,0-1.22,0-2.44,0-3.66Zm-35-118.47c62.31,3.17,110.08,21.31,110.08,43.21,0,17.89-31.86,33.27-77.48,40-5-38.27-17.09-69-32.6-83.24Zm11.29,85.68c-9.87.81-20.18,1.24-30.79,1.24s-20.92-.43-30.79-1.24c4.15-36.13,16.36-62.3,30.79-62.3s26.64,26.17,30.79,62.3Zm-82.89-2.44c-45.62-6.76-77.48-22.14-77.48-40,0-7.39,5.44-14.35,15-20.46A225.31,225.31,0,0,1,172,138.69c16.79-4.28,36.76-7.21,58.5-8.31-15.51,14.23-27.63,45-32.6,83.24Z" fill="#383838" fill-rule="evenodd"/><path d="M250,106.64C125.74,106.64,25,170.83,25,250S125.74,393.36,250,393.36,475,329.17,475,250,374.26,106.64,250,106.64ZM83.29,193.26c6.19,25.9,51.23,47.41,112.18,55.59,0,1.22,0,2.44,0,3.66,0,61.43,17.68,113,41.51,127-98.88-4.73-176.87-59.27-176.87-125.86,0-21.86,8.41-42.43,23.2-60.36Zm134.55,57.92c10.41.79,21.16,1.21,32.16,1.21s21.75-.42,32.16-1.21c-1.47,45.57-15.31,81.27-32.16,81.27s-30.69-35.7-32.16-81.27Zm86.69-2.33c62.34-8.36,108-30.67,112.54-57.35,15.72,18.34,24.69,39.53,24.69,62.12,0,67-79.05,121.87-178.87,126,23.91-13.88,41.66-65.5,41.66-127.06,0-1.22,0-2.44,0-3.66Zm-35-118.47c62.31,3.17,110.08,21.31,110.08,43.21,0,17.89-31.86,33.27-77.48,40-5-38.27-17.09-69-32.6-83.24Zm11.29,85.68c-9.87.81-20.18,1.24-30.79,1.24s-20.92-.43-30.79-1.24c4.15-36.13,16.36-62.3,30.79-62.3s26.64,26.17,30.79,62.3Zm-82.89-2.44c-45.62-6.76-77.48-22.14-77.48-40,0-7.39,5.44-14.35,15-20.46A225.31,225.31,0,0,1,172,138.69c16.79-4.28,36.76-7.21,58.5-8.31-15.51,14.23-27.63,45-32.6,83.24Z" fill="none"/></svg>